NotoSansGeorgian-CondensedSemiBold.ufo
<glyph name="acutecomb" format="2">
  <unicode hex="0301"/>
  <anchor x="-19" y="547" name="_top"/>
  <anchor x="-19" y="766" name="top"/>
  <outline>
    <contour>
      <point x="116" y="766" type="line"/>
      <point x="-33" y="766" type="line"/>
      <point x="-54" y="721"/>
      <point x="-80" y="672"/>
      <point x="-115" y="619" type="curve"/>
      <point x="-115" y="606" type="line"/>
      <point x="-22" y="606" type="line"/>
      <point x="24" y="649"/>
      <point x="89" y="719"/>
      <point x="116" y="757" type="curve"/>
    </contour>
  </outline>
</glyph>
<glyph name="circumflexcomb" format="2">
  <unicode hex="0302"/>
  <anchor x="0" y="547" name="_top"/>
  <anchor x="0" y="766" name="top"/>
  <outline>
    <contour>
      <point x="60" y="766" type="curve"/>
      <point x="-59" y="766" type="line"/>
      <point x="-78" y="728"/>
      <point x="-123" y="658"/>
      <point x="-154" y="619" type="curve"/>
      <point x="-154" y="606" type="line"/>
      <point x="-75" y="606" type="line"/>
      <point x="-55" y="623"/>
      <point x="-29" y="653"/>
      <point x="0" y="687" type="curve"/>
      <point x="28" y="653"/>
      <point x="53" y="626"/>
      <point x="76" y="606" type="curve"/>
      <point x="154" y="606" type="line"/>
      <point x="154" y="619" type="line"/>
      <point x="117" y="668"/>
      <point x="82" y="722"/>
    </contour>
  </outline>
</glyph>
<glyph name="macroncomb" format="2">
  <unicode hex="0304"/>
  <anchor x="0" y="547" name="_top"/>
  <anchor x="0" y="723" name="top"/>
  <outline>
    <contour>
      <point x="138" y="723" type="line"/>
      <point x="-138" y="723" type="line"/>
      <point x="-138" y="628" type="line"/>
      <point x="138" y="628" type="line"/>
    </contour>
  </outline>
</glyph>
<glyph name="dieresiscomb" format="2">
  <unicode hex="0308"/>
  <anchor x="1" y="547" name="_top"/>
  <anchor x="1" y="738" name="top"/>
  <outline>
    <contour>
      <point x="-151" y="671" type="curve" smooth="yes"/>
      <point x="-151" y="628"/>
      <point x="-127" y="605"/>
      <point x="-91" y="605" type="curve" smooth="yes"/>
      <point x="-54" y="605"/>
      <point x="-30" y="630"/>
      <point x="-30" y="671" type="curve" smooth="yes"/>
      <point x="-30" y="713"/>
      <point x="-54" y="738"/>
      <point x="-91" y="738" type="curve" smooth="yes"/>
      <point x="-127" y="738"/>
      <point x="-151" y="715"/>
    </contour>
    <contour>
      <point x="30" y="671" type="curve" smooth="yes"/>
      <point x="30" y="629"/>
      <point x="54" y="605"/>
      <point x="91" y="605" type="curve" smooth="yes"/>
      <point x="128" y="605"/>
      <point x="152" y="630"/>
      <point x="152" y="671" type="curve" smooth="yes"/>
      <point x="152" y="713"/>
      <point x="128" y="738"/>
      <point x="91" y="738" type="curve" smooth="yes"/>
      <point x="54" y="738"/>
      <point x="30" y="715"/>
    </contour>
  </outline>
</glyph>
<glyph name="period-arm" format="2">
  <advance width="256"/>
  <unicode hex="0589"/>
  <note>
uni0589
</note>
  <outline>
    <contour>
      <point x="53" y="69" type="curve" smooth="yes"/>
      <point x="53" y="20"/>
      <point x="80" y="-10"/>
      <point x="130" y="-10" type="curve" smooth="yes"/>
      <point x="178" y="-10"/>
      <point x="204" y="19"/>
      <point x="204" y="69" type="curve" smooth="yes"/>
      <point x="204" y="119"/>
      <point x="179" y="149"/>
      <point x="130" y="149" type="curve" smooth="yes"/>
      <point x="78" y="149"/>
      <point x="53" y="119"/>
    </contour>
    <contour>
      <point x="53" y="474" type="curve" smooth="yes"/>
      <point x="53" y="424"/>
      <point x="81" y="395"/>
      <point x="130" y="395" type="curve" smooth="yes"/>
      <point x="177" y="395"/>
      <point x="204" y="424"/>
      <point x="204" y="474" type="curve" smooth="yes"/>
      <point x="204" y="526"/>
      <point x="179" y="554"/>
      <point x="130" y="554" type="curve" smooth="yes"/>
      <point x="79" y="554"/>
      <point x="53" y="524"/>
    </contour>
  </outline>
</glyph>
<glyph name="An-oldgeorgian" format="2">
  <advance width="476"/>
  <unicode hex="10A0"/>
  <note>
uni10A0
</note>
  <outline>
    <contour>
      <point x="300" y="-10" type="curve" smooth="yes"/>
      <point x="354" y="-10"/>
      <point x="402" y="1"/>
      <point x="443" y="25" type="curve"/>
      <point x="443" y="148" type="line"/>
      <point x="404" y="126"/>
      <point x="365" y="109"/>
      <point x="321" y="109" type="curve" smooth="yes"/>
      <point x="229" y="109"/>
      <point x="185" y="185"/>
      <point x="185" y="339" type="curve" smooth="yes"/>
      <point x="185" y="493"/>
      <point x="244" y="595"/>
      <point x="357" y="595" type="curve" smooth="yes"/>
      <point x="443" y="595" type="line"/>
      <point x="443" y="714" type="line"/>
      <point x="62" y="714" type="line"/>
      <point x="62" y="597" type="line"/>
      <point x="158" y="597" type="line"/>
      <point x="158" y="593" type="line"/>
      <point x="87" y="547"/>
      <point x="43" y="451"/>
      <point x="43" y="328" type="curve" smooth="yes"/>
      <point x="43" y="120"/>
      <point x="134" y="-10"/>
    </contour>
  </outline>
</glyph>
<glyph name="Gan-oldgeorgian" format="2">
  <advance width="628"/>
  <unicode hex="10A2"/>
  <note>
uni10A2
</note>
  <outline>
    <contour>
      <point x="329" y="0" type="line"/>
      <point x="623" y="0" type="line"/>
      <point x="623" y="120" type="line"/>
      <point x="465" y="120" type="line"/>
      <point x="465" y="714" type="line"/>
      <point x="57" y="714" type="line"/>
      <point x="57" y="381" type="line"/>
      <point x="193" y="381" type="line"/>
      <point x="193" y="595" type="line"/>
      <point x="329" y="595" type="line"/>
    </contour>
  </outline>
</glyph>
<glyph name="Don-oldgeorgian" format="2">
  <advance width="589"/>
  <unicode hex="10A3"/>
  <note>
uni10A3
</note>
  <outline>
    <contour>
      <point x="296" y="-10" type="curve" smooth="yes"/>
      <point x="461" y="-10"/>
      <point x="547" y="108"/>
      <point x="547" y="270" type="curve" smooth="yes"/>
      <point x="547" y="416"/>
      <point x="475" y="515"/>
      <point x="360" y="536" type="curve"/>
      <point x="360" y="595" type="line"/>
      <point x="534" y="595" type="line"/>
      <point x="534" y="714" type="line"/>
      <point x="56" y="714" type="line"/>
      <point x="56" y="595" type="line"/>
      <point x="230" y="595" type="line"/>
      <point x="230" y="536" type="line"/>
      <point x="116" y="515"/>
      <point x="43" y="416"/>
      <point x="43" y="271" type="curve" smooth="yes"/>
      <point x="43" y="108"/>
      <point x="128" y="-10"/>
    </contour>
    <contour>
      <point x="295" y="110" type="curve" smooth="yes"/>
      <point x="223" y="110"/>
      <point x="184" y="166"/>
      <point x="184" y="269" type="curve" smooth="yes"/>
      <point x="184" y="372"/>
      <point x="226" y="425"/>
      <point x="296" y="425" type="curve" smooth="yes"/>
      <point x="366" y="425"/>
      <point x="406" y="372"/>
      <point x="406" y="269" type="curve" smooth="yes"/>
      <point x="406" y="167"/>
      <point x="368" y="110"/>
    </contour>
  </outline>
</glyph>
<glyph name="En-oldgeorgian" format="2">
  <advance width="529"/>
  <unicode hex="10A4"/>
  <note>
uni10A4
</note>
  <outline>
    <contour>
      <point x="329" y="0" type="line"/>
      <point x="465" y="0" type="line"/>
      <point x="465" y="714" type="line"/>
      <point x="57" y="714" type="line"/>
      <point x="57" y="381" type="line"/>
      <point x="193" y="381" type="line"/>
      <point x="193" y="595" type="line"/>
      <point x="329" y="595" type="line"/>
    </contour>
  </outline>
</glyph>
<glyph name="Vin-oldgeorgian" format="2">
  <advance width="708"/>
  <unicode hex="10A5"/>
  <note>
uni10A5
</note>
  <outline>
    <contour>
      <point x="333" y="0" type="line"/>
      <point x="470" y="0" type="line"/>
      <point x="470" y="316" type="line"/>
      <point x="555" y="316" type="line"/>
      <point x="555" y="189" type="line"/>
      <point x="676" y="189" type="line"/>
      <point x="676" y="429" type="line"/>
      <point x="470" y="429" type="line"/>
      <point x="470" y="714" type="line"/>
      <point x="57" y="714" type="line"/>
      <point x="57" y="379" type="line"/>
      <point x="194" y="379" type="line"/>
      <point x="194" y="595" type="line"/>
      <point x="333" y="595" type="line"/>
    </contour>
  </outline>
</glyph>
<glyph name="Zen-oldgeorgian" format="2">
  <advance width="613"/>
  <unicode hex="10A6"/>
  <note>
uni10A6
</note>
  <outline>
    <contour>
      <point x="356" y="-10" type="curve" smooth="yes"/>
      <point x="501" y="-10"/>
      <point x="576" y="98"/>
      <point x="576" y="273" type="curve" smooth="yes"/>
      <point x="576" y="445"/>
      <point x="517" y="553"/>
      <point x="402" y="553" type="curve" smooth="yes"/>
      <point x="345" y="553"/>
      <point x="305" y="521"/>
      <point x="279" y="464" type="curve"/>
      <point x="273" y="464" type="line"/>
      <point x="277" y="503"/>
      <point x="279" y="546"/>
      <point x="279" y="585" type="curve" smooth="yes"/>
      <point x="279" y="714" type="line"/>
      <point x="-2" y="714" type="line"/>
      <point x="-2" y="596" type="line"/>
      <point x="143" y="596" type="line"/>
      <point x="143" y="269" type="line" smooth="yes"/>
      <point x="143" y="97"/>
      <point x="208" y="-10"/>
    </contour>
    <contour>
      <point x="355" y="110" type="curve" smooth="yes"/>
      <point x="298" y="110"/>
      <point x="278" y="162"/>
      <point x="278" y="270" type="curve" smooth="yes"/>
      <point x="278" y="376"/>
      <point x="302" y="433"/>
      <point x="356" y="433" type="curve" smooth="yes"/>
      <point x="408" y="433"/>
      <point x="434" y="381"/>
      <point x="434" y="271" type="curve" smooth="yes"/>
      <point x="434" y="162"/>
      <point x="406" y="110"/>
    </contour>
  </outline>
</glyph>
<glyph name="Tan-oldgeorgian" format="2">
  <advance width="737"/>
  <unicode hex="10A7"/>
  <note>
uni10A7
</note>
  <outline>
    <contour>
      <point x="499" y="429" type="line"/>
      <point x="499" y="714" type="line"/>
      <point x="335" y="714" type="line" smooth="yes"/>
      <point x="151" y="714"/>
      <point x="43" y="583"/>
      <point x="43" y="352" type="curve" smooth="yes"/>
      <point x="43" y="122"/>
      <point x="147" y="0"/>
      <point x="326" y="0" type="curve" smooth="yes"/>
      <point x="499" y="0" type="line"/>
      <point x="499" y="316" type="line"/>
      <point x="584" y="316" type="line"/>
      <point x="584" y="189" type="line"/>
      <point x="705" y="189" type="line"/>
      <point x="705" y="429" type="line"/>
    </contour>
    <contour>
      <point x="363" y="118" type="line"/>
      <point x="327" y="118" type="line" smooth="yes"/>
      <point x="232" y="118"/>
      <point x="183" y="191"/>
      <point x="183" y="357" type="curve" smooth="yes"/>
      <point x="183" y="516"/>
      <point x="232" y="595"/>
      <point x="335" y="595" type="curve" smooth="yes"/>
      <point x="363" y="595" type="line"/>
    </contour>
  </outline>
</glyph>
<glyph name="In-oldgeorgian" format="2">
  <advance width="409"/>
  <unicode hex="10A8"/>
  <note>
uni10A8
</note>
  <outline>
    <contour>
      <point x="209" y="0" type="line"/>
      <point x="345" y="0" type="line"/>
      <point x="345" y="714" type="line"/>
      <point x="-2" y="714" type="line"/>
      <point x="-2" y="596" type="line"/>
      <point x="209" y="596" type="line"/>
    </contour>
  </outline>
</glyph>
<glyph name="Kan-oldgeorgian" format="2">
  <advance width="555"/>
  <unicode hex="10A9"/>
  <note>
uni10A9
</note>
  <outline>
    <contour>
      <point x="361" y="0" type="line"/>
      <point x="496" y="0" type="line"/>
      <point x="496" y="375" type="line" smooth="yes"/>
      <point x="496" y="531"/>
      <point x="443" y="628"/>
      <point x="326" y="628" type="curve" smooth="yes"/>
      <point x="265" y="628"/>
      <point x="223" y="596"/>
      <point x="196" y="539" type="curve"/>
      <point x="190" y="539" type="line"/>
      <point x="195" y="573"/>
      <point x="195" y="611"/>
      <point x="195" y="648" type="curve" smooth="yes"/>
      <point x="195" y="714" type="line"/>
      <point x="59" y="714" type="line"/>
      <point x="59" y="353" type="line" smooth="yes"/>
      <point x="59" y="194"/>
      <point x="113" y="99"/>
      <point x="230" y="99" type="curve" smooth="yes"/>
      <point x="291" y="99"/>
      <point x="333" y="126"/>
      <point x="360" y="188" type="curve"/>
      <point x="364" y="188" type="line"/>
      <point x="362" y="149"/>
      <point x="361" y="109"/>
      <point x="361" y="73" type="curve" smooth="yes"/>
    </contour>
    <contour>
      <point x="277" y="211" type="curve" smooth="yes"/>
      <point x="219" y="211"/>
      <point x="196" y="259"/>
      <point x="196" y="362" type="curve" smooth="yes"/>
      <point x="196" y="463"/>
      <point x="220" y="516"/>
      <point x="278" y="516" type="curve" smooth="yes"/>
      <point x="336" y="516"/>
      <point x="360" y="466"/>
      <point x="360" y="364" type="curve" smooth="yes"/>
      <point x="360" y="262"/>
      <point x="333" y="211"/>
    </contour>
  </outline>
</glyph>
<glyph name="Las-oldgeorgian" format="2">
  <advance width="774"/>
  <unicode hex="10AA"/>
  <note>
uni10AA
</note>
  <outline>
    <contour>
      <point x="517" y="-10" type="curve" smooth="yes"/>
      <point x="663" y="-10"/>
      <point x="737" y="98"/>
      <point x="737" y="273" type="curve" smooth="yes"/>
      <point x="737" y="445"/>
      <point x="678" y="553"/>
      <point x="564" y="553" type="curve" smooth="yes"/>
      <point x="506" y="553"/>
      <point x="466" y="521"/>
      <point x="440" y="464" type="curve"/>
      <point x="434" y="464" type="line"/>
      <point x="438" y="503"/>
      <point x="440" y="546"/>
      <point x="440" y="585" type="curve" smooth="yes"/>
      <point x="440" y="714" type="line"/>
      <point x="57" y="714" type="line"/>
      <point x="57" y="381" type="line"/>
      <point x="193" y="381" type="line"/>
      <point x="193" y="595" type="line"/>
      <point x="304" y="595" type="line"/>
      <point x="304" y="269" type="line" smooth="yes"/>
      <point x="304" y="97"/>
      <point x="369" y="-10"/>
    </contour>
    <contour>
      <point x="517" y="110" type="curve" smooth="yes"/>
      <point x="460" y="110"/>
      <point x="440" y="162"/>
      <point x="440" y="270" type="curve" smooth="yes"/>
      <point x="440" y="376"/>
      <point x="464" y="433"/>
      <point x="518" y="433" type="curve" smooth="yes"/>
      <point x="570" y="433"/>
      <point x="596" y="381"/>
      <point x="596" y="271" type="curve" smooth="yes"/>
      <point x="596" y="162"/>
      <point x="568" y="110"/>
    </contour>
  </outline>
</glyph>
<glyph name="Man-oldgeorgian" format="2">
  <advance width="616"/>
  <unicode hex="10AB"/>
  <note>
uni10AB
</note>
  <outline>
    <contour>
      <point x="256" y="-10" type="curve" smooth="yes"/>
      <point x="394" y="-10"/>
      <point x="470" y="86"/>
      <point x="470" y="239" type="curve" smooth="yes"/>
      <point x="470" y="361" type="line"/>
      <point x="584" y="361" type="line"/>
      <point x="584" y="473" type="line"/>
      <point x="470" y="473" type="line"/>
      <point x="470" y="714" type="line"/>
      <point x="83" y="714" type="line"/>
      <point x="83" y="595" type="line"/>
      <point x="333" y="595" type="line"/>
      <point x="333" y="473" type="line"/>
      <point x="266" y="473" type="line" smooth="yes"/>
      <point x="142" y="473"/>
      <point x="43" y="408"/>
      <point x="43" y="234" type="curve" smooth="yes"/>
      <point x="43" y="86"/>
      <point x="125" y="-10"/>
    </contour>
    <contour>
      <point x="256" y="105" type="curve" smooth="yes"/>
      <point x="210" y="105"/>
      <point x="185" y="154"/>
      <point x="185" y="237" type="curve" smooth="yes"/>
      <point x="185" y="333"/>
      <point x="224" y="360"/>
      <point x="266" y="360" type="curve" smooth="yes"/>
      <point x="332" y="360" type="line"/>
      <point x="332" y="240" type="line" smooth="yes"/>
      <point x="332" y="154"/>
      <point x="307" y="105"/>
    </contour>
  </outline>
</glyph>
<glyph name="Nar-oldgeorgian" format="2">
  <advance width="577"/>
  <unicode hex="10AC"/>
  <note>
uni10AC
</note>
  <outline>
    <contour>
      <point x="62" y="0" type="line"/>
      <point x="198" y="0" type="line"/>
      <point x="198" y="201" type="line" smooth="yes"/>
      <point x="198" y="326"/>
      <point x="231" y="373"/>
      <point x="293" y="373" type="curve" smooth="yes"/>
      <point x="355" y="373"/>
      <point x="381" y="328"/>
      <point x="381" y="227" type="curve" smooth="yes"/>
      <point x="381" y="0" type="line"/>
      <point x="518" y="0" type="line"/>
      <point x="518" y="237" type="line" smooth="yes"/>
      <point x="518" y="391"/>
      <point x="460" y="482"/>
      <point x="343" y="482" type="curve" smooth="yes"/>
      <point x="268" y="482"/>
      <point x="223" y="446"/>
      <point x="196" y="393" type="curve"/>
      <point x="193" y="393" type="line"/>
      <point x="196" y="427"/>
      <point x="198" y="469"/>
      <point x="198" y="498" type="curve" smooth="yes"/>
      <point x="198" y="596" type="line"/>
      <point x="493" y="596" type="line"/>
      <point x="493" y="714" type="line"/>
      <point x="62" y="714" type="line"/>
    </contour>
  </outline>
</glyph>
<glyph name="On-oldgeorgian" format="2">
  <advance width="707"/>
  <unicode hex="10AD"/>
  <note>
uni10AD
</note>
  <outline>
    <contour>
      <point x="298" y="-10" type="curve" smooth="yes"/>
      <point x="358" y="-10"/>
      <point x="405" y="7"/>
      <point x="444" y="39" type="curve"/>
      <point x="475" y="12"/>
      <point x="515" y="-10"/>
      <point x="562" y="-10" type="curve" smooth="yes"/>
      <point x="659" y="-10"/>
      <point x="702" y="55"/>
      <point x="702" y="170" type="curve"/>
      <point x="577" y="170" type="line"/>
      <point x="577" y="126"/>
      <point x="563" y="95"/>
      <point x="527" y="95" type="curve" smooth="yes"/>
      <point x="516" y="95"/>
      <point x="506" y="98"/>
      <point x="497" y="104" type="curve"/>
      <point x="533" y="166"/>
      <point x="551" y="254"/>
      <point x="551" y="358" type="curve" smooth="yes"/>
      <point x="551" y="583"/>
      <point x="470" y="724"/>
      <point x="298" y="724" type="curve" smooth="yes"/>
      <point x="132" y="724"/>
      <point x="43" y="598"/>
      <point x="43" y="359" type="curve" smooth="yes"/>
      <point x="43" y="134"/>
      <point x="126" y="-10"/>
    </contour>
    <contour>
      <point x="297" y="111" type="curve" smooth="yes"/>
      <point x="223" y="111"/>
      <point x="185" y="194"/>
      <point x="185" y="358" type="curve" smooth="yes"/>
      <point x="185" y="522"/>
      <point x="222" y="605"/>
      <point x="298" y="605" type="curve" smooth="yes"/>
      <point x="372" y="605"/>
      <point x="408" y="525"/>
      <point x="408" y="358" type="curve" smooth="yes"/>
      <point x="408" y="190"/>
      <point x="372" y="111"/>
    </contour>
  </outline>
</glyph>
<glyph name="Par-oldgeorgian" format="2">
  <advance width="647"/>
  <unicode hex="10AE"/>
  <note>
uni10AE
</note>
  <outline>
    <contour>
      <point x="364" y="-10" type="curve" smooth="yes"/>
      <point x="505" y="-10"/>
      <point x="588" y="69"/>
      <point x="588" y="236" type="curve" smooth="yes"/>
      <point x="588" y="714" type="line"/>
      <point x="452" y="714" type="line"/>
      <point x="452" y="241" type="line" smooth="yes"/>
      <point x="452" y="142"/>
      <point x="422" y="110"/>
      <point x="365" y="110" type="curve" smooth="yes"/>
      <point x="309" y="110"/>
      <point x="279" y="145"/>
      <point x="279" y="240" type="curve" smooth="yes"/>
      <point x="279" y="714" type="line"/>
      <point x="-2" y="714" type="line"/>
      <point x="-2" y="596" type="line"/>
      <point x="143" y="596" type="line"/>
      <point x="143" y="233" type="line" smooth="yes"/>
      <point x="143" y="69"/>
      <point x="222" y="-10"/>
    </contour>
  </outline>
</glyph>
<glyph name="Zhar-oldgeorgian" format="2">
  <advance width="603"/>
  <unicode hex="10AF"/>
  <note>
uni10AF
</note>
  <outline>
    <contour>
      <point x="402" y="0" type="line"/>
      <point x="539" y="0" type="line"/>
      <point x="539" y="714" type="line"/>
      <point x="402" y="714" type="line"/>
      <point x="402" y="503" type="line" smooth="yes"/>
      <point x="402" y="379"/>
      <point x="363" y="322"/>
      <point x="303" y="322" type="curve" smooth="yes"/>
      <point x="245" y="322"/>
      <point x="214" y="372"/>
      <point x="214" y="457" type="curve" smooth="yes"/>
      <point x="214" y="518"/>
      <point x="233" y="568"/>
      <point x="280" y="602" type="curve"/>
      <point x="280" y="714" type="line"/>
      <point x="3" y="714" type="line"/>
      <point x="3" y="595" type="line"/>
      <point x="135" y="595" type="line"/>
      <point x="135" y="591" type="line"/>
      <point x="95" y="552"/>
      <point x="73" y="498"/>
      <point x="73" y="430" type="curve" smooth="yes"/>
      <point x="73" y="308"/>
      <point x="145" y="211"/>
      <point x="258" y="211" type="curve" smooth="yes"/>
      <point x="330" y="211"/>
      <point x="374" y="246"/>
      <point x="404" y="311" type="curve"/>
      <point x="409" y="311" type="line"/>
      <point x="405" y="265"/>
      <point x="402" y="219"/>
      <point x="402" y="179" type="curve" smooth="yes"/>
    </contour>
  </outline>
</glyph>
<glyph name="Rae-oldgeorgian" format="2">
  <advance width="783"/>
  <unicode hex="10B0"/>
  <note>
uni10B0
</note>
  <outline>
    <contour>
      <point x="263" y="-10" type="curve" smooth="yes"/>
      <point x="404" y="-10"/>
      <point x="477" y="81"/>
      <point x="477" y="250" type="curve" smooth="yes"/>
      <point x="477" y="351" type="line" smooth="yes"/>
      <point x="477" y="417"/>
      <point x="508" y="447"/>
      <point x="544" y="447" type="curve" smooth="yes"/>
      <point x="585" y="447"/>
      <point x="607" y="411"/>
      <point x="607" y="360" type="curve" smooth="yes"/>
      <point x="607" y="330"/>
      <point x="600" y="296"/>
      <point x="583" y="267" type="curve"/>
      <point x="704" y="231" type="line"/>
      <point x="735" y="269"/>
      <point x="751" y="320"/>
      <point x="751" y="382" type="curve" smooth="yes"/>
      <point x="751" y="465"/>
      <point x="695" y="557"/>
      <point x="598" y="557" type="curve" smooth="yes"/>
      <point x="547" y="557"/>
      <point x="503" y="537"/>
      <point x="476" y="486" type="curve"/>
      <point x="472" y="486" type="line"/>
      <point x="476" y="520"/>
      <point x="477" y="562"/>
      <point x="477" y="592" type="curve" smooth="yes"/>
      <point x="477" y="714" type="line"/>
      <point x="340" y="714" type="line"/>
      <point x="340" y="260" type="line" smooth="yes"/>
      <point x="340" y="163"/>
      <point x="317" y="110"/>
      <point x="261" y="110" type="curve" smooth="yes"/>
      <point x="208" y="110"/>
      <point x="182" y="164"/>
      <point x="182" y="235" type="curve" smooth="yes"/>
      <point x="182" y="278"/>
      <point x="192" y="328"/>
      <point x="211" y="366" type="curve"/>
      <point x="91" y="407" type="line"/>
      <point x="56" y="355"/>
      <point x="38" y="293"/>
      <point x="38" y="232" type="curve" smooth="yes"/>
      <point x="38" y="101"/>
      <point x="118" y="-10"/>
    </contour>
  </outline>
</glyph>
<glyph name="San-oldgeorgian" format="2">
  <advance width="531"/>
  <unicode hex="10B1"/>
  <note>
uni10B1
</note>
  <outline>
    <contour>
      <point x="278" y="-10" type="curve" smooth="yes"/>
      <point x="418" y="-10"/>
      <point x="494" y="105"/>
      <point x="494" y="231" type="curve" smooth="yes"/>
      <point x="494" y="291"/>
      <point x="476" y="353"/>
      <point x="436" y="407" type="curve"/>
      <point x="323" y="366" type="line"/>
      <point x="342" y="328"/>
      <point x="352" y="278"/>
      <point x="352" y="235" type="curve" smooth="yes"/>
      <point x="352" y="164"/>
      <point x="326" y="110"/>
      <point x="273" y="110" type="curve" smooth="yes"/>
      <point x="217" y="110"/>
      <point x="194" y="163"/>
      <point x="194" y="260" type="curve" smooth="yes"/>
      <point x="194" y="714" type="line"/>
      <point x="57" y="714" type="line"/>
      <point x="57" y="250" type="line" smooth="yes"/>
      <point x="57" y="81"/>
      <point x="137" y="-10"/>
    </contour>
  </outline>
</glyph>
<glyph name="Tar-oldgeorgian" format="2">
  <advance width="502"/>
  <unicode hex="10B2"/>
  <note>
uni10B2
</note>
  <outline>
    <contour>
      <point x="62" y="0" type="line"/>
      <point x="435" y="0" type="line"/>
      <point x="435" y="118" type="line"/>
      <point x="198" y="118" type="line"/>
      <point x="198" y="253" type="line"/>
      <point x="239" y="253" type="line" smooth="yes"/>
      <point x="391" y="253"/>
      <point x="460" y="349"/>
      <point x="460" y="495" type="curve" smooth="yes"/>
      <point x="460" y="639"/>
      <point x="388" y="714"/>
      <point x="246" y="714" type="curve" smooth="yes"/>
      <point x="62" y="714" type="line"/>
    </contour>
    <contour>
      <point x="197" y="369" type="line"/>
      <point x="197" y="598" type="line"/>
      <point x="233" y="598" type="line" smooth="yes"/>
      <point x="293" y="598"/>
      <point x="323" y="566"/>
      <point x="323" y="494" type="curve" smooth="yes"/>
      <point x="323" y="404"/>
      <point x="287" y="369"/>
      <point x="226" y="369" type="curve" smooth="yes"/>
    </contour>
  </outline>
</glyph>
<glyph name="Un-oldgeorgian" format="2">
  <advance width="606"/>
  <unicode hex="10B3"/>
  <note>
uni10B3
</note>
  <outline>
    <contour>
      <point x="453" y="-178" type="curve" smooth="yes"/>
      <point x="542" y="-178"/>
      <point x="591" y="-122"/>
      <point x="591" y="-35" type="curve" smooth="yes"/>
      <point x="591" y="41"/>
      <point x="546" y="90"/>
      <point x="510" y="123" type="curve"/>
      <point x="539" y="183"/>
      <point x="553" y="264"/>
      <point x="553" y="358" type="curve" smooth="yes"/>
      <point x="553" y="591"/>
      <point x="469" y="724"/>
      <point x="299" y="724" type="curve" smooth="yes"/>
      <point x="133" y="724"/>
      <point x="43" y="597"/>
      <point x="43" y="359" type="curve" smooth="yes"/>
      <point x="43" y="132"/>
      <point x="126" y="-10"/>
      <point x="299" y="-10" type="curve" smooth="yes"/>
      <point x="357" y="-10"/>
      <point x="405" y="8"/>
      <point x="442" y="41" type="curve"/>
      <point x="458" y="24"/>
      <point x="471" y="4"/>
      <point x="471" y="-25" type="curve" smooth="yes"/>
      <point x="471" y="-58"/>
      <point x="453" y="-78"/>
      <point x="427" y="-78" type="curve" smooth="yes"/>
      <point x="414" y="-78"/>
      <point x="402" y="-76"/>
      <point x="391" y="-73" type="curve"/>
      <point x="391" y="-169" type="line"/>
      <point x="410" y="-175"/>
      <point x="433" y="-178"/>
    </contour>
    <contour>
      <point x="299" y="110" type="curve" smooth="yes"/>
      <point x="223" y="110"/>
      <point x="184" y="195"/>
      <point x="184" y="358" type="curve" smooth="yes"/>
      <point x="184" y="521"/>
      <point x="222" y="607"/>
      <point x="299" y="607" type="curve" smooth="yes"/>
      <point x="374" y="607"/>
      <point x="412" y="525"/>
      <point x="412" y="358" type="curve" smooth="yes"/>
      <point x="412" y="191"/>
      <point x="375" y="110"/>
    </contour>
  </outline>
</glyph>
<glyph name="Phar-oldgeorgian" format="2">
  <advance width="705"/>
  <unicode hex="10B4"/>
  <note>
uni10B4
</note>
  <outline>
    <contour>
      <point x="289" y="0" type="line"/>
      <point x="417" y="0" type="line"/>
      <point x="417" y="166" type="line"/>
      <point x="562" y="173"/>
      <point x="663" y="269"/>
      <point x="663" y="446" type="curve" smooth="yes"/>
      <point x="663" y="635"/>
      <point x="539" y="724"/>
      <point x="355" y="724" type="curve" smooth="yes"/>
      <point x="172" y="724"/>
      <point x="43" y="631"/>
      <point x="43" y="444" type="curve" smooth="yes"/>
      <point x="43" y="268"/>
      <point x="144" y="172"/>
      <point x="289" y="166" type="curve"/>
    </contour>
    <contour>
      <point x="289" y="278" type="line"/>
      <point x="225" y="284"/>
      <point x="179" y="333"/>
      <point x="179" y="445" type="curve" smooth="yes"/>
      <point x="179" y="556"/>
      <point x="227" y="606"/>
      <point x="289" y="612" type="curve"/>
    </contour>
    <contour>
      <point x="417" y="278" type="curve"/>
      <point x="417" y="612" type="line"/>
      <point x="479" y="606"/>
      <point x="527" y="556"/>
      <point x="527" y="446" type="curve" smooth="yes"/>
      <point x="527" y="335"/>
      <point x="480" y="285"/>
    </contour>
  </outline>
</glyph>
<glyph name="Khar-oldgeorgian" format="2">
  <advance width="512"/>
  <unicode hex="10B5"/>
  <note>
uni10B5
</note>
  <outline>
    <contour>
      <point x="183" y="0" type="line"/>
      <point x="320" y="0" type="line"/>
      <point x="320" y="360" type="line"/>
      <point x="470" y="360" type="line"/>
      <point x="470" y="473" type="line"/>
      <point x="320" y="473" type="line"/>
      <point x="320" y="714" type="line"/>
      <point x="183" y="714" type="line"/>
      <point x="183" y="473" type="line"/>
      <point x="33" y="473" type="line"/>
      <point x="33" y="360" type="line"/>
      <point x="183" y="360" type="line"/>
    </contour>
  </outline>
</glyph>
<glyph name="Ghan-oldgeorgian" format="2">
  <advance width="561"/>
  <unicode hex="10B6"/>
  <note>
uni10B6
</note>
  <outline>
    <contour>
      <point x="57" y="0" type="line"/>
      <point x="193" y="0" type="line"/>
      <point x="193" y="473" type="line" smooth="yes"/>
      <point x="193" y="572"/>
      <point x="223" y="604"/>
      <point x="280" y="604" type="curve" smooth="yes"/>
      <point x="336" y="604"/>
      <point x="366" y="569"/>
      <point x="366" y="474" type="curve" smooth="yes"/>
      <point x="366" y="0" type="line"/>
      <point x="502" y="0" type="line"/>
      <point x="502" y="481" type="line" smooth="yes"/>
      <point x="502" y="645"/>
      <point x="423" y="724"/>
      <point x="281" y="724" type="curve" smooth="yes"/>
      <point x="140" y="724"/>
      <point x="57" y="645"/>
      <point x="57" y="478" type="curve" smooth="yes"/>
    </contour>
  </outline>
</glyph>
<glyph name="Qar-oldgeorgian" format="2">
  <advance width="567"/>
  <unicode hex="10B7"/>
  <note>
uni10B7
</note>
  <outline>
    <contour>
      <point x="367" y="0" type="line"/>
      <point x="503" y="0" type="line"/>
      <point x="503" y="714" type="line"/>
      <point x="367" y="714" type="line"/>
      <point x="367" y="517" type="line" smooth="yes"/>
      <point x="367" y="380"/>
      <point x="327" y="321"/>
      <point x="267" y="321" type="curve" smooth="yes"/>
      <point x="209" y="321"/>
      <point x="178" y="372"/>
      <point x="178" y="471" type="curve" smooth="yes"/>
      <point x="178" y="567"/>
      <point x="195" y="643"/>
      <point x="224" y="714" type="curve"/>
      <point x="84" y="714" type="line"/>
      <point x="56" y="641"/>
      <point x="38" y="562"/>
      <point x="38" y="469" type="curve" smooth="yes"/>
      <point x="38" y="308"/>
      <point x="110" y="211"/>
      <point x="222" y="211" type="curve" smooth="yes"/>
      <point x="294" y="211"/>
      <point x="339" y="246"/>
      <point x="368" y="312" type="curve"/>
      <point x="373" y="312" type="line"/>
      <point x="369" y="265"/>
      <point x="367" y="220"/>
      <point x="367" y="179" type="curve" smooth="yes"/>
    </contour>
  </outline>
</glyph>
<glyph name="Shin-oldgeorgian" format="2">
  <advance width="578"/>
  <unicode hex="10B8"/>
  <note>
uni10B8
</note>
  <outline>
    <contour>
      <point x="290" y="-10" type="curve" smooth="yes"/>
      <point x="439" y="-10"/>
      <point x="514" y="78"/>
      <point x="514" y="246" type="curve" smooth="yes"/>
      <point x="514" y="714" type="line"/>
      <point x="377" y="714" type="line"/>
      <point x="377" y="608" type="line" smooth="yes"/>
      <point x="377" y="485"/>
      <point x="344" y="437"/>
      <point x="282" y="437" type="curve" smooth="yes"/>
      <point x="220" y="437"/>
      <point x="194" y="482"/>
      <point x="194" y="582" type="curve" smooth="yes"/>
      <point x="194" y="714" type="line"/>
      <point x="57" y="714" type="line"/>
      <point x="57" y="572" type="line" smooth="yes"/>
      <point x="57" y="411"/>
      <point x="114" y="328"/>
      <point x="231" y="328" type="curve" smooth="yes"/>
      <point x="304" y="328"/>
      <point x="348" y="363"/>
      <point x="378" y="416" type="curve"/>
      <point x="382" y="416" type="line"/>
      <point x="378" y="382"/>
      <point x="377" y="338"/>
      <point x="377" y="304" type="curve" smooth="yes"/>
      <point x="377" y="241" type="line" smooth="yes"/>
      <point x="377" y="159"/>
      <point x="352" y="108"/>
      <point x="290" y="108" type="curve" smooth="yes"/>
      <point x="235" y="108"/>
      <point x="206" y="144"/>
      <point x="206" y="194" type="curve" smooth="yes"/>
      <point x="206" y="209"/>
      <point x="209" y="227"/>
      <point x="215" y="243" type="curve"/>
      <point x="88" y="278" type="line"/>
      <point x="72" y="244"/>
      <point x="66" y="211"/>
      <point x="66" y="181" type="curve" smooth="yes"/>
      <point x="66" y="70"/>
      <point x="154" y="-10"/>
    </contour>
  </outline>
</glyph>
<glyph name="Chin-oldgeorgian" format="2">
  <advance width="546"/>
  <unicode hex="10B9"/>
  <note>
uni10B9
</note>
  <outline>
    <contour>
      <point x="64" y="0" type="line"/>
      <point x="201" y="0" type="line"/>
      <point x="201" y="353" type="line"/>
      <point x="355" y="353" type="line"/>
      <point x="355" y="0" type="line"/>
      <point x="492" y="0" type="line"/>
      <point x="492" y="463" type="line"/>
      <point x="201" y="463" type="line"/>
      <point x="201" y="714" type="line"/>
      <point x="64" y="714" type="line"/>
    </contour>
  </outline>
</glyph>
<glyph name="Can-oldgeorgian" format="2">
  <advance width="564"/>
  <unicode hex="10BA"/>
  <note>
uni10BA
</note>
  <outline>
    <contour>
      <point x="272" y="-9" type="curve" smooth="yes"/>
      <point x="320" y="-9"/>
      <point x="354" y="4"/>
      <point x="381" y="27" type="curve"/>
      <point x="381" y="0" type="line"/>
      <point x="514" y="0" type="line"/>
      <point x="514" y="304" type="line"/>
      <point x="381" y="304" type="line"/>
      <point x="381" y="135" type="line"/>
      <point x="363" y="120"/>
      <point x="337" y="108"/>
      <point x="301" y="108" type="curve" smooth="yes"/>
      <point x="226" y="109"/>
      <point x="184" y="194"/>
      <point x="184" y="357" type="curve" smooth="yes"/>
      <point x="184" y="516"/>
      <point x="236" y="607"/>
      <point x="330" y="607" type="curve" smooth="yes"/>
      <point x="378" y="607"/>
      <point x="422" y="593"/>
      <point x="459" y="570" type="curve"/>
      <point x="498" y="682" type="line"/>
      <point x="450" y="708"/>
      <point x="390" y="724"/>
      <point x="327" y="724" type="curve" smooth="yes"/>
      <point x="145" y="724"/>
      <point x="43" y="585"/>
      <point x="43" y="357" type="curve" smooth="yes"/>
      <point x="43" y="126"/>
      <point x="129" y="-9"/>
    </contour>
  </outline>
</glyph>
<glyph name="Jil-oldgeorgian" format="2">
  <advance width="744"/>
  <unicode hex="10BB"/>
  <outline>
    <contour>
      <point x="259" y="-10" type="curve" smooth="yes"/>
      <point x="391" y="-10"/>
      <point x="468" y="83"/>
      <point x="468" y="232" type="curve" smooth="yes"/>
      <point x="468" y="360" type="line"/>
      <point x="570" y="360" type="line"/>
      <point x="570" y="0" type="line"/>
      <point x="690" y="0" type="line"/>
      <point x="690" y="473" type="line"/>
      <point x="468" y="473" type="line"/>
      <point x="468" y="714" type="line"/>
      <point x="332" y="714" type="line"/>
      <point x="332" y="473" type="line"/>
      <point x="268" y="473" type="line" smooth="yes"/>
      <point x="132" y="473"/>
      <point x="43" y="388"/>
      <point x="43" y="234" type="curve" smooth="yes"/>
      <point x="43" y="86"/>
      <point x="129" y="-10"/>
    </contour>
    <contour>
      <point x="258" y="109" type="curve" smooth="yes"/>
      <point x="210" y="109"/>
      <point x="184" y="159"/>
      <point x="184" y="236" type="curve" smooth="yes"/>
      <point x="184" y="314"/>
      <point x="213" y="360"/>
      <point x="271" y="360" type="curve" smooth="yes"/>
      <point x="332" y="360" type="line"/>
      <point x="332" y="237" type="line" smooth="yes"/>
      <point x="332" y="155"/>
      <point x="308" y="109"/>
    </contour>
  </outline>
</glyph>
<glyph name="Cil-oldgeorgian" format="2">
  <advance width="490"/>
  <unicode hex="10BC"/>
  <note>
uni10BC
</note>
  <outline>
    <contour>
      <point x="64" y="0" type="line"/>
      <point x="200" y="0" type="line"/>
      <point x="200" y="124" type="line"/>
      <point x="292" y="124" type="line"/>
      <point x="292" y="55" type="line"/>
      <point x="412" y="55" type="line"/>
      <point x="412" y="236" type="line"/>
      <point x="200" y="236" type="line"/>
      <point x="200" y="289" type="line"/>
      <point x="241" y="289" type="line" smooth="yes"/>
      <point x="393" y="289"/>
      <point x="462" y="385"/>
      <point x="462" y="507" type="curve" smooth="yes"/>
      <point x="462" y="639"/>
      <point x="390" y="714"/>
      <point x="248" y="714" type="curve" smooth="yes"/>
      <point x="64" y="714" type="line"/>
    </contour>
    <contour>
      <point x="199" y="405" type="line"/>
      <point x="199" y="598" type="line"/>
      <point x="235" y="598" type="line" smooth="yes"/>
      <point x="295" y="598"/>
      <point x="325" y="571"/>
      <point x="325" y="506" type="curve" smooth="yes"/>
      <point x="325" y="439"/>
      <point x="289" y="405"/>
      <point x="228" y="405" type="curve" smooth="yes"/>
    </contour>
  </outline>
</glyph>
<glyph name="Char-oldgeorgian" format="2">
  <advance width="473"/>
  <unicode hex="10BD"/>
  <note>
uni10BD
</note>
  <outline>
    <contour>
      <point x="235" y="-10" type="curve" smooth="yes"/>
      <point x="365" y="-10"/>
      <point x="434" y="61"/>
      <point x="434" y="183" type="curve" smooth="yes"/>
      <point x="434" y="305"/>
      <point x="365" y="358"/>
      <point x="293" y="408" type="curve" smooth="yes"/>
      <point x="226" y="455"/>
      <point x="184" y="478"/>
      <point x="184" y="538" type="curve" smooth="yes"/>
      <point x="184" y="584"/>
      <point x="200" y="612"/>
      <point x="236" y="612" type="curve" smooth="yes"/>
      <point x="271" y="612"/>
      <point x="287" y="585"/>
      <point x="287" y="537" type="curve" smooth="yes"/>
      <point x="287" y="530"/>
      <point x="286" y="521"/>
      <point x="285" y="516" type="curve"/>
      <point x="418" y="516" type="line"/>
      <point x="419" y="522"/>
      <point x="419" y="531"/>
      <point x="419" y="539" type="curve" smooth="yes"/>
      <point x="419" y="656"/>
      <point x="350" y="724"/>
      <point x="236" y="724" type="curve" smooth="yes"/>
      <point x="120" y="724"/>
      <point x="49" y="651"/>
      <point x="49" y="532" type="curve" smooth="yes"/>
      <point x="49" y="414"/>
      <point x="127" y="366"/>
      <point x="199" y="312" type="curve" smooth="yes"/>
      <point x="249" y="275"/>
      <point x="298" y="245"/>
      <point x="298" y="178" type="curve" smooth="yes"/>
      <point x="298" y="128"/>
      <point x="272" y="102"/>
      <point x="236" y="102" type="curve" smooth="yes"/>
      <point x="196" y="102"/>
      <point x="171" y="131"/>
      <point x="171" y="179" type="curve" smooth="yes"/>
      <point x="171" y="204"/>
      <point x="173" y="220"/>
      <point x="176" y="234" type="curve"/>
      <point x="44" y="234" type="line"/>
      <point x="41" y="218"/>
      <point x="39" y="198"/>
      <point x="39" y="176" type="curve" smooth="yes"/>
      <point x="39" y="61"/>
      <point x="109" y="-10"/>
    </contour>
  </outline>
</glyph>
<glyph name="Xan-oldgeorgian" format="2">
  <advance width="554"/>
  <unicode hex="10BE"/>
  <note>
uni10BE
</note>
  <outline>
    <contour>
      <point x="62" y="714" type="line"/>
      <point x="62" y="0" type="line"/>
      <point x="473" y="0" type="line"/>
      <point x="473" y="119" type="line"/>
      <point x="199" y="119" type="line"/>
      <point x="199" y="271" type="line"/>
      <point x="490" y="271" type="line"/>
      <point x="490" y="714" type="line"/>
      <point x="353" y="714" type="line"/>
      <point x="353" y="381" type="line"/>
      <point x="199" y="381" type="line"/>
      <point x="199" y="714" type="line"/>
    </contour>
  </outline>
</glyph>
<glyph name="Jhan-oldgeorgian" format="2">
  <advance width="545"/>
  <unicode hex="10BF"/>
  <note>
uni10BF
</note>
  <outline>
    <contour>
      <point x="18" y="0" type="line"/>
      <point x="170" y="0" type="line"/>
      <point x="281" y="256" type="line"/>
      <point x="392" y="0" type="line"/>
      <point x="540" y="0" type="line"/>
      <point x="367" y="363" type="line"/>
      <point x="488" y="624" type="line"/>
      <point x="488" y="714" type="line"/>
      <point x="18" y="714" type="line"/>
      <point x="18" y="596" type="line"/>
      <point x="91" y="596" type="line"/>
      <point x="196" y="364" type="line"/>
    </contour>
    <contour>
      <point x="282" y="455" type="line"/>
      <point x="220" y="600" type="line"/>
      <point x="345" y="600" type="line"/>
    </contour>
  </outline>
</glyph>
<glyph name="Hae-oldgeorgian" format="2">
  <advance width="779"/>
  <unicode hex="10C0"/>
  <note>
uni10C0
</note>
  <outline>
    <contour>
      <point x="522" y="-10" type="curve" smooth="yes"/>
      <point x="663" y="-10"/>
      <point x="742" y="105"/>
      <point x="742" y="231" type="curve" smooth="yes"/>
      <point x="742" y="291"/>
      <point x="724" y="353"/>
      <point x="684" y="407" type="curve"/>
      <point x="571" y="366" type="line"/>
      <point x="590" y="328"/>
      <point x="600" y="278"/>
      <point x="600" y="235" type="curve" smooth="yes"/>
      <point x="600" y="164"/>
      <point x="574" y="110"/>
      <point x="521" y="110" type="curve" smooth="yes"/>
      <point x="465" y="110"/>
      <point x="440" y="163"/>
      <point x="440" y="260" type="curve" smooth="yes"/>
      <point x="440" y="715" type="line"/>
      <point x="57" y="715" type="line"/>
      <point x="57" y="382" type="line"/>
      <point x="193" y="382" type="line"/>
      <point x="193" y="596" type="line"/>
      <point x="304" y="596" type="line"/>
      <point x="304" y="250" type="line" smooth="yes"/>
      <point x="304" y="81"/>
      <point x="384" y="-10"/>
    </contour>
  </outline>
</glyph>
<glyph name="He-oldgeorgian" format="2">
  <advance width="595"/>
  <unicode hex="10C1"/>
  <note>
uni10C1
</note>
  <outline>
    <contour>
      <point x="64" y="0" type="line"/>
      <point x="200" y="0" type="line"/>
      <point x="200" y="281" type="line" smooth="yes"/>
      <point x="200" y="393"/>
      <point x="230" y="446"/>
      <point x="288" y="446" type="curve" smooth="yes"/>
      <point x="345" y="446"/>
      <point x="369" y="403"/>
      <point x="369" y="303" type="curve" smooth="yes"/>
      <point x="369" y="237" type="line"/>
      <point x="576" y="237" type="line"/>
      <point x="576" y="349" type="line"/>
      <point x="503" y="349" type="line"/>
      <point x="493" y="479"/>
      <point x="440" y="555"/>
      <point x="338" y="555" type="curve" smooth="yes"/>
      <point x="270" y="555"/>
      <point x="225" y="523"/>
      <point x="198" y="468" type="curve"/>
      <point x="194" y="468" type="line"/>
      <point x="198" y="503"/>
      <point x="200" y="543"/>
      <point x="200" y="577" type="curve" smooth="yes"/>
      <point x="200" y="714" type="line"/>
      <point x="64" y="714" type="line"/>
    </contour>
  </outline>
</glyph>
<glyph name="Hie-oldgeorgian" format="2">
  <advance width="494"/>
  <unicode hex="10C2"/>
  <note>
uni10C2
</note>
  <outline>
    <contour>
      <point x="197" y="-10" type="curve" smooth="yes"/>
      <point x="354" y="-10"/>
      <point x="451" y="109"/>
      <point x="451" y="315" type="curve" smooth="yes"/>
      <point x="451" y="512"/>
      <point x="359" y="629"/>
      <point x="213" y="629" type="curve" smooth="yes"/>
      <point x="192" y="629" type="line"/>
      <point x="192" y="714" type="line"/>
      <point x="63" y="714" type="line"/>
      <point x="63" y="517" type="line"/>
      <point x="159" y="517" type="line" smooth="yes"/>
      <point x="267" y="517"/>
      <point x="310" y="440"/>
      <point x="310" y="313" type="curve" smooth="yes"/>
      <point x="310" y="183"/>
      <point x="261" y="108"/>
      <point x="178" y="108" type="curve" smooth="yes"/>
      <point x="128" y="108"/>
      <point x="85" y="126"/>
      <point x="50" y="148" type="curve"/>
      <point x="50" y="25" type="line"/>
      <point x="96" y="2"/>
      <point x="135" y="-10"/>
    </contour>
  </outline>
</glyph>
<glyph name="We-oldgeorgian" format="2">
  <advance width="545"/>
  <unicode hex="10C3"/>
  <note>
uni10C3
</note>
  <outline>
    <contour>
      <point x="360" y="0" type="line"/>
      <point x="496" y="0" type="line"/>
      <point x="496" y="714" type="line"/>
      <point x="360" y="714" type="line"/>
      <point x="360" y="493" type="line" smooth="yes"/>
      <point x="360" y="370"/>
      <point x="324" y="297"/>
      <point x="264" y="297" type="curve" smooth="yes"/>
      <point x="209" y="297"/>
      <point x="178" y="341"/>
      <point x="178" y="413" type="curve" smooth="yes"/>
      <point x="178" y="456"/>
      <point x="189" y="506"/>
      <point x="208" y="545" type="curve"/>
      <point x="90" y="585" type="line"/>
      <point x="55" y="534"/>
      <point x="38" y="470"/>
      <point x="38" y="408" type="curve" smooth="yes"/>
      <point x="38" y="277"/>
      <point x="108" y="187"/>
      <point x="216" y="187" type="curve" smooth="yes"/>
      <point x="288" y="187"/>
      <point x="332" y="222"/>
      <point x="362" y="288" type="curve"/>
      <point x="367" y="288" type="line"/>
      <point x="363" y="242"/>
      <point x="360" y="196"/>
      <point x="360" y="156" type="curve" smooth="yes"/>
    </contour>
  </outline>
</glyph>
<glyph name="Har-oldgeorgian" format="2">
  <advance width="563"/>
  <unicode hex="10C4"/>
  <note>
uni10C4
</note>
  <outline>
    <contour>
      <point x="213" y="0" type="line"/>
      <point x="348" y="0" type="line"/>
      <point x="348" y="237" type="line"/>
      <point x="447" y="259"/>
      <point x="504" y="337"/>
      <point x="504" y="478" type="curve" smooth="yes"/>
      <point x="504" y="714" type="line"/>
      <point x="368" y="714" type="line"/>
      <point x="368" y="482" type="line" smooth="yes"/>
      <point x="368" y="381"/>
      <point x="338" y="344"/>
      <point x="281" y="344" type="curve" smooth="yes"/>
      <point x="224" y="344"/>
      <point x="194" y="382"/>
      <point x="194" y="482" type="curve" smooth="yes"/>
      <point x="194" y="714" type="line"/>
      <point x="58" y="714" type="line"/>
      <point x="58" y="476" type="line" smooth="yes"/>
      <point x="58" y="333"/>
      <point x="114" y="258"/>
      <point x="213" y="237" type="curve"/>
    </contour>
  </outline>
</glyph>
<glyph name="Hoe-oldgeorgian" format="2">
  <advance width="668"/>
  <unicode hex="10C5"/>
  <note>
uni10C5
</note>
  <outline>
    <contour>
      <point x="216" y="-10" type="curve" smooth="yes"/>
      <point x="338" y="-10"/>
      <point x="398" y="58"/>
      <point x="398" y="186" type="curve" smooth="yes"/>
      <point x="398" y="220" type="line"/>
      <point x="469" y="220" type="line"/>
      <point x="469" y="105" type="line"/>
      <point x="589" y="105" type="line"/>
      <point x="589" y="320" type="line"/>
      <point x="398" y="320" type="line"/>
      <point x="398" y="381" type="line"/>
      <point x="434" y="381" type="line" smooth="yes"/>
      <point x="569" y="381"/>
      <point x="635" y="441"/>
      <point x="635" y="554" type="curve" smooth="yes"/>
      <point x="635" y="662"/>
      <point x="570" y="724"/>
      <point x="445" y="724" type="curve" smooth="yes"/>
      <point x="320" y="724"/>
      <point x="262" y="661"/>
      <point x="262" y="529" type="curve" smooth="yes"/>
      <point x="262" y="320" type="line"/>
      <point x="222" y="320" type="line" smooth="yes"/>
      <point x="102" y="320"/>
      <point x="31" y="259"/>
      <point x="31" y="154" type="curve" smooth="yes"/>
      <point x="31" y="47"/>
      <point x="99" y="-10"/>
    </contour>
    <contour>
      <point x="215" y="89" type="curve" smooth="yes"/>
      <point x="184" y="89"/>
      <point x="167" y="112"/>
      <point x="167" y="153" type="curve" smooth="yes"/>
      <point x="167" y="193"/>
      <point x="189" y="220"/>
      <point x="230" y="220" type="curve" smooth="yes"/>
      <point x="262" y="220" type="line"/>
      <point x="262" y="180" type="line" smooth="yes"/>
      <point x="262" y="119"/>
      <point x="248" y="89"/>
    </contour>
    <contour>
      <point x="398" y="482" type="line"/>
      <point x="398" y="533" type="line" smooth="yes"/>
      <point x="398" y="592"/>
      <point x="412" y="624"/>
      <point x="449" y="624" type="curve" smooth="yes"/>
      <point x="485" y="624"/>
      <point x="500" y="595"/>
      <point x="500" y="552" type="curve" smooth="yes"/>
      <point x="500" y="508"/>
      <point x="481" y="482"/>
      <point x="435" y="482" type="curve" smooth="yes"/>
    </contour>
  </outline>
</glyph>
<glyph name="Yn-oldgeorgian" format="2">
  <advance width="463"/>
  <unicode hex="10C7"/>
  <anchor x="237" y="0" name="bottom"/>
  <anchor x="237" y="714" name="top"/>
  <outline>
    <contour>
      <point x="235" y="-10" type="curve" smooth="yes"/>
      <point x="361" y="-10"/>
      <point x="429" y="62"/>
      <point x="429" y="181" type="curve" smooth="yes"/>
      <point x="429" y="200"/>
      <point x="426" y="218"/>
      <point x="424" y="234" type="curve"/>
      <point x="295" y="234" type="line"/>
      <point x="297" y="220"/>
      <point x="298" y="204"/>
      <point x="298" y="188" type="curve" smooth="yes"/>
      <point x="298" y="120"/>
      <point x="274" y="94"/>
      <point x="234" y="94" type="curve" smooth="yes"/>
      <point x="193" y="94"/>
      <point x="172" y="118"/>
      <point x="172" y="188" type="curve" smooth="yes"/>
      <point x="172" y="248"/>
      <point x="195" y="277"/>
      <point x="268" y="323" type="curve" smooth="yes"/>
      <point x="373" y="389"/>
      <point x="417" y="439"/>
      <point x="417" y="531" type="curve" smooth="yes"/>
      <point x="417" y="650"/>
      <point x="340" y="724"/>
      <point x="233" y="724" type="curve" smooth="yes"/>
      <point x="120" y="724"/>
      <point x="52" y="655"/>
      <point x="52" y="540" type="curve"/>
      <point x="52" y="533"/>
      <point x="53" y="525"/>
      <point x="54" y="518" type="curve"/>
      <point x="183" y="518" type="line"/>
      <point x="182" y="524"/>
      <point x="182" y="532"/>
      <point x="182" y="539" type="curve"/>
      <point x="182" y="598"/>
      <point x="205" y="619"/>
      <point x="231" y="619" type="curve" smooth="yes"/>
      <point x="262" y="619"/>
      <point x="287" y="596"/>
      <point x="287" y="534" type="curve" smooth="yes"/>
      <point x="287" y="486"/>
      <point x="267" y="462"/>
      <point x="184" y="410" type="curve" smooth="yes"/>
      <point x="83" y="347"/>
      <point x="41" y="290"/>
      <point x="41" y="193" type="curve" smooth="yes"/>
      <point x="41" y="67"/>
      <point x="101" y="-10"/>
    </contour>
  </outline>
</glyph>
<glyph name="Aen-oldgeorgian" format="2">
  <advance width="428"/>
  <unicode hex="10CD"/>
  <outline>
    <contour>
      <point x="23" y="0" type="line"/>
      <point x="407" y="0" type="line"/>
      <point x="407" y="119" type="line"/>
      <point x="170" y="119" type="line"/>
      <point x="401" y="616" type="line"/>
      <point x="401" y="714" type="line"/>
      <point x="27" y="714" type="line"/>
      <point x="27" y="596" type="line"/>
      <point x="254" y="596" type="line"/>
      <point x="23" y="98" type="line"/>
    </contour>
  </outline>
</glyph>
<glyph name="an-georgian" format="2">
  <advance width="468"/>
  <unicode hex="10D0"/>
  <note>
uni10D0
</note>
  <anchor x="234" y="547" name="top"/>
  <outline>
    <contour>
      <point x="232" y="-10" type="curve" smooth="yes"/>
      <point x="339" y="-10"/>
      <point x="426" y="62"/>
      <point x="426" y="185" type="curve" smooth="yes"/>
      <point x="426" y="275"/>
      <point x="389" y="334"/>
      <point x="354" y="389" type="curve" smooth="yes"/>
      <point x="326" y="434"/>
      <point x="301" y="480"/>
      <point x="301" y="547" type="curve"/>
      <point x="171" y="547" type="line"/>
      <point x="171" y="446"/>
      <point x="209" y="386"/>
      <point x="243" y="333" type="curve" smooth="yes"/>
      <point x="270" y="291"/>
      <point x="294" y="250"/>
      <point x="294" y="188" type="curve" smooth="yes"/>
      <point x="294" y="131"/>
      <point x="270" y="100"/>
      <point x="229" y="100" type="curve" smooth="yes"/>
      <point x="186" y="100"/>
      <point x="165" y="137"/>
      <point x="165" y="194" type="curve" smooth="yes"/>
      <point x="165" y="228"/>
      <point x="168" y="253"/>
      <point x="174" y="281" type="curve"/>
      <point x="55" y="281" type="line"/>
      <point x="43" y="244"/>
      <point x="37" y="218"/>
      <point x="37" y="177" type="curve" smooth="yes"/>
      <point x="37" y="62"/>
      <point x="119" y="-10"/>
    </contour>
  </outline>
</glyph>
<glyph name="ban-georgian" format="2">
  <advance width="500"/>
  <unicode hex="10D1"/>
  <note>
uni10D1
</note>
  <outline>
    <contour>
      <point x="320" y="545" type="curve"/>
      <point x="331" y="562"/>
      <point x="337" y="581"/>
      <point x="337" y="605" type="curve" smooth="yes"/>
      <point x="337" y="639"/>
      <point x="320" y="665"/>
      <point x="302" y="686" type="curve" smooth="yes"/>
      <point x="284" y="707"/>
      <point x="270" y="726"/>
      <point x="270" y="760" type="curve"/>
      <point x="141" y="760" type="line"/>
      <point x="141" y="701"/>
      <point x="162" y="674"/>
      <point x="180" y="651" type="curve" smooth="yes"/>
      <point x="194" y="633"/>
      <point x="206" y="613"/>
      <point x="206" y="589" type="curve" smooth="yes"/>
      <point x="206" y="575"/>
      <point x="203" y="562"/>
      <point x="199" y="551" type="curve"/>
      <point x="89" y="526"/>
      <point x="42" y="420"/>
      <point x="42" y="274" type="curve" smooth="yes"/>
      <point x="42" y="120"/>
      <point x="107" y="-10"/>
      <point x="249" y="-10" type="curve" smooth="yes"/>
      <point x="401" y="-10"/>
      <point x="458" y="123"/>
      <point x="458" y="274" type="curve" smooth="yes"/>
      <point x="458" y="421"/>
      <point x="406" y="514"/>
    </contour>
    <contour>
      <point x="250" y="100" type="curve" smooth="yes"/>
      <point x="197" y="100"/>
      <point x="174" y="159"/>
      <point x="174" y="273" type="curve" smooth="yes"/>
      <point x="174" y="391"/>
      <point x="197" y="447"/>
      <point x="250" y="447" type="curve" smooth="yes"/>
      <point x="304" y="447"/>
      <point x="326" y="390"/>
      <point x="326" y="274" type="curve" smooth="yes"/>
      <point x="326" y="158"/>
      <point x="304" y="100"/>
    </contour>
  </outline>
</glyph>
<glyph name="gan-georgian" format="2">
  <advance width="490"/>
  <unicode hex="10D2"/>
  <note>
uni10D2
</note>
  <outline>
    <contour>
      <point x="244" y="-250" type="curve" smooth="yes"/>
      <point x="396" y="-250"/>
      <point x="453" y="-118"/>
      <point x="453" y="24" type="curve" smooth="yes"/>
      <point x="453" y="156"/>
      <point x="411" y="237"/>
      <point x="339" y="266" type="curve"/>
      <point x="339" y="270" type="line"/>
      <point x="398" y="298"/>
      <point x="414" y="351"/>
      <point x="414" y="398" type="curve" smooth="yes"/>
      <point x="414" y="488"/>
      <point x="358" y="557"/>
      <point x="245" y="557" type="curve" smooth="yes"/>
      <point x="141" y="557"/>
      <point x="76" y="495"/>
      <point x="76" y="409" type="curve" smooth="yes"/>
      <point x="76" y="390"/>
      <point x="79" y="373"/>
      <point x="84" y="355" type="curve"/>
      <point x="203" y="355" type="line"/>
      <point x="200" y="369"/>
      <point x="198" y="382"/>
      <point x="198" y="397" type="curve" smooth="yes"/>
      <point x="198" y="433"/>
      <point x="214" y="455"/>
      <point x="244" y="455" type="curve" smooth="yes"/>
      <point x="275" y="455"/>
      <point x="290" y="428"/>
      <point x="290" y="393" type="curve" smooth="yes"/>
      <point x="290" y="337"/>
      <point x="274" y="307"/>
      <point x="210" y="292" type="curve" smooth="yes"/>
      <point x="100" y="266"/>
      <point x="37" y="174"/>
      <point x="37" y="24" type="curve" smooth="yes"/>
      <point x="37" y="-120"/>
      <point x="102" y="-250"/>
    </contour>
    <contour>
      <point x="245" y="-140" type="curve" smooth="yes"/>
      <point x="192" y="-140"/>
      <point x="169" y="-81"/>
      <point x="169" y="23" type="curve" smooth="yes"/>
      <point x="169" y="131"/>
      <point x="192" y="187"/>
      <point x="245" y="187" type="curve" smooth="yes"/>
      <point x="299" y="187"/>
      <point x="321" y="130"/>
      <point x="321" y="24" type="curve" smooth="yes"/>
      <point x="321" y="-82"/>
      <point x="299" y="-140"/>
    </contour>
  </outline>
</glyph>
<glyph name="don-georgian" format="2">
  <advance width="717"/>
  <unicode hex="10D3"/>
  <note>
uni10D3
</note>
  <outline>
    <contour>
      <point x="415" y="-250" type="curve"/>
      <point x="516" y="-209" type="line"/>
      <point x="484" y="-121"/>
      <point x="423" y="-72"/>
      <point x="342" y="-29" type="curve" smooth="yes"/>
      <point x="255" y="17"/>
      <point x="174" y="94"/>
      <point x="174" y="277" type="curve" smooth="yes"/>
      <point x="174" y="394"/>
      <point x="191" y="447"/>
      <point x="231" y="447" type="curve" smooth="yes"/>
      <point x="271" y="447"/>
      <point x="283" y="410"/>
      <point x="283" y="320" type="curve" smooth="yes"/>
      <point x="283" y="274" type="line" smooth="yes"/>
      <point x="283" y="139"/>
      <point x="333" y="6"/>
      <point x="480" y="6" type="curve" smooth="yes"/>
      <point x="620" y="6"/>
      <point x="675" y="136"/>
      <point x="675" y="281" type="curve" smooth="yes"/>
      <point x="675" y="441"/>
      <point x="619" y="557"/>
      <point x="484" y="557" type="curve" smooth="yes"/>
      <point x="427" y="557"/>
      <point x="370" y="524"/>
      <point x="350" y="459" type="curve"/>
      <point x="347" y="459" type="line"/>
      <point x="328" y="524"/>
      <point x="280" y="557"/>
      <point x="217" y="557" type="curve" smooth="yes"/>
      <point x="108" y="557"/>
      <point x="42" y="449"/>
      <point x="42" y="275" type="curve" smooth="yes"/>
      <point x="42" y="133"/>
      <point x="101" y="9"/>
      <point x="210" y="-50" type="curve"/>
      <point x="210" y="-54" type="line"/>
      <point x="172" y="-57"/>
      <point x="140" y="-67"/>
      <point x="117" y="-80" type="curve"/>
      <point x="155" y="-164" type="line"/>
      <point x="187" y="-145"/>
      <point x="227" y="-134"/>
      <point x="264" y="-134" type="curve" smooth="yes"/>
      <point x="322" y="-134"/>
      <point x="381" y="-169"/>
    </contour>
    <contour>
      <point x="478" y="116" type="curve" smooth="yes"/>
      <point x="431" y="116"/>
      <point x="415" y="174"/>
      <point x="415" y="280" type="curve" smooth="yes"/>
      <point x="415" y="390"/>
      <point x="431" y="447"/>
      <point x="478" y="447" type="curve" smooth="yes"/>
      <point x="526" y="447"/>
      <point x="543" y="391"/>
      <point x="543" y="279" type="curve" smooth="yes"/>
      <point x="543" y="175"/>
      <point x="525" y="116"/>
    </contour>
  </outline>
</glyph>
<glyph name="en-georgian" format="2">
  <advance width="485"/>
  <unicode hex="10D4"/>
  <note>
uni10D4
</note>
  <anchor x="243" y="547" name="top"/>
  <outline>
    <contour>
      <point x="235" y="-250" type="curve" smooth="yes"/>
      <point x="360" y="-250"/>
      <point x="430" y="-162"/>
      <point x="430" y="-7" type="curve" smooth="yes"/>
      <point x="430" y="359" type="line" smooth="yes"/>
      <point x="430" y="488"/>
      <point x="356" y="557"/>
      <point x="242" y="557" type="curve" smooth="yes"/>
      <point x="133" y="557"/>
      <point x="52" y="495"/>
      <point x="52" y="370" type="curve" smooth="yes"/>
      <point x="52" y="329"/>
      <point x="58" y="303"/>
      <point x="70" y="266" type="curve"/>
      <point x="191" y="266" type="line"/>
      <point x="185" y="298"/>
      <point x="182" y="328"/>
      <point x="182" y="359" type="curve" smooth="yes"/>
      <point x="182" y="411"/>
      <point x="200" y="447"/>
      <point x="241" y="447" type="curve" smooth="yes"/>
      <point x="280" y="447"/>
      <point x="300" y="416"/>
      <point x="300" y="359" type="curve" smooth="yes"/>
      <point x="300" y="-5" type="line" smooth="yes"/>
      <point x="300" y="-96"/>
      <point x="279" y="-140"/>
      <point x="233" y="-140" type="curve" smooth="yes"/>
      <point x="183" y="-140"/>
      <point x="166" y="-79"/>
      <point x="166" y="-16" type="curve" smooth="yes"/>
      <point x="166" y="31"/>
      <point x="174" y="66"/>
      <point x="180" y="89" type="curve"/>
      <point x="58" y="89" type="line"/>
      <point x="46" y="58"/>
      <point x="37" y="19"/>
      <point x="37" y="-26" type="curve" smooth="yes"/>
      <point x="37" y="-141"/>
      <point x="104" y="-250"/>
    </contour>
  </outline>
</glyph>
<glyph name="vin-georgian" format="2">
  <advance width="480"/>
  <unicode hex="10D5"/>
  <note>
uni10D5
</note>
  <outline>
    <contour>
      <point x="240" y="-250" type="curve" smooth="yes"/>
      <point x="368" y="-250"/>
      <point x="443" y="-155"/>
      <point x="443" y="-17" type="curve" smooth="yes"/>
      <point x="443" y="99"/>
      <point x="392" y="166"/>
      <point x="319" y="185" type="curve"/>
      <point x="319" y="189" type="line"/>
      <point x="392" y="217"/>
      <point x="432" y="281"/>
      <point x="432" y="370" type="curve" smooth="yes"/>
      <point x="432" y="487"/>
      <point x="352" y="557"/>
      <point x="243" y="557" type="curve" smooth="yes"/>
      <point x="135" y="557"/>
      <point x="54" y="493"/>
      <point x="54" y="380" type="curve" smooth="yes"/>
      <point x="54" y="341"/>
      <point x="59" y="324"/>
      <point x="71" y="294" type="curve"/>
      <point x="193" y="294" type="line"/>
      <point x="187" y="320"/>
      <point x="184" y="339"/>
      <point x="184" y="369" type="curve" smooth="yes"/>
      <point x="184" y="411"/>
      <point x="202" y="447"/>
      <point x="242" y="447" type="curve" smooth="yes"/>
      <point x="282" y="447"/>
      <point x="302" y="416"/>
      <point x="302" y="350" type="curve" smooth="yes"/>
      <point x="302" y="283"/>
      <point x="278" y="235"/>
      <point x="229" y="235" type="curve" smooth="yes"/>
      <point x="202" y="235" type="line"/>
      <point x="202" y="126" type="line"/>
      <point x="227" y="126" type="line" smooth="yes"/>
      <point x="279" y="126"/>
      <point x="311" y="80"/>
      <point x="311" y="-10" type="curve" smooth="yes"/>
      <point x="311" y="-98"/>
      <point x="287" y="-140"/>
      <point x="238" y="-140" type="curve" smooth="yes"/>
      <point x="186" y="-140"/>
      <point x="167" y="-81"/>
      <point x="167" y="-26" type="curve" smooth="yes"/>
      <point x="167" y="10"/>
      <point x="174" y="41"/>
      <point x="179" y="62" type="curve"/>
      <point x="58" y="62" type="line"/>
      <point x="45" y="35"/>
      <point x="37" y="0"/>
      <point x="37" y="-36" type="curve" smooth="yes"/>
      <point x="37" y="-149"/>
      <point x="110" y="-250"/>
    </contour>
  </outline>
</glyph>
<glyph name="zen-georgian" format="2">
  <advance width="515"/>
  <unicode hex="10D6"/>
  <note>
uni10D6
</note>
  <outline>
    <contour>
      <point x="269" y="-10" type="curve" smooth="yes"/>
      <point x="421" y="-10"/>
      <point x="473" y="123"/>
      <point x="473" y="259" type="curve" smooth="yes"/>
      <point x="473" y="383"/>
      <point x="432" y="473"/>
      <point x="346" y="501" type="curve" smooth="yes"/>
      <point x="341" y="503"/>
      <point x="336" y="504"/>
      <point x="330" y="505" type="curve"/>
      <point x="330" y="509" type="line"/>
      <point x="348" y="532"/>
      <point x="358" y="564"/>
      <point x="358" y="603" type="curve" smooth="yes"/>
      <point x="358" y="696"/>
      <point x="295" y="770"/>
      <point x="187" y="770" type="curve" smooth="yes"/>
      <point x="65" y="770"/>
      <point x="15" y="690"/>
      <point x="15" y="589" type="curve" smooth="yes"/>
      <point x="15" y="515"/>
      <point x="53" y="451"/>
      <point x="119" y="429" type="curve"/>
      <point x="119" y="425" type="line"/>
      <point x="81" y="379"/>
      <point x="67" y="320"/>
      <point x="67" y="247" type="curve" smooth="yes"/>
      <point x="67" y="120"/>
      <point x="128" y="-10"/>
    </contour>
    <contour>
      <point x="271" y="100" type="curve" smooth="yes"/>
      <point x="219" y="100"/>
      <point x="199" y="159"/>
      <point x="199" y="258" type="curve" smooth="yes"/>
      <point x="199" y="361"/>
      <point x="218" y="417"/>
      <point x="271" y="417" type="curve" smooth="yes"/>
      <point x="323" y="417"/>
      <point x="342" y="360"/>
      <point x="342" y="259" type="curve" smooth="yes"/>
      <point x="342" y="158"/>
      <point x="323" y="100"/>
    </contour>
    <contour>
      <point x="186" y="509" type="curve" smooth="yes"/>
      <point x="151" y="509"/>
      <point x="138" y="546"/>
      <point x="138" y="590" type="curve" smooth="yes"/>
      <point x="138" y="635"/>
      <point x="151" y="670"/>
      <point x="186" y="670" type="curve" smooth="yes"/>
      <point x="222" y="670"/>
      <point x="235" y="634"/>
      <point x="235" y="590" type="curve" smooth="yes"/>
      <point x="235" y="541"/>
      <point x="224" y="509"/>
    </contour>
  </outline>
</glyph>
<glyph name="tan-georgian" format="2">
  <advance width="717"/>
  <unicode hex="10D7"/>
  <note>
uni10D7
</note>
  <outline>
    <contour>
      <point x="237" y="-10" type="curve" smooth="yes"/>
      <point x="383" y="-10"/>
      <point x="434" y="123"/>
      <point x="434" y="268" type="curve" smooth="yes"/>
      <point x="434" y="320" type="line" smooth="yes"/>
      <point x="434" y="410"/>
      <point x="446" y="447"/>
      <point x="486" y="447" type="curve" smooth="yes"/>
      <point x="526" y="447"/>
      <point x="543" y="394"/>
      <point x="543" y="278" type="curve" smooth="yes"/>
      <point x="543" y="184"/>
      <point x="528" y="85"/>
      <point x="496" y="0" type="curve"/>
      <point x="620" y="0" type="line"/>
      <point x="661" y="99"/>
      <point x="675" y="182"/>
      <point x="675" y="281" type="curve" smooth="yes"/>
      <point x="675" y="455"/>
      <point x="609" y="557"/>
      <point x="500" y="557" type="curve" smooth="yes"/>
      <point x="436" y="557"/>
      <point x="389" y="524"/>
      <point x="370" y="459" type="curve"/>
      <point x="367" y="459" type="line"/>
      <point x="347" y="524"/>
      <point x="290" y="557"/>
      <point x="233" y="557" type="curve" smooth="yes"/>
      <point x="98" y="557"/>
      <point x="42" y="441"/>
      <point x="42" y="274" type="curve" smooth="yes"/>
      <point x="42" y="120"/>
      <point x="101" y="-10"/>
    </contour>
    <contour>
      <point x="238" y="100" type="curve" smooth="yes"/>
      <point x="191" y="100"/>
      <point x="174" y="159"/>
      <point x="174" y="273" type="curve" smooth="yes"/>
      <point x="174" y="391"/>
      <point x="191" y="447"/>
      <point x="238" y="447" type="curve" smooth="yes"/>
      <point x="286" y="447"/>
      <point x="302" y="390"/>
      <point x="302" y="274" type="curve" smooth="yes"/>
      <point x="302" y="158"/>
      <point x="286" y="100"/>
    </contour>
  </outline>
</glyph>
<glyph name="in-georgian" format="2">
  <advance width="490"/>
  <unicode hex="10D8"/>
  <note>
uni10D8
</note>
  <anchor x="245" y="547" name="top"/>
  <outline>
    <contour>
      <point x="92" y="0" type="curve"/>
      <point x="214" y="0" type="line"/>
      <point x="189" y="80"/>
      <point x="174" y="175"/>
      <point x="174" y="282" type="curve" smooth="yes"/>
      <point x="174" y="403"/>
      <point x="201" y="447"/>
      <point x="245" y="447" type="curve" smooth="yes"/>
      <point x="290" y="447"/>
      <point x="316" y="401"/>
      <point x="316" y="282" type="curve" smooth="yes"/>
      <point x="316" y="177"/>
      <point x="301" y="80"/>
      <point x="276" y="0" type="curve"/>
      <point x="398" y="0" type="line"/>
      <point x="434" y="99"/>
      <point x="448" y="182"/>
      <point x="448" y="285" type="curve" smooth="yes"/>
      <point x="448" y="462"/>
      <point x="369" y="557"/>
      <point x="245" y="557" type="curve" smooth="yes"/>
      <point x="119" y="557"/>
      <point x="42" y="462"/>
      <point x="42" y="285" type="curve" smooth="yes"/>
      <point x="42" y="179"/>
      <point x="56" y="100"/>
    </contour>
  </outline>
</glyph>
<glyph name="kan-georgian" format="2">
  <advance width="465"/>
  <unicode hex="10D9"/>
  <note>
uni10D9
</note>
  <outline>
    <contour>
      <point x="230" y="-250" type="curve" smooth="yes"/>
      <point x="356" y="-250"/>
      <point x="428" y="-155"/>
      <point x="428" y="-11" type="curve" smooth="yes"/>
      <point x="428" y="119"/>
      <point x="377" y="184"/>
      <point x="304" y="205" type="curve"/>
      <point x="304" y="209" type="line"/>
      <point x="377" y="230"/>
      <point x="417" y="290"/>
      <point x="417" y="373" type="curve" smooth="yes"/>
      <point x="417" y="487"/>
      <point x="336" y="557"/>
      <point x="223" y="557" type="curve"/>
      <point x="223" y="447" type="line"/>
      <point x="264" y="447"/>
      <point x="287" y="409"/>
      <point x="287" y="354" type="curve" smooth="yes"/>
      <point x="287" y="297"/>
      <point x="260" y="255"/>
      <point x="210" y="255" type="curve" smooth="yes"/>
      <point x="187" y="255" type="line"/>
      <point x="187" y="146" type="line"/>
      <point x="212" y="146" type="line" smooth="yes"/>
      <point x="264" y="146"/>
      <point x="296" y="100"/>
      <point x="296" y="-4" type="curve" smooth="yes"/>
      <point x="296" y="-98"/>
      <point x="275" y="-140"/>
      <point x="229" y="-140" type="curve" smooth="yes"/>
      <point x="182" y="-140"/>
      <point x="162" y="-90"/>
      <point x="162" y="-26" type="curve" smooth="yes"/>
      <point x="162" y="9"/>
      <point x="167" y="41"/>
      <point x="172" y="62" type="curve"/>
      <point x="51" y="62" type="line"/>
      <point x="39" y="34"/>
      <point x="32" y="-1"/>
      <point x="32" y="-36" type="curve" smooth="yes"/>
      <point x="32" y="-159"/>
      <point x="102" y="-250"/>
    </contour>
  </outline>
</glyph>
<glyph name="las-georgian" format="2">
  <advance width="883"/>
  <unicode hex="10DA"/>
  <note>
uni10DA
</note>
  <outline>
    <contour>
      <point x="507" y="-250" type="curve"/>
      <point x="609" y="-209" type="line"/>
      <point x="577" y="-121"/>
      <point x="480" y="-55"/>
      <point x="386" y="-21" type="curve" smooth="yes"/>
      <point x="269" y="21"/>
      <point x="174" y="98"/>
      <point x="174" y="293" type="curve" smooth="yes"/>
      <point x="174" y="395"/>
      <point x="187" y="447"/>
      <point x="224" y="447" type="curve" smooth="yes"/>
      <point x="257" y="447"/>
      <point x="269" y="410"/>
      <point x="269" y="315" type="curve" smooth="yes"/>
      <point x="269" y="170" type="line"/>
      <point x="395" y="170" type="line"/>
      <point x="395" y="315" type="line" smooth="yes"/>
      <point x="395" y="410"/>
      <point x="408" y="447"/>
      <point x="442" y="447" type="curve" smooth="yes"/>
      <point x="475" y="447"/>
      <point x="488" y="410"/>
      <point x="488" y="315" type="curve" smooth="yes"/>
      <point x="488" y="170" type="line"/>
      <point x="614" y="170" type="line"/>
      <point x="614" y="315" type="line" smooth="yes"/>
      <point x="614" y="410"/>
      <point x="626" y="447"/>
      <point x="659" y="447" type="curve" smooth="yes"/>
      <point x="696" y="447"/>
      <point x="709" y="395"/>
      <point x="709" y="278" type="curve" smooth="yes"/>
      <point x="709" y="204"/>
      <point x="701" y="139"/>
      <point x="674" y="72" type="curve"/>
      <point x="789" y="39" type="line"/>
      <point x="828" y="124"/>
      <point x="841" y="194"/>
      <point x="841" y="281" type="curve" smooth="yes"/>
      <point x="841" y="453"/>
      <point x="782" y="557"/>
      <point x="679" y="557" type="curve" smooth="yes"/>
      <point x="615" y="557"/>
      <point x="571" y="521"/>
      <point x="553" y="454" type="curve"/>
      <point x="549" y="454" type="line"/>
      <point x="535" y="521"/>
      <point x="498" y="557"/>
      <point x="442" y="557" type="curve" smooth="yes"/>
      <point x="385" y="557"/>
      <point x="348" y="521"/>
      <point x="334" y="454" type="curve"/>
      <point x="331" y="454" type="line"/>
      <point x="312" y="521"/>
      <point x="268" y="557"/>
      <point x="204" y="557" type="curve" smooth="yes"/>
      <point x="101" y="557"/>
      <point x="42" y="453"/>
      <point x="42" y="300" type="curve" smooth="yes"/>
      <point x="42" y="132"/>
      <point x="120" y="13"/>
      <point x="241" y="-40" type="curve"/>
      <point x="241" y="-44" type="line"/>
      <point x="209" y="-48"/>
      <point x="164" y="-62"/>
      <point x="140" y="-79" type="curve"/>
      <point x="182" y="-164" type="line"/>
      <point x="215" y="-143"/>
      <point x="263" y="-124"/>
      <point x="314" y="-124" type="curve" smooth="yes"/>
      <point x="391" y="-124"/>
      <point x="474" y="-169"/>
    </contour>
  </outline>
</glyph>
<glyph name="man-georgian" format="2">
  <advance width="505"/>
  <unicode hex="10DB"/>
  <note>
uni10DB
</note>
  <outline>
    <contour>
      <point x="250" y="-10" type="curve" smooth="yes"/>
      <point x="379" y="-10"/>
      <point x="450" y="84"/>
      <point x="450" y="265" type="curve" smooth="yes"/>
      <point x="450" y="581" type="line" smooth="yes"/>
      <point x="450" y="701"/>
      <point x="376" y="770"/>
      <point x="260" y="770" type="curve" smooth="yes"/>
      <point x="153" y="770"/>
      <point x="71" y="713"/>
      <point x="71" y="628" type="curve" smooth="yes"/>
      <point x="71" y="613"/>
      <point x="74" y="599"/>
      <point x="78" y="584" type="curve"/>
      <point x="203" y="584" type="line"/>
      <point x="202" y="592"/>
      <point x="201" y="600"/>
      <point x="201" y="608" type="curve" smooth="yes"/>
      <point x="201" y="648"/>
      <point x="221" y="669"/>
      <point x="259" y="669" type="curve" smooth="yes"/>
      <point x="299" y="669"/>
      <point x="320" y="640"/>
      <point x="320" y="589" type="curve" smooth="yes"/>
      <point x="320" y="550" type="line" smooth="yes"/>
      <point x="320" y="529"/>
      <point x="321" y="502"/>
      <point x="324" y="463" type="curve"/>
      <point x="320" y="463" type="line"/>
      <point x="291" y="517"/>
      <point x="250" y="535"/>
      <point x="200" y="535" type="curve" smooth="yes"/>
      <point x="99" y="535"/>
      <point x="42" y="437"/>
      <point x="42" y="266" type="curve" smooth="yes"/>
      <point x="42" y="96"/>
      <point x="116" y="-10"/>
    </contour>
    <contour>
      <point x="249" y="100" type="curve" smooth="yes"/>
      <point x="195" y="100"/>
      <point x="174" y="158"/>
      <point x="174" y="265" type="curve" smooth="yes"/>
      <point x="174" y="369"/>
      <point x="195" y="430"/>
      <point x="243" y="430" type="curve" smooth="yes"/>
      <point x="297" y="430"/>
      <point x="320" y="383"/>
      <point x="320" y="287" type="curve" smooth="yes"/>
      <point x="320" y="258" type="line" smooth="yes"/>
      <point x="320" y="154"/>
      <point x="299" y="100"/>
    </contour>
  </outline>
</glyph>
<glyph name="on-georgian" format="2">
  <advance width="684"/>
  <unicode hex="10DD"/>
  <note>
uni10DD
</note>
  <anchor x="342" y="547" name="top"/>
  <outline>
    <contour>
      <point x="96" y="0" type="curve"/>
      <point x="220" y="0" type="line"/>
      <point x="189" y="83"/>
      <point x="174" y="175"/>
      <point x="174" y="276" type="curve" smooth="yes"/>
      <point x="174" y="387"/>
      <point x="189" y="437"/>
      <point x="231" y="437" type="curve" smooth="yes"/>
      <point x="267" y="437"/>
      <point x="279" y="402"/>
      <point x="279" y="306" type="curve" smooth="yes"/>
      <point x="279" y="173" type="line"/>
      <point x="405" y="173" type="line"/>
      <point x="405" y="306" type="line" smooth="yes"/>
      <point x="405" y="406"/>
      <point x="416" y="437"/>
      <point x="453" y="437" type="curve" smooth="yes"/>
      <point x="494" y="437"/>
      <point x="511" y="386"/>
      <point x="511" y="278" type="curve" smooth="yes"/>
      <point x="511" y="184"/>
      <point x="496" y="85"/>
      <point x="464" y="0" type="curve"/>
      <point x="588" y="0" type="line"/>
      <point x="628" y="99"/>
      <point x="642" y="182"/>
      <point x="642" y="281" type="curve" smooth="yes"/>
      <point x="642" y="455"/>
      <point x="576" y="557"/>
      <point x="467" y="557" type="curve" smooth="yes"/>
      <point x="404" y="557"/>
      <point x="362" y="521"/>
      <point x="344" y="454" type="curve"/>
      <point x="340" y="454" type="line"/>
      <point x="322" y="521"/>
      <point x="281" y="557"/>
      <point x="217" y="557" type="curve" smooth="yes"/>
      <point x="106" y="557"/>
      <point x="42" y="453"/>
      <point x="42" y="281" type="curve" smooth="yes"/>
      <point x="42" y="179"/>
      <point x="56" y="104"/>
    </contour>
  </outline>
</glyph>
<glyph name="par-georgian" format="2">
  <advance width="475"/>
  <unicode hex="10DE"/>
  <note>
uni10DE
</note>
  <outline>
    <contour>
      <point x="233" y="-10" type="curve" smooth="yes"/>
      <point x="360" y="-10"/>
      <point x="433" y="82"/>
      <point x="433" y="223" type="curve" smooth="yes"/>
      <point x="433" y="339"/>
      <point x="372" y="402"/>
      <point x="299" y="421" type="curve"/>
      <point x="299" y="424" type="line"/>
      <point x="372" y="442"/>
      <point x="412" y="482"/>
      <point x="412" y="547" type="curve" smooth="yes"/>
      <point x="412" y="600"/>
      <point x="381" y="642"/>
      <point x="348" y="671" type="curve" smooth="yes"/>
      <point x="314" y="701"/>
      <point x="290" y="725"/>
      <point x="290" y="760" type="curve"/>
      <point x="160" y="760" type="line"/>
      <point x="160" y="687"/>
      <point x="197" y="653"/>
      <point x="232" y="621" type="curve" smooth="yes"/>
      <point x="258" y="597"/>
      <point x="281" y="574"/>
      <point x="281" y="535" type="curve" smooth="yes"/>
      <point x="281" y="499"/>
      <point x="262" y="475"/>
      <point x="213" y="475" type="curve" smooth="yes"/>
      <point x="186" y="475" type="line"/>
      <point x="186" y="366" type="line"/>
      <point x="217" y="366" type="line" smooth="yes"/>
      <point x="270" y="366"/>
      <point x="301" y="320"/>
      <point x="301" y="230" type="curve" smooth="yes"/>
      <point x="301" y="139"/>
      <point x="280" y="100"/>
      <point x="232" y="100" type="curve" smooth="yes"/>
      <point x="188" y="100"/>
      <point x="165" y="137"/>
      <point x="165" y="194" type="curve" smooth="yes"/>
      <point x="165" y="228"/>
      <point x="168" y="253"/>
      <point x="174" y="281" type="curve"/>
      <point x="55" y="281" type="line"/>
      <point x="43" y="244"/>
      <point x="37" y="218"/>
      <point x="37" y="177" type="curve" smooth="yes"/>
      <point x="37" y="62"/>
      <point x="121" y="-10"/>
    </contour>
  </outline>
</glyph>
<glyph name="zhar-georgian" format="2">
  <advance width="537"/>
  <unicode hex="10DF"/>
  <note>
uni10DF
</note>
  <outline>
    <contour>
      <point x="279" y="-250" type="curve" smooth="yes"/>
      <point x="407" y="-250"/>
      <point x="477" y="-162"/>
      <point x="477" y="-11" type="curve" smooth="yes"/>
      <point x="477" y="547" type="line"/>
      <point x="380" y="547" type="line"/>
      <point x="313" y="514"/>
      <point x="237" y="491"/>
      <point x="153" y="482" type="curve"/>
      <point x="153" y="394" type="line"/>
      <point x="185" y="385"/>
      <point x="199" y="357"/>
      <point x="199" y="320" type="curve" smooth="yes"/>
      <point x="199" y="285"/>
      <point x="187" y="260"/>
      <point x="162" y="260" type="curve" smooth="yes"/>
      <point x="136" y="260"/>
      <point x="123" y="280"/>
      <point x="123" y="311" type="curve" smooth="yes"/>
      <point x="123" y="320"/>
      <point x="124" y="329"/>
      <point x="126" y="338" type="curve"/>
      <point x="33" y="338" type="line"/>
      <point x="28" y="324"/>
      <point x="26" y="311"/>
      <point x="26" y="297" type="curve" smooth="yes"/>
      <point x="26" y="228"/>
      <point x="78" y="177"/>
      <point x="163" y="177" type="curve" smooth="yes"/>
      <point x="239" y="177"/>
      <point x="302" y="227"/>
      <point x="302" y="309" type="curve" smooth="yes"/>
      <point x="302" y="357"/>
      <point x="280" y="394"/>
      <point x="240" y="414" type="curve"/>
      <point x="240" y="417" type="line"/>
      <point x="278" y="422"/>
      <point x="316" y="433"/>
      <point x="347" y="450" type="curve"/>
      <point x="347" y="-5" type="line" smooth="yes"/>
      <point x="347" y="-96"/>
      <point x="326" y="-140"/>
      <point x="277" y="-140" type="curve" smooth="yes"/>
      <point x="224" y="-140"/>
      <point x="207" y="-85"/>
      <point x="207" y="-34" type="curve" smooth="yes"/>
      <point x="207" y="3"/>
      <point x="212" y="32"/>
      <point x="218" y="57" type="curve"/>
      <point x="96" y="57" type="line"/>
      <point x="83" y="23"/>
      <point x="78" y="-4"/>
      <point x="78" y="-44" type="curve" smooth="yes"/>
      <point x="78" y="-147"/>
      <point x="145" y="-250"/>
    </contour>
  </outline>
</glyph>
<glyph name="rae-georgian" format="2">
  <advance width="675"/>
  <unicode hex="10E0"/>
  <note>
uni10E0
</note>
  <outline>
    <contour>
      <point x="96" y="0" type="curve"/>
      <point x="220" y="0" type="line"/>
      <point x="189" y="83"/>
      <point x="174" y="169"/>
      <point x="174" y="270" type="curve" smooth="yes"/>
      <point x="174" y="383"/>
      <point x="187" y="435"/>
      <point x="229" y="435" type="curve" smooth="yes"/>
      <point x="262" y="435"/>
      <point x="274" y="398"/>
      <point x="274" y="309" type="curve" smooth="yes"/>
      <point x="274" y="176" type="line"/>
      <point x="400" y="176" type="line"/>
      <point x="400" y="309" type="line" smooth="yes"/>
      <point x="400" y="398"/>
      <point x="413" y="435"/>
      <point x="447" y="435" type="curve" smooth="yes"/>
      <point x="487" y="435"/>
      <point x="501" y="382"/>
      <point x="501" y="272" type="curve" smooth="yes"/>
      <point x="501" y="178"/>
      <point x="486" y="85"/>
      <point x="454" y="0" type="curve"/>
      <point x="578" y="0" type="line"/>
      <point x="619" y="99"/>
      <point x="633" y="176"/>
      <point x="633" y="275" type="curve" smooth="yes"/>
      <point x="633" y="443"/>
      <point x="571" y="545"/>
      <point x="465" y="545" type="curve" smooth="yes"/>
      <point x="402" y="545"/>
      <point x="357" y="509"/>
      <point x="339" y="442" type="curve"/>
      <point x="336" y="442" type="line"/>
      <point x="319" y="509"/>
      <point x="279" y="545"/>
      <point x="232" y="545" type="curve" smooth="yes"/>
      <point x="205" y="545"/>
      <point x="180" y="537"/>
      <point x="160" y="514" type="curve"/>
      <point x="157" y="514" type="line"/>
      <point x="174" y="572"/>
      <point x="209" y="600"/>
      <point x="269" y="622" type="curve" smooth="yes"/>
      <point x="305" y="635"/>
      <point x="407" y="650"/>
      <point x="474" y="658" type="curve"/>
      <point x="459" y="770" type="line"/>
      <point x="354" y="759"/>
      <point x="288" y="746"/>
      <point x="248" y="733" type="curve" smooth="yes"/>
      <point x="83" y="679"/>
      <point x="42" y="539"/>
      <point x="42" y="347" type="curve" smooth="yes"/>
      <point x="42" y="295" type="line" smooth="yes"/>
      <point x="42" y="189"/>
      <point x="56" y="104"/>
    </contour>
  </outline>
</glyph>
<glyph name="san-georgian" format="2">
  <advance width="505"/>
  <unicode hex="10E1"/>
  <note>
uni10E1
</note>
  <outline>
    <contour>
      <point x="256" y="-10" type="curve" smooth="yes"/>
      <point x="389" y="-10"/>
      <point x="463" y="92"/>
      <point x="463" y="233" type="curve" smooth="yes"/>
      <point x="463" y="302"/>
      <point x="454" y="350"/>
      <point x="431" y="399" type="curve" smooth="yes"/>
      <point x="412" y="439"/>
      <point x="396" y="479"/>
      <point x="396" y="547" type="curve"/>
      <point x="266" y="547" type="line"/>
      <point x="266" y="460"/>
      <point x="284" y="413"/>
      <point x="306" y="360" type="curve" smooth="yes"/>
      <point x="321" y="324"/>
      <point x="331" y="286"/>
      <point x="331" y="233" type="curve" smooth="yes"/>
      <point x="331" y="155"/>
      <point x="310" y="100"/>
      <point x="258" y="100" type="curve" smooth="yes"/>
      <point x="207" y="100"/>
      <point x="185" y="151"/>
      <point x="185" y="251" type="curve" smooth="yes"/>
      <point x="185" y="760" type="line"/>
      <point x="55" y="760" type="line"/>
      <point x="55" y="254" type="line" smooth="yes"/>
      <point x="55" y="82"/>
      <point x="126" y="-10"/>
    </contour>
  </outline>
</glyph>
<glyph name="tar-georgian" format="2">
  <advance width="630"/>
  <unicode hex="10E2"/>
  <note>
uni10E2
</note>
  <outline>
    <contour>
      <point x="316" y="-250" type="curve" smooth="yes"/>
      <point x="502" y="-250"/>
      <point x="588" y="-110"/>
      <point x="588" y="167" type="curve" smooth="yes"/>
      <point x="588" y="384"/>
      <point x="526" y="522"/>
      <point x="372" y="548" type="curve"/>
      <point x="376" y="576"/>
      <point x="378" y="597"/>
      <point x="378" y="627" type="curve"/>
      <point x="378" y="672" type="line"/>
      <point x="252" y="672" type="line"/>
      <point x="252" y="626" type="line"/>
      <point x="252" y="596"/>
      <point x="256" y="576"/>
      <point x="258" y="548" type="curve"/>
      <point x="110" y="521"/>
      <point x="42" y="390"/>
      <point x="42" y="168" type="curve" smooth="yes"/>
      <point x="42" y="-108"/>
      <point x="132" y="-250"/>
    </contour>
    <contour>
      <point x="316" y="-139" type="curve" smooth="yes"/>
      <point x="219" y="-139"/>
      <point x="174" y="-47"/>
      <point x="174" y="167" type="curve" smooth="yes"/>
      <point x="174" y="330"/>
      <point x="197" y="411"/>
      <point x="260" y="437" type="curve"/>
      <point x="255" y="406"/>
      <point x="252" y="370"/>
      <point x="252" y="340" type="curve"/>
      <point x="252" y="170" type="line"/>
      <point x="378" y="170" type="line"/>
      <point x="378" y="340" type="line"/>
      <point x="378" y="371"/>
      <point x="376" y="407"/>
      <point x="370" y="438" type="curve"/>
      <point x="433" y="411"/>
      <point x="456" y="331"/>
      <point x="456" y="167" type="curve" smooth="yes"/>
      <point x="456" y="-51"/>
      <point x="414" y="-139"/>
    </contour>
  </outline>
</glyph>
<glyph name="un-georgian" format="2">
  <advance width="521"/>
  <unicode hex="10E3"/>
  <note>
uni10E3
</note>
  <anchor x="251" y="547" name="top"/>
  <outline>
    <contour>
      <point x="258" y="-250" type="curve" smooth="yes"/>
      <point x="395" y="-250"/>
      <point x="466" y="-166"/>
      <point x="466" y="-24" type="curve" smooth="yes"/>
      <point x="466" y="373" type="line" smooth="yes"/>
      <point x="466" y="478"/>
      <point x="413" y="557"/>
      <point x="310" y="557" type="curve" smooth="yes"/>
      <point x="245" y="557"/>
      <point x="203" y="527"/>
      <point x="183" y="473" type="curve"/>
      <point x="180" y="473" type="line"/>
      <point x="163" y="527"/>
      <point x="127" y="552"/>
      <point x="74" y="552" type="curve" smooth="yes"/>
      <point x="14" y="552" type="line"/>
      <point x="14" y="437" type="line"/>
      <point x="62" y="437" type="line" smooth="yes"/>
      <point x="103" y="437"/>
      <point x="119" y="410"/>
      <point x="119" y="365" type="curve" smooth="yes"/>
      <point x="119" y="230" type="line"/>
      <point x="245" y="230" type="line"/>
      <point x="245" y="367" type="line" smooth="yes"/>
      <point x="245" y="411"/>
      <point x="258" y="441"/>
      <point x="291" y="441" type="curve" smooth="yes"/>
      <point x="323" y="441"/>
      <point x="336" y="411"/>
      <point x="336" y="365" type="curve" smooth="yes"/>
      <point x="336" y="-14" type="line" smooth="yes"/>
      <point x="336" y="-96"/>
      <point x="315" y="-140"/>
      <point x="256" y="-140" type="curve" smooth="yes"/>
      <point x="193" y="-140"/>
      <point x="176" y="-79"/>
      <point x="176" y="-16" type="curve" smooth="yes"/>
      <point x="176" y="31"/>
      <point x="184" y="66"/>
      <point x="190" y="89" type="curve"/>
      <point x="68" y="89" type="line"/>
      <point x="56" y="58"/>
      <point x="47" y="19"/>
      <point x="47" y="-26" type="curve" smooth="yes"/>
      <point x="47" y="-141"/>
      <point x="114" y="-250"/>
    </contour>
  </outline>
</glyph>
<glyph name="phar-georgian" format="2">
  <advance width="694"/>
  <unicode hex="10E4"/>
  <note>
uni10E4
</note>
  <outline>
    <contour>
      <point x="402" y="-250" type="curve" smooth="yes"/>
      <point x="557" y="-250"/>
      <point x="635" y="-155"/>
      <point x="635" y="-35" type="curve" smooth="yes"/>
      <point x="635" y="49"/>
      <point x="605" y="107"/>
      <point x="538" y="130" type="curve"/>
      <point x="538" y="133" type="line"/>
      <point x="615" y="162"/>
      <point x="652" y="235"/>
      <point x="652" y="334" type="curve" smooth="yes"/>
      <point x="652" y="461"/>
      <point x="588" y="557"/>
      <point x="483" y="557" type="curve" smooth="yes"/>
      <point x="419" y="557"/>
      <point x="371" y="524"/>
      <point x="352" y="459" type="curve"/>
      <point x="349" y="459" type="line"/>
      <point x="329" y="524"/>
      <point x="278" y="557"/>
      <point x="223" y="557" type="curve" smooth="yes"/>
      <point x="95" y="557"/>
      <point x="42" y="442"/>
      <point x="42" y="301" type="curve" smooth="yes"/>
      <point x="42" y="166"/>
      <point x="98" y="44"/>
      <point x="228" y="44" type="curve" smooth="yes"/>
      <point x="368" y="44"/>
      <point x="416" y="175"/>
      <point x="416" y="297" type="curve" smooth="yes"/>
      <point x="416" y="325" type="line" smooth="yes"/>
      <point x="416" y="410"/>
      <point x="429" y="447"/>
      <point x="467" y="447" type="curve" smooth="yes"/>
      <point x="505" y="447"/>
      <point x="521" y="396"/>
      <point x="521" y="322" type="curve" smooth="yes"/>
      <point x="521" y="241"/>
      <point x="500" y="185"/>
      <point x="456" y="185" type="curve" smooth="yes"/>
      <point x="440" y="185" type="line"/>
      <point x="440" y="76" type="line"/>
      <point x="449" y="76" type="line" smooth="yes"/>
      <point x="486" y="76"/>
      <point x="503" y="30"/>
      <point x="503" y="-24" type="curve" smooth="yes"/>
      <point x="503" y="-92"/>
      <point x="473" y="-140"/>
      <point x="400" y="-140" type="curve" smooth="yes"/>
      <point x="341" y="-140"/>
      <point x="300" y="-109"/>
      <point x="300" y="-51" type="curve" smooth="yes"/>
      <point x="300" y="-45"/>
      <point x="300" y="-38"/>
      <point x="301" y="-32" type="curve"/>
      <point x="178" y="-32" type="line"/>
      <point x="175" y="-44"/>
      <point x="174" y="-57"/>
      <point x="174" y="-70" type="curve" smooth="yes"/>
      <point x="174" y="-170"/>
      <point x="255" y="-250"/>
    </contour>
    <contour>
      <point x="230" y="154" type="curve" smooth="yes"/>
      <point x="185" y="154"/>
      <point x="170" y="212"/>
      <point x="170" y="300" type="curve" smooth="yes"/>
      <point x="170" y="392"/>
      <point x="185" y="447"/>
      <point x="230" y="447" type="curve" smooth="yes"/>
      <point x="275" y="447"/>
      <point x="288" y="392"/>
      <point x="288" y="300" type="curve" smooth="yes"/>
      <point x="288" y="210"/>
      <point x="275" y="154"/>
    </contour>
  </outline>
</glyph>
<glyph name="khar-georgian" format="2">
  <advance width="485"/>
  <unicode hex="10E5"/>
  <note>
uni10E5
</note>
  <outline>
    <contour>
      <point x="235" y="-250" type="curve" smooth="yes"/>
      <point x="360" y="-250"/>
      <point x="430" y="-162"/>
      <point x="430" y="-11" type="curve" smooth="yes"/>
      <point x="430" y="760" type="line"/>
      <point x="300" y="760" type="line"/>
      <point x="300" y="570" type="line" smooth="yes"/>
      <point x="300" y="549"/>
      <point x="302" y="519"/>
      <point x="304" y="476" type="curve"/>
      <point x="300" y="476" type="line"/>
      <point x="274" y="531"/>
      <point x="236" y="557"/>
      <point x="190" y="557" type="curve" smooth="yes"/>
      <point x="121" y="557"/>
      <point x="52" y="495"/>
      <point x="52" y="370" type="curve" smooth="yes"/>
      <point x="52" y="329"/>
      <point x="58" y="303"/>
      <point x="70" y="266" type="curve"/>
      <point x="191" y="266" type="line"/>
      <point x="185" y="298"/>
      <point x="182" y="328"/>
      <point x="182" y="359" type="curve" smooth="yes"/>
      <point x="182" y="411"/>
      <point x="200" y="447"/>
      <point x="234" y="447" type="curve" smooth="yes"/>
      <point x="277" y="447"/>
      <point x="300" y="396"/>
      <point x="300" y="306" type="curve" smooth="yes"/>
      <point x="300" y="-8" type="line" smooth="yes"/>
      <point x="300" y="-99"/>
      <point x="279" y="-140"/>
      <point x="233" y="-140" type="curve" smooth="yes"/>
      <point x="183" y="-140"/>
      <point x="166" y="-79"/>
      <point x="166" y="-16" type="curve" smooth="yes"/>
      <point x="166" y="31"/>
      <point x="174" y="66"/>
      <point x="180" y="89" type="curve"/>
      <point x="58" y="89" type="line"/>
      <point x="46" y="58"/>
      <point x="37" y="19"/>
      <point x="37" y="-26" type="curve" smooth="yes"/>
      <point x="37" y="-141"/>
      <point x="104" y="-250"/>
    </contour>
  </outline>
</glyph>
<glyph name="ghan-georgian" format="2">
  <advance width="675"/>
  <unicode hex="10E6"/>
  <note>
uni10E6
</note>
  <outline>
    <contour>
      <point x="403" y="-250" type="curve"/>
      <point x="505" y="-209" type="line"/>
      <point x="477" y="-120"/>
      <point x="419" y="-72"/>
      <point x="338" y="-28" type="curve" smooth="yes"/>
      <point x="252" y="19"/>
      <point x="174" y="94"/>
      <point x="174" y="275" type="curve" smooth="yes"/>
      <point x="174" y="395"/>
      <point x="187" y="447"/>
      <point x="229" y="447" type="curve" smooth="yes"/>
      <point x="262" y="447"/>
      <point x="274" y="410"/>
      <point x="274" y="315" type="curve" smooth="yes"/>
      <point x="274" y="170" type="line"/>
      <point x="400" y="170" type="line"/>
      <point x="400" y="315" type="line" smooth="yes"/>
      <point x="400" y="410"/>
      <point x="413" y="447"/>
      <point x="447" y="447" type="curve" smooth="yes"/>
      <point x="487" y="447"/>
      <point x="501" y="394"/>
      <point x="501" y="278" type="curve" smooth="yes"/>
      <point x="501" y="204"/>
      <point x="493" y="139"/>
      <point x="466" y="72" type="curve"/>
      <point x="580" y="39" type="line"/>
      <point x="620" y="124"/>
      <point x="633" y="194"/>
      <point x="633" y="281" type="curve" smooth="yes"/>
      <point x="633" y="455"/>
      <point x="571" y="557"/>
      <point x="465" y="557" type="curve" smooth="yes"/>
      <point x="402" y="557"/>
      <point x="357" y="521"/>
      <point x="339" y="454" type="curve"/>
      <point x="336" y="454" type="line"/>
      <point x="317" y="521"/>
      <point x="273" y="557"/>
      <point x="209" y="557" type="curve" smooth="yes"/>
      <point x="101" y="557"/>
      <point x="42" y="453"/>
      <point x="42" y="281" type="curve" smooth="yes"/>
      <point x="42" y="132"/>
      <point x="97" y="9"/>
      <point x="206" y="-50" type="curve"/>
      <point x="206" y="-54" type="line"/>
      <point x="168" y="-57"/>
      <point x="136" y="-67"/>
      <point x="113" y="-80" type="curve"/>
      <point x="151" y="-164" type="line"/>
      <point x="183" y="-145"/>
      <point x="223" y="-134"/>
      <point x="261" y="-134" type="curve" smooth="yes"/>
      <point x="317" y="-134"/>
      <point x="372" y="-169"/>
    </contour>
  </outline>
</glyph>
<glyph name="qar-georgian" format="2">
  <advance width="499"/>
  <unicode hex="10E7"/>
  <note>
uni10E7
</note>
  <outline>
    <contour>
      <point x="246" y="-250" type="curve" smooth="yes"/>
      <point x="374" y="-250"/>
      <point x="444" y="-162"/>
      <point x="444" y="-11" type="curve" smooth="yes"/>
      <point x="444" y="547" type="line"/>
      <point x="315" y="547" type="line"/>
      <point x="315" y="410" type="line" smooth="yes"/>
      <point x="315" y="294"/>
      <point x="287" y="246"/>
      <point x="240" y="246" type="curve" smooth="yes"/>
      <point x="191" y="246"/>
      <point x="173" y="292"/>
      <point x="173" y="371" type="curve" smooth="yes"/>
      <point x="173" y="435"/>
      <point x="182" y="484"/>
      <point x="197" y="547" type="curve"/>
      <point x="72" y="547" type="line"/>
      <point x="54" y="492"/>
      <point x="42" y="433"/>
      <point x="42" y="358" type="curve" smooth="yes"/>
      <point x="42" y="219"/>
      <point x="100" y="136"/>
      <point x="195" y="136" type="curve" smooth="yes"/>
      <point x="249" y="136"/>
      <point x="290" y="164"/>
      <point x="315" y="218" type="curve"/>
      <point x="320" y="218" type="line"/>
      <point x="316" y="169"/>
      <point x="315" y="131"/>
      <point x="315" y="80" type="curve" smooth="yes"/>
      <point x="315" y="-5" type="line" smooth="yes"/>
      <point x="315" y="-96"/>
      <point x="294" y="-140"/>
      <point x="245" y="-140" type="curve" smooth="yes"/>
      <point x="191" y="-140"/>
      <point x="174" y="-85"/>
      <point x="174" y="-34" type="curve" smooth="yes"/>
      <point x="174" y="3"/>
      <point x="179" y="32"/>
      <point x="186" y="57" type="curve"/>
      <point x="64" y="57" type="line"/>
      <point x="51" y="23"/>
      <point x="45" y="-4"/>
      <point x="45" y="-44" type="curve" smooth="yes"/>
      <point x="45" y="-147"/>
      <point x="112" y="-250"/>
    </contour>
  </outline>
</glyph>
<glyph name="shin-georgian" format="2">
  <advance width="502"/>
  <unicode hex="10E8"/>
  <note>
uni10E8
</note>
  <outline>
    <contour>
      <point x="248" y="-10" type="curve" smooth="yes"/>
      <point x="376" y="-10"/>
      <point x="447" y="84"/>
      <point x="447" y="255" type="curve" smooth="yes"/>
      <point x="447" y="608" type="line" smooth="yes"/>
      <point x="447" y="717"/>
      <point x="379" y="770"/>
      <point x="306" y="770" type="curve" smooth="yes"/>
      <point x="251" y="770"/>
      <point x="214" y="750"/>
      <point x="194" y="708" type="curve"/>
      <point x="190" y="708" type="line"/>
      <point x="172" y="752"/>
      <point x="143" y="770"/>
      <point x="103" y="770" type="curve" smooth="yes"/>
      <point x="74" y="770"/>
      <point x="45" y="764"/>
      <point x="15" y="747" type="curve"/>
      <point x="43" y="650" type="line"/>
      <point x="61" y="657"/>
      <point x="72" y="660"/>
      <point x="87" y="660" type="curve" smooth="yes"/>
      <point x="115" y="660"/>
      <point x="127" y="638"/>
      <point x="127" y="609" type="curve" smooth="yes"/>
      <point x="127" y="569" type="line"/>
      <point x="249" y="569" type="line"/>
      <point x="249" y="622" type="line" smooth="yes"/>
      <point x="249" y="654"/>
      <point x="263" y="669"/>
      <point x="283" y="669" type="curve" smooth="yes"/>
      <point x="303" y="669"/>
      <point x="317" y="655"/>
      <point x="317" y="611" type="curve" smooth="yes"/>
      <point x="317" y="530" type="line" smooth="yes"/>
      <point x="317" y="509"/>
      <point x="318" y="482"/>
      <point x="322" y="443" type="curve"/>
      <point x="317" y="443" type="line"/>
      <point x="288" y="497"/>
      <point x="247" y="515"/>
      <point x="197" y="515" type="curve" smooth="yes"/>
      <point x="97" y="515"/>
      <point x="39" y="417"/>
      <point x="39" y="256" type="curve" smooth="yes"/>
      <point x="39" y="96"/>
      <point x="113" y="-10"/>
    </contour>
    <contour>
      <point x="246" y="100" type="curve" smooth="yes"/>
      <point x="193" y="100"/>
      <point x="171" y="158"/>
      <point x="171" y="255" type="curve" smooth="yes"/>
      <point x="171" y="349"/>
      <point x="192" y="410"/>
      <point x="241" y="410" type="curve" smooth="yes"/>
      <point x="294" y="410"/>
      <point x="317" y="363"/>
      <point x="317" y="277" type="curve" smooth="yes"/>
      <point x="317" y="248" type="line" smooth="yes"/>
      <point x="317" y="154"/>
      <point x="296" y="100"/>
    </contour>
  </outline>
</glyph>
<glyph name="chin-georgian" format="2">
  <advance width="515"/>
  <unicode hex="10E9"/>
  <note>
uni10E9
</note>
  <outline>
    <contour>
      <point x="54" y="0" type="line"/>
      <point x="184" y="0" type="line"/>
      <point x="184" y="276" type="line" smooth="yes"/>
      <point x="184" y="376"/>
      <point x="211" y="425"/>
      <point x="259" y="425" type="curve" smooth="yes"/>
      <point x="305" y="425"/>
      <point x="330" y="377"/>
      <point x="330" y="272" type="curve" smooth="yes"/>
      <point x="330" y="172"/>
      <point x="315" y="60"/>
      <point x="297" y="0" type="curve"/>
      <point x="427" y="0" type="line"/>
      <point x="446" y="65"/>
      <point x="462" y="173"/>
      <point x="462" y="283" type="curve" smooth="yes"/>
      <point x="462" y="411"/>
      <point x="430" y="487"/>
      <point x="363" y="513" type="curve"/>
      <point x="363" y="517" type="line"/>
      <point x="395" y="548"/>
      <point x="406" y="586"/>
      <point x="406" y="620" type="curve" smooth="yes"/>
      <point x="406" y="712"/>
      <point x="342" y="770"/>
      <point x="233" y="770" type="curve" smooth="yes"/>
      <point x="123" y="770"/>
      <point x="54" y="699"/>
      <point x="54" y="597" type="curve" smooth="yes"/>
    </contour>
    <contour>
      <point x="180" y="464" type="line"/>
      <point x="184" y="507"/>
      <point x="185" y="523"/>
      <point x="185" y="537" type="curve" smooth="yes"/>
      <point x="185" y="606" type="line" smooth="yes"/>
      <point x="185" y="637"/>
      <point x="201" y="666"/>
      <point x="234" y="666" type="curve" smooth="yes"/>
      <point x="263" y="666"/>
      <point x="280" y="645"/>
      <point x="280" y="612" type="curve" smooth="yes"/>
      <point x="280" y="576"/>
      <point x="264" y="544"/>
      <point x="228" y="515" type="curve" smooth="yes"/>
      <point x="209" y="500"/>
      <point x="195" y="484"/>
      <point x="185" y="464" type="curve"/>
    </contour>
  </outline>
</glyph>
<glyph name="can-georgian" format="2">
  <advance width="553"/>
  <unicode hex="10EA"/>
  <note>
uni10EA
</note>
  <outline>
    <contour>
      <point x="287" y="-250" type="curve" smooth="yes"/>
      <point x="429" y="-250"/>
      <point x="516" y="-164"/>
      <point x="516" y="0" type="curve" smooth="yes"/>
      <point x="516" y="126"/>
      <point x="464" y="187"/>
      <point x="395" y="206" type="curve"/>
      <point x="395" y="209" type="line"/>
      <point x="464" y="227"/>
      <point x="504" y="269"/>
      <point x="504" y="338" type="curve" smooth="yes"/>
      <point x="504" y="390"/>
      <point x="487" y="424"/>
      <point x="467" y="452" type="curve" smooth="yes"/>
      <point x="445" y="482"/>
      <point x="428" y="508"/>
      <point x="427" y="547" type="curve"/>
      <point x="297" y="547" type="line"/>
      <point x="297" y="479"/>
      <point x="316" y="445"/>
      <point x="337" y="415" type="curve" smooth="yes"/>
      <point x="356" y="388"/>
      <point x="372" y="361"/>
      <point x="372" y="324" type="curve" smooth="yes"/>
      <point x="372" y="286"/>
      <point x="348" y="262"/>
      <point x="298" y="262" type="curve" smooth="yes"/>
      <point x="272" y="262" type="line"/>
      <point x="272" y="148" type="line"/>
      <point x="296" y="148" type="line" smooth="yes"/>
      <point x="351" y="148"/>
      <point x="384" y="102"/>
      <point x="384" y="9" type="curve" smooth="yes"/>
      <point x="384" y="-98"/>
      <point x="351" y="-141"/>
      <point x="289" y="-141" type="curve" smooth="yes"/>
      <point x="214" y="-141"/>
      <point x="174" y="-55"/>
      <point x="174" y="162" type="curve" smooth="yes"/>
      <point x="174" y="306"/>
      <point x="188" y="412"/>
      <point x="235" y="547" type="curve"/>
      <point x="110" y="547" type="line"/>
      <point x="61" y="425"/>
      <point x="42" y="314"/>
      <point x="42" y="162" type="curve" smooth="yes"/>
      <point x="42" y="-137"/>
      <point x="143" y="-250"/>
    </contour>
  </outline>
</glyph>
<glyph name="jil-georgian" format="2">
  <advance width="505"/>
  <unicode hex="10EB"/>
  <note>
uni10EB
</note>
  <outline>
    <contour>
      <point x="250" y="-10" type="curve" smooth="yes"/>
      <point x="379" y="-10"/>
      <point x="450" y="84"/>
      <point x="450" y="271" type="curve" smooth="yes"/>
      <point x="450" y="760" type="line"/>
      <point x="320" y="760" type="line"/>
      <point x="320" y="570" type="line" smooth="yes"/>
      <point x="320" y="549"/>
      <point x="322" y="519"/>
      <point x="324" y="476" type="curve"/>
      <point x="320" y="476" type="line"/>
      <point x="291" y="531"/>
      <point x="250" y="557"/>
      <point x="200" y="557" type="curve" smooth="yes"/>
      <point x="99" y="557"/>
      <point x="42" y="451"/>
      <point x="42" y="272" type="curve" smooth="yes"/>
      <point x="42" y="96"/>
      <point x="116" y="-10"/>
    </contour>
    <contour>
      <point x="249" y="100" type="curve" smooth="yes"/>
      <point x="195" y="100"/>
      <point x="174" y="158"/>
      <point x="174" y="271" type="curve" smooth="yes"/>
      <point x="174" y="383"/>
      <point x="195" y="444"/>
      <point x="243" y="444" type="curve" smooth="yes"/>
      <point x="297" y="444"/>
      <point x="320" y="396"/>
      <point x="320" y="288" type="curve" smooth="yes"/>
      <point x="320" y="264" type="line" smooth="yes"/>
      <point x="320" y="154"/>
      <point x="299" y="100"/>
    </contour>
  </outline>
</glyph>
<glyph name="cil-georgian" format="2">
  <advance width="502"/>
  <unicode hex="10EC"/>
  <note>
uni10EC
</note>
  <outline>
    <contour>
      <point x="254" y="-10" type="curve" smooth="yes"/>
      <point x="389" y="-10"/>
      <point x="463" y="96"/>
      <point x="463" y="256" type="curve" smooth="yes"/>
      <point x="463" y="417"/>
      <point x="405" y="515"/>
      <point x="305" y="515" type="curve" smooth="yes"/>
      <point x="255" y="515"/>
      <point x="214" y="497"/>
      <point x="185" y="443" type="curve"/>
      <point x="180" y="443" type="line"/>
      <point x="184" y="482"/>
      <point x="185" y="509"/>
      <point x="185" y="530" type="curve" smooth="yes"/>
      <point x="185" y="611" type="line" smooth="yes"/>
      <point x="185" y="655"/>
      <point x="199" y="669"/>
      <point x="219" y="669" type="curve" smooth="yes"/>
      <point x="239" y="669"/>
      <point x="253" y="654"/>
      <point x="253" y="622" type="curve" smooth="yes"/>
      <point x="253" y="569" type="line"/>
      <point x="375" y="569" type="line"/>
      <point x="375" y="609" type="line" smooth="yes"/>
      <point x="375" y="638"/>
      <point x="387" y="660"/>
      <point x="415" y="660" type="curve" smooth="yes"/>
      <point x="430" y="660"/>
      <point x="441" y="657"/>
      <point x="459" y="650" type="curve"/>
      <point x="487" y="747" type="line"/>
      <point x="457" y="764"/>
      <point x="428" y="770"/>
      <point x="399" y="770" type="curve" smooth="yes"/>
      <point x="359" y="770"/>
      <point x="330" y="752"/>
      <point x="312" y="708" type="curve"/>
      <point x="308" y="708" type="line"/>
      <point x="288" y="750"/>
      <point x="251" y="770"/>
      <point x="196" y="770" type="curve" smooth="yes"/>
      <point x="123" y="770"/>
      <point x="55" y="717"/>
      <point x="55" y="608" type="curve" smooth="yes"/>
      <point x="55" y="255" type="line" smooth="yes"/>
      <point x="55" y="84"/>
      <point x="126" y="-10"/>
    </contour>
    <contour>
      <point x="256" y="100" type="curve" smooth="yes"/>
      <point x="206" y="100"/>
      <point x="185" y="154"/>
      <point x="185" y="248" type="curve" smooth="yes"/>
      <point x="185" y="277" type="line" smooth="yes"/>
      <point x="185" y="363"/>
      <point x="208" y="410"/>
      <point x="261" y="410" type="curve" smooth="yes"/>
      <point x="310" y="410"/>
      <point x="331" y="349"/>
      <point x="331" y="255" type="curve" smooth="yes"/>
      <point x="331" y="158"/>
      <point x="309" y="100"/>
    </contour>
  </outline>
</glyph>
<glyph name="char-georgian" format="2">
  <advance width="514"/>
  <unicode hex="10ED"/>
  <note>
uni10ED
</note>
  <outline>
    <contour>
      <point x="269" y="-250" type="curve" smooth="yes"/>
      <point x="399" y="-250"/>
      <point x="472" y="-162"/>
      <point x="472" y="-19" type="curve" smooth="yes"/>
      <point x="472" y="65"/>
      <point x="448" y="126"/>
      <point x="423" y="185" type="curve" smooth="yes"/>
      <point x="400" y="239"/>
      <point x="383" y="294"/>
      <point x="383" y="376" type="curve" smooth="yes"/>
      <point x="383" y="437" type="line"/>
      <point x="465" y="437" type="line"/>
      <point x="465" y="547" type="line"/>
      <point x="383" y="547" type="line"/>
      <point x="383" y="760" type="line"/>
      <point x="255" y="760" type="line"/>
      <point x="255" y="547" type="line"/>
      <point x="207" y="547" type="line" smooth="yes"/>
      <point x="102" y="547"/>
      <point x="37" y="483"/>
      <point x="37" y="381" type="curve" smooth="yes"/>
      <point x="37" y="285"/>
      <point x="101" y="223"/>
      <point x="176" y="223" type="curve" smooth="yes"/>
      <point x="212" y="223"/>
      <point x="249" y="237"/>
      <point x="270" y="264" type="curve"/>
      <point x="274" y="264" type="line"/>
      <point x="279" y="206"/>
      <point x="291" y="172"/>
      <point x="310" y="128" type="curve" smooth="yes"/>
      <point x="329" y="84"/>
      <point x="340" y="40"/>
      <point x="340" y="-17" type="curve" smooth="yes"/>
      <point x="340" y="-94"/>
      <point x="319" y="-140"/>
      <point x="268" y="-140" type="curve" smooth="yes"/>
      <point x="213" y="-140"/>
      <point x="196" y="-79"/>
      <point x="196" y="-16" type="curve" smooth="yes"/>
      <point x="196" y="31"/>
      <point x="204" y="66"/>
      <point x="209" y="89" type="curve"/>
      <point x="87" y="89" type="line"/>
      <point x="74" y="58"/>
      <point x="66" y="19"/>
      <point x="66" y="-26" type="curve" smooth="yes"/>
      <point x="66" y="-141"/>
      <point x="132" y="-250"/>
    </contour>
    <contour>
      <point x="207" y="327" type="curve" smooth="yes"/>
      <point x="181" y="327"/>
      <point x="161" y="347"/>
      <point x="161" y="383" type="curve" smooth="yes"/>
      <point x="161" y="422"/>
      <point x="183" y="439"/>
      <point x="216" y="439" type="curve" smooth="yes"/>
      <point x="255" y="439" type="line"/>
      <point x="255" y="389" type="line" smooth="yes"/>
      <point x="255" y="347"/>
      <point x="237" y="327"/>
    </contour>
  </outline>
</glyph>
<glyph name="xan-georgian" format="2">
  <advance width="505"/>
  <unicode hex="10EE"/>
  <note>
uni10EE
</note>
  <outline>
    <contour>
      <point x="255" y="-10" type="curve" smooth="yes"/>
      <point x="389" y="-10"/>
      <point x="463" y="96"/>
      <point x="463" y="272" type="curve" smooth="yes"/>
      <point x="463" y="451"/>
      <point x="406" y="557"/>
      <point x="305" y="557" type="curve" smooth="yes"/>
      <point x="255" y="557"/>
      <point x="214" y="531"/>
      <point x="185" y="476" type="curve"/>
      <point x="181" y="476" type="line"/>
      <point x="183" y="519"/>
      <point x="185" y="549"/>
      <point x="185" y="570" type="curve" smooth="yes"/>
      <point x="185" y="760" type="line"/>
      <point x="55" y="760" type="line"/>
      <point x="55" y="271" type="line" smooth="yes"/>
      <point x="55" y="84"/>
      <point x="126" y="-10"/>
    </contour>
    <contour>
      <point x="256" y="100" type="curve" smooth="yes"/>
      <point x="206" y="100"/>
      <point x="185" y="154"/>
      <point x="185" y="264" type="curve" smooth="yes"/>
      <point x="185" y="288" type="line" smooth="yes"/>
      <point x="185" y="396"/>
      <point x="208" y="444"/>
      <point x="262" y="444" type="curve" smooth="yes"/>
      <point x="310" y="444"/>
      <point x="331" y="383"/>
      <point x="331" y="271" type="curve" smooth="yes"/>
      <point x="331" y="158"/>
      <point x="310" y="100"/>
    </contour>
  </outline>
</glyph>
<glyph name="jhan-georgian" format="2">
  <advance width="474"/>
  <unicode hex="10EF"/>
  <note>
uni10EF
</note>
  <outline>
    <contour>
      <point x="303" y="303" type="curve" smooth="yes"/>
      <point x="303" y="317" type="line"/>
      <point x="427" y="287" type="line"/>
      <point x="427" y="395" type="line"/>
      <point x="303" y="424" type="line"/>
      <point x="303" y="557" type="line"/>
      <point x="172" y="557" type="line"/>
      <point x="172" y="455" type="line"/>
      <point x="47" y="485" type="line"/>
      <point x="47" y="378" type="line"/>
      <point x="172" y="348" type="line"/>
      <point x="172" y="302" type="line" smooth="yes"/>
      <point x="172" y="210"/>
      <point x="204" y="154"/>
      <point x="244" y="103" type="curve" smooth="yes"/>
      <point x="278" y="59"/>
      <point x="305" y="17"/>
      <point x="305" y="-40" type="curve" smooth="yes"/>
      <point x="305" y="-99"/>
      <point x="285" y="-140"/>
      <point x="236" y="-140" type="curve" smooth="yes"/>
      <point x="183" y="-140"/>
      <point x="166" y="-85"/>
      <point x="166" y="-34" type="curve" smooth="yes"/>
      <point x="166" y="3"/>
      <point x="171" y="32"/>
      <point x="177" y="57" type="curve"/>
      <point x="56" y="57" type="line"/>
      <point x="43" y="23"/>
      <point x="37" y="-4"/>
      <point x="37" y="-44" type="curve" smooth="yes"/>
      <point x="37" y="-147"/>
      <point x="104" y="-250"/>
      <point x="238" y="-250" type="curve" smooth="yes"/>
      <point x="366" y="-250"/>
      <point x="437" y="-163"/>
      <point x="437" y="-40" type="curve" smooth="yes"/>
      <point x="437" y="36"/>
      <point x="408" y="88"/>
      <point x="374" y="132" type="curve" smooth="yes"/>
      <point x="335" y="183"/>
      <point x="303" y="229"/>
    </contour>
  </outline>
</glyph>
<glyph name="hae-georgian" format="2">
  <advance width="468"/>
  <unicode hex="10F0"/>
  <note>
uni10F0
</note>
  <outline>
    <contour>
      <point x="229" y="-10" type="curve" smooth="yes"/>
      <point x="354" y="-10"/>
      <point x="426" y="67"/>
      <point x="426" y="166" type="curve" smooth="yes"/>
      <point x="426" y="245"/>
      <point x="374" y="290"/>
      <point x="312" y="303" type="curve"/>
      <point x="312" y="306" type="line"/>
      <point x="374" y="316"/>
      <point x="417" y="337"/>
      <point x="417" y="403" type="curve" smooth="yes"/>
      <point x="417" y="459"/>
      <point x="374" y="495"/>
      <point x="312" y="502" type="curve"/>
      <point x="312" y="506" type="line"/>
      <point x="374" y="519"/>
      <point x="405" y="544"/>
      <point x="405" y="596" type="curve" smooth="yes"/>
      <point x="405" y="648"/>
      <point x="372" y="677"/>
      <point x="341" y="696" type="curve" smooth="yes"/>
      <point x="311" y="714"/>
      <point x="285" y="732"/>
      <point x="285" y="760" type="curve"/>
      <point x="154" y="760" type="line"/>
      <point x="154" y="690"/>
      <point x="193" y="666"/>
      <point x="227" y="645" type="curve" smooth="yes"/>
      <point x="253" y="629"/>
      <point x="276" y="616"/>
      <point x="276" y="587" type="curve" smooth="yes"/>
      <point x="276" y="564"/>
      <point x="259" y="553"/>
      <point x="226" y="553" type="curve" smooth="yes"/>
      <point x="199" y="553" type="line"/>
      <point x="199" y="447" type="line"/>
      <point x="227" y="447" type="line" smooth="yes"/>
      <point x="271" y="447"/>
      <point x="288" y="429"/>
      <point x="288" y="403" type="curve" smooth="yes"/>
      <point x="288" y="376"/>
      <point x="271" y="361"/>
      <point x="226" y="361" type="curve" smooth="yes"/>
      <point x="199" y="361" type="line"/>
      <point x="199" y="256" type="line"/>
      <point x="221" y="256" type="line" smooth="yes"/>
      <point x="271" y="256"/>
      <point x="294" y="225"/>
      <point x="294" y="176" type="curve" smooth="yes"/>
      <point x="294" y="131"/>
      <point x="271" y="100"/>
      <point x="227" y="100" type="curve" smooth="yes"/>
      <point x="176" y="100"/>
      <point x="161" y="141"/>
      <point x="161" y="179" type="curve" smooth="yes"/>
      <point x="161" y="192"/>
      <point x="162" y="203"/>
      <point x="165" y="213" type="curve"/>
      <point x="45" y="213" type="line"/>
      <point x="39" y="195"/>
      <point x="35" y="176"/>
      <point x="35" y="157" type="curve" smooth="yes"/>
      <point x="35" y="74"/>
      <point x="97" y="-10"/>
    </contour>
  </outline>
</glyph>
<glyph name="he-georgian" format="2">
  <advance width="558"/>
  <unicode hex="10F1"/>
  <note>
uni10F1
</note>
  <outline>
    <contour>
      <point x="297" y="-10" type="curve" smooth="yes"/>
      <point x="431" y="-10"/>
      <point x="516" y="66"/>
      <point x="516" y="166" type="curve" smooth="yes"/>
      <point x="516" y="245"/>
      <point x="463" y="290"/>
      <point x="401" y="303" type="curve"/>
      <point x="401" y="306" type="line"/>
      <point x="463" y="316"/>
      <point x="506" y="337"/>
      <point x="506" y="403" type="curve" smooth="yes"/>
      <point x="506" y="459"/>
      <point x="463" y="495"/>
      <point x="401" y="502" type="curve"/>
      <point x="401" y="506" type="line"/>
      <point x="459" y="517"/>
      <point x="494" y="544"/>
      <point x="494" y="597" type="curve" smooth="yes"/>
      <point x="494" y="644"/>
      <point x="472" y="672"/>
      <point x="451" y="696" type="curve" smooth="yes"/>
      <point x="433" y="716"/>
      <point x="420" y="734"/>
      <point x="420" y="760" type="curve"/>
      <point x="290" y="760" type="line"/>
      <point x="290" y="699"/>
      <point x="314" y="673"/>
      <point x="335" y="652" type="curve" smooth="yes"/>
      <point x="352" y="635"/>
      <point x="366" y="618"/>
      <point x="366" y="593" type="curve" smooth="yes"/>
      <point x="366" y="564"/>
      <point x="348" y="553"/>
      <point x="315" y="553" type="curve" smooth="yes"/>
      <point x="288" y="553" type="line"/>
      <point x="288" y="447" type="line"/>
      <point x="317" y="447" type="line" smooth="yes"/>
      <point x="360" y="447"/>
      <point x="378" y="429"/>
      <point x="378" y="403" type="curve" smooth="yes"/>
      <point x="378" y="376"/>
      <point x="360" y="361"/>
      <point x="316" y="361" type="curve" smooth="yes"/>
      <point x="288" y="361" type="line"/>
      <point x="288" y="256" type="line"/>
      <point x="309" y="256" type="line" smooth="yes"/>
      <point x="357" y="256"/>
      <point x="383" y="225"/>
      <point x="383" y="179" type="curve" smooth="yes"/>
      <point x="383" y="129"/>
      <point x="353" y="99"/>
      <point x="300" y="99" type="curve" smooth="yes"/>
      <point x="214" y="99"/>
      <point x="174" y="183"/>
      <point x="174" y="386" type="curve" smooth="yes"/>
      <point x="174" y="528"/>
      <point x="188" y="634"/>
      <point x="229" y="760" type="curve"/>
      <point x="106" y="760" type="line"/>
      <point x="62" y="646"/>
      <point x="42" y="535"/>
      <point x="42" y="386" type="curve" smooth="yes"/>
      <point x="42" y="101"/>
      <point x="143" y="-10"/>
    </contour>
  </outline>
</glyph>
<glyph name="hie-georgian" format="2">
  <advance width="500"/>
  <unicode hex="10F2"/>
  <note>
uni10F2
</note>
  <outline>
    <contour>
      <point x="52" y="0" type="line"/>
      <point x="124" y="0"/>
      <point x="191" y="24"/>
      <point x="250" y="61" type="curve"/>
      <point x="309" y="24"/>
      <point x="377" y="0"/>
      <point x="448" y="0" type="curve"/>
      <point x="448" y="110" type="line"/>
      <point x="420" y="110"/>
      <point x="379" y="114"/>
      <point x="338" y="130" type="curve"/>
      <point x="338" y="134" type="line"/>
      <point x="416" y="185"/>
      <point x="458" y="261"/>
      <point x="458" y="352" type="curve" smooth="yes"/>
      <point x="458" y="468"/>
      <point x="381" y="557"/>
      <point x="250" y="557" type="curve" smooth="yes"/>
      <point x="119" y="557"/>
      <point x="42" y="468"/>
      <point x="42" y="352" type="curve" smooth="yes"/>
      <point x="42" y="260"/>
      <point x="84" y="185"/>
      <point x="162" y="134" type="curve"/>
      <point x="162" y="130" type="line"/>
      <point x="119" y="113"/>
      <point x="80" y="110"/>
      <point x="52" y="110" type="curve"/>
    </contour>
    <contour>
      <point x="250" y="171" type="curve"/>
      <point x="205" y="211"/>
      <point x="174" y="265"/>
      <point x="174" y="348" type="curve" smooth="yes"/>
      <point x="174" y="403"/>
      <point x="201" y="447"/>
      <point x="250" y="447" type="curve" smooth="yes"/>
      <point x="299" y="447"/>
      <point x="326" y="403"/>
      <point x="326" y="348" type="curve" smooth="yes"/>
      <point x="326" y="265"/>
      <point x="295" y="211"/>
    </contour>
  </outline>
</glyph>
<glyph name="we-georgian" format="2">
  <advance width="480"/>
  <unicode hex="10F3"/>
  <note>
uni10F3
</note>
  <outline>
    <contour>
      <point x="240" y="-250" type="curve" smooth="yes"/>
      <point x="368" y="-250"/>
      <point x="443" y="-155"/>
      <point x="443" y="-11" type="curve" smooth="yes"/>
      <point x="443" y="151"/>
      <point x="377" y="213"/>
      <point x="294" y="232" type="curve"/>
      <point x="423" y="459" type="line"/>
      <point x="423" y="547" type="line"/>
      <point x="74" y="547" type="line"/>
      <point x="74" y="437" type="line"/>
      <point x="278" y="437" type="line"/>
      <point x="164" y="234" type="line"/>
      <point x="164" y="140" type="line"/>
      <point x="206" y="140" type="line" smooth="yes"/>
      <point x="275" y="140"/>
      <point x="311" y="104"/>
      <point x="311" y="-10" type="curve" smooth="yes"/>
      <point x="311" y="-98"/>
      <point x="287" y="-140"/>
      <point x="238" y="-140" type="curve" smooth="yes"/>
      <point x="186" y="-140"/>
      <point x="167" y="-81"/>
      <point x="167" y="-32" type="curve" smooth="yes"/>
      <point x="167" y="9"/>
      <point x="172" y="39"/>
      <point x="178" y="56" type="curve"/>
      <point x="57" y="56" type="line"/>
      <point x="45" y="29"/>
      <point x="37" y="-1"/>
      <point x="37" y="-42" type="curve" smooth="yes"/>
      <point x="37" y="-149"/>
      <point x="110" y="-250"/>
    </contour>
  </outline>
</glyph>
<glyph name="har-georgian" format="2">
  <advance width="470"/>
  <unicode hex="10F4"/>
  <note>
uni10F4
</note>
  <outline>
    <contour>
      <point x="234" y="-250" type="curve" smooth="yes"/>
      <point x="360" y="-250"/>
      <point x="433" y="-158"/>
      <point x="433" y="-17" type="curve" smooth="yes"/>
      <point x="433" y="99"/>
      <point x="372" y="162"/>
      <point x="299" y="181" type="curve"/>
      <point x="299" y="184" type="line"/>
      <point x="372" y="202"/>
      <point x="412" y="247"/>
      <point x="412" y="325" type="curve" smooth="yes"/>
      <point x="412" y="419"/>
      <point x="348" y="470"/>
      <point x="291" y="511" type="curve" smooth="yes"/>
      <point x="237" y="550"/>
      <point x="204" y="574"/>
      <point x="204" y="617" type="curve" smooth="yes"/>
      <point x="204" y="648"/>
      <point x="227" y="662"/>
      <point x="255" y="662" type="curve" smooth="yes"/>
      <point x="285" y="662"/>
      <point x="312" y="655"/>
      <point x="350" y="638" type="curve"/>
      <point x="391" y="733" type="line"/>
      <point x="347" y="759"/>
      <point x="300" y="770"/>
      <point x="246" y="770" type="curve" smooth="yes"/>
      <point x="143" y="770"/>
      <point x="72" y="712"/>
      <point x="72" y="623" type="curve" smooth="yes"/>
      <point x="72" y="526"/>
      <point x="131" y="480"/>
      <point x="186" y="439" type="curve" smooth="yes"/>
      <point x="235" y="403"/>
      <point x="281" y="366"/>
      <point x="281" y="309" type="curve" smooth="yes"/>
      <point x="281" y="262"/>
      <point x="261" y="235"/>
      <point x="213" y="235" type="curve" smooth="yes"/>
      <point x="186" y="235" type="line"/>
      <point x="186" y="126" type="line"/>
      <point x="217" y="126" type="line" smooth="yes"/>
      <point x="270" y="126"/>
      <point x="301" y="80"/>
      <point x="301" y="-10" type="curve" smooth="yes"/>
      <point x="301" y="-101"/>
      <point x="280" y="-140"/>
      <point x="233" y="-140" type="curve" smooth="yes"/>
      <point x="188" y="-140"/>
      <point x="165" y="-103"/>
      <point x="165" y="-46" type="curve" smooth="yes"/>
      <point x="165" y="-12"/>
      <point x="168" y="13"/>
      <point x="174" y="41" type="curve"/>
      <point x="55" y="41" type="line"/>
      <point x="43" y="4"/>
      <point x="37" y="-22"/>
      <point x="37" y="-63" type="curve" smooth="yes"/>
      <point x="37" y="-178"/>
      <point x="121" y="-250"/>
    </contour>
  </outline>
</glyph>
<glyph name="hoe-georgian" format="2">
  <advance width="497"/>
  <unicode hex="10F5"/>
  <note>
uni10F5
</note>
  <outline>
    <contour>
      <point x="228" y="-10" type="curve" smooth="yes"/>
      <point x="340" y="-10"/>
      <point x="411" y="50"/>
      <point x="411" y="170" type="curve" smooth="yes"/>
      <point x="411" y="232" type="line"/>
      <point x="482" y="232" type="line"/>
      <point x="482" y="336" type="line"/>
      <point x="411" y="336" type="line"/>
      <point x="411" y="432" type="line"/>
      <point x="482" y="432" type="line"/>
      <point x="482" y="535" type="line"/>
      <point x="411" y="535" type="line"/>
      <point x="411" y="593" type="line" smooth="yes"/>
      <point x="411" y="707"/>
      <point x="331" y="770"/>
      <point x="225" y="770" type="curve" smooth="yes"/>
      <point x="114" y="770"/>
      <point x="42" y="711"/>
      <point x="42" y="599" type="curve" smooth="yes"/>
      <point x="42" y="487"/>
      <point x="111" y="432"/>
      <point x="231" y="432" type="curve" smooth="yes"/>
      <point x="283" y="432" type="line"/>
      <point x="283" y="336" type="line"/>
      <point x="231" y="336" type="line" smooth="yes"/>
      <point x="111" y="336"/>
      <point x="42" y="274"/>
      <point x="42" y="162" type="curve" smooth="yes"/>
      <point x="42" y="49"/>
      <point x="113" y="-10"/>
    </contour>
    <contour>
      <point x="226" y="94" type="curve" smooth="yes"/>
      <point x="193" y="94"/>
      <point x="172" y="118"/>
      <point x="172" y="162" type="curve" smooth="yes"/>
      <point x="172" y="208"/>
      <point x="194" y="232"/>
      <point x="240" y="232" type="curve" smooth="yes"/>
      <point x="283" y="232" type="line"/>
      <point x="283" y="174" type="line" smooth="yes"/>
      <point x="283" y="122"/>
      <point x="261" y="94"/>
    </contour>
    <contour>
      <point x="237" y="535" type="line" smooth="yes"/>
      <point x="197" y="535"/>
      <point x="172" y="557"/>
      <point x="172" y="601" type="curve" smooth="yes"/>
      <point x="172" y="640"/>
      <point x="189" y="666"/>
      <point x="225" y="666" type="curve" smooth="yes"/>
      <point x="262" y="666"/>
      <point x="283" y="639"/>
      <point x="283" y="589" type="curve" smooth="yes"/>
      <point x="283" y="535" type="line"/>
    </contour>
  </outline>
</glyph>
<glyph name="fi-georgian" format="2">
  <advance width="745"/>
  <unicode hex="10F6"/>
  <note>
uni10F6
</note>
  <outline>
    <contour>
      <point x="307" y="-250" type="curve" smooth="yes"/>
      <point x="395" y="-250"/>
      <point x="438" y="-204"/>
      <point x="438" y="-91" type="curve" smooth="yes"/>
      <point x="438" y="-26" type="line" smooth="yes"/>
      <point x="438" y="5"/>
      <point x="436" y="35"/>
      <point x="433" y="74" type="curve"/>
      <point x="437" y="74" type="line"/>
      <point x="455" y="22"/>
      <point x="495" y="-10"/>
      <point x="550" y="-10" type="curve" smooth="yes"/>
      <point x="646" y="-10"/>
      <point x="703" y="95"/>
      <point x="703" y="274" type="curve" smooth="yes"/>
      <point x="703" y="450"/>
      <point x="647" y="557"/>
      <point x="546" y="557" type="curve" smooth="yes"/>
      <point x="489" y="557"/>
      <point x="457" y="528"/>
      <point x="436" y="480" type="curve"/>
      <point x="430" y="480" type="line"/>
      <point x="436" y="502"/>
      <point x="438" y="524"/>
      <point x="438" y="555" type="curve" smooth="yes"/>
      <point x="438" y="602" type="line" smooth="yes"/>
      <point x="438" y="639"/>
      <point x="452" y="656"/>
      <point x="485" y="656" type="curve" smooth="yes"/>
      <point x="498" y="656"/>
      <point x="513" y="653"/>
      <point x="528" y="648" type="curve"/>
      <point x="528" y="759" type="line"/>
      <point x="512" y="765"/>
      <point x="478" y="770"/>
      <point x="456" y="770" type="curve" smooth="yes"/>
      <point x="362" y="770"/>
      <point x="308" y="707"/>
      <point x="308" y="604" type="curve" smooth="yes"/>
      <point x="308" y="555" type="line" smooth="yes"/>
      <point x="308" y="526"/>
      <point x="311" y="502"/>
      <point x="315" y="480" type="curve"/>
      <point x="310" y="480" type="line"/>
      <point x="288" y="528"/>
      <point x="256" y="557"/>
      <point x="200" y="557" type="curve" smooth="yes"/>
      <point x="98" y="557"/>
      <point x="42" y="450"/>
      <point x="42" y="274" type="curve" smooth="yes"/>
      <point x="42" y="95"/>
      <point x="99" y="-10"/>
      <point x="196" y="-10" type="curve" smooth="yes"/>
      <point x="251" y="-10"/>
      <point x="290" y="22"/>
      <point x="308" y="74" type="curve"/>
      <point x="313" y="74" type="line"/>
      <point x="310" y="40"/>
      <point x="308" y="10"/>
      <point x="308" y="-22" type="curve" smooth="yes"/>
      <point x="308" y="-83" type="line" smooth="yes"/>
      <point x="308" y="-121"/>
      <point x="295" y="-136"/>
      <point x="269" y="-136" type="curve" smooth="yes"/>
      <point x="248" y="-136"/>
      <point x="228" y="-130"/>
      <point x="209" y="-119" type="curve"/>
      <point x="209" y="-225" type="line"/>
      <point x="236" y="-242"/>
      <point x="269" y="-250"/>
    </contour>
    <contour>
      <point x="241" y="101" type="curve" smooth="yes"/>
      <point x="196" y="101"/>
      <point x="173" y="160"/>
      <point x="173" y="273" type="curve" smooth="yes"/>
      <point x="173" y="389"/>
      <point x="196" y="448"/>
      <point x="240" y="448" type="curve" smooth="yes"/>
      <point x="284" y="448"/>
      <point x="308" y="397"/>
      <point x="308" y="292" type="curve" smooth="yes"/>
      <point x="308" y="249" type="line" smooth="yes"/>
      <point x="308" y="147"/>
      <point x="282" y="101"/>
    </contour>
    <contour>
      <point x="505" y="101" type="curve" smooth="yes"/>
      <point x="463" y="101"/>
      <point x="438" y="147"/>
      <point x="438" y="249" type="curve" smooth="yes"/>
      <point x="438" y="292" type="line" smooth="yes"/>
      <point x="438" y="397"/>
      <point x="462" y="448"/>
      <point x="505" y="448" type="curve" smooth="yes"/>
      <point x="549" y="448"/>
      <point x="573" y="389"/>
      <point x="573" y="273" type="curve" smooth="yes"/>
      <point x="573" y="160"/>
      <point x="550" y="101"/>
    </contour>
  </outline>
</glyph>
<glyph name="yn-georgian" format="2">
  <advance width="470"/>
  <unicode hex="10F7"/>
  <note>
uni10F7
</note>
  <anchor x="235" y="547" name="top"/>
  <outline>
    <contour>
      <point x="239" y="-250" type="curve" smooth="yes"/>
      <point x="358" y="-250"/>
      <point x="433" y="-176"/>
      <point x="433" y="-48" type="curve" smooth="yes"/>
      <point x="433" y="-24"/>
      <point x="430" y="1"/>
      <point x="424" y="23" type="curve"/>
      <point x="293" y="23" type="line"/>
      <point x="300" y="1"/>
      <point x="302" y="-18"/>
      <point x="302" y="-42" type="curve" smooth="yes"/>
      <point x="302" y="-109"/>
      <point x="274" y="-142"/>
      <point x="235" y="-142" type="curve" smooth="yes"/>
      <point x="198" y="-142"/>
      <point x="171" y="-110"/>
      <point x="171" y="-45" type="curve" smooth="yes"/>
      <point x="171" y="37"/>
      <point x="216" y="81"/>
      <point x="289" y="137" type="curve" smooth="yes"/>
      <point x="387" y="212"/>
      <point x="429" y="272"/>
      <point x="429" y="377" type="curve" smooth="yes"/>
      <point x="429" y="480"/>
      <point x="364" y="554"/>
      <point x="246" y="554" type="curve" smooth="yes"/>
      <point x="125" y="554"/>
      <point x="57" y="478"/>
      <point x="57" y="384" type="curve" smooth="yes"/>
      <point x="57" y="361"/>
      <point x="59" y="346"/>
      <point x="63" y="332" type="curve"/>
      <point x="194" y="332" type="line"/>
      <point x="190" y="344"/>
      <point x="188" y="358"/>
      <point x="188" y="373" type="curve" smooth="yes"/>
      <point x="188" y="415"/>
      <point x="209" y="447"/>
      <point x="245" y="447" type="curve" smooth="yes"/>
      <point x="278" y="447"/>
      <point x="300" y="420"/>
      <point x="300" y="373" type="curve" smooth="yes"/>
      <point x="300" y="311"/>
      <point x="267" y="284"/>
      <point x="194" y="228" type="curve" smooth="yes"/>
      <point x="114" y="166"/>
      <point x="37" y="93"/>
      <point x="37" y="-40" type="curve" smooth="yes"/>
      <point x="37" y="-176"/>
      <point x="119" y="-250"/>
    </contour>
  </outline>
</glyph>
<glyph name="elifi-georgian" format="2">
  <advance width="499"/>
  <unicode hex="10F8"/>
  <note>
uni10F8
</note>
  <outline>
    <contour>
      <point x="253" y="-250" type="curve" smooth="yes"/>
      <point x="387" y="-250"/>
      <point x="454" y="-147"/>
      <point x="454" y="-44" type="curve" smooth="yes"/>
      <point x="454" y="-4"/>
      <point x="448" y="23"/>
      <point x="435" y="57" type="curve"/>
      <point x="313" y="57" type="line"/>
      <point x="320" y="32"/>
      <point x="325" y="3"/>
      <point x="325" y="-34" type="curve" smooth="yes"/>
      <point x="325" y="-85"/>
      <point x="308" y="-140"/>
      <point x="254" y="-140" type="curve" smooth="yes"/>
      <point x="205" y="-140"/>
      <point x="184" y="-96"/>
      <point x="184" y="-5" type="curve" smooth="yes"/>
      <point x="184" y="80" type="line" smooth="yes"/>
      <point x="184" y="131"/>
      <point x="183" y="169"/>
      <point x="179" y="218" type="curve"/>
      <point x="184" y="218" type="line"/>
      <point x="209" y="164"/>
      <point x="250" y="136"/>
      <point x="304" y="136" type="curve" smooth="yes"/>
      <point x="399" y="136"/>
      <point x="457" y="219"/>
      <point x="457" y="358" type="curve" smooth="yes"/>
      <point x="457" y="433"/>
      <point x="445" y="492"/>
      <point x="427" y="547" type="curve"/>
      <point x="302" y="547" type="line"/>
      <point x="317" y="484"/>
      <point x="326" y="435"/>
      <point x="326" y="371" type="curve" smooth="yes"/>
      <point x="326" y="292"/>
      <point x="308" y="246"/>
      <point x="259" y="246" type="curve" smooth="yes"/>
      <point x="212" y="246"/>
      <point x="184" y="294"/>
      <point x="184" y="410" type="curve" smooth="yes"/>
      <point x="184" y="547" type="line"/>
      <point x="55" y="547" type="line"/>
      <point x="55" y="-11" type="line" smooth="yes"/>
      <point x="55" y="-162"/>
      <point x="125" y="-250"/>
    </contour>
  </outline>
</glyph>
<glyph name="turnedgan-georgian" format="2">
  <advance width="500"/>
  <unicode hex="10F9"/>
  <note>
uni10F9
</note>
  <outline>
    <contour>
      <point x="251" y="557" type="curve" smooth="yes"/>
      <point x="99" y="557"/>
      <point x="42" y="425"/>
      <point x="42" y="283" type="curve" smooth="yes"/>
      <point x="42" y="151"/>
      <point x="84" y="70"/>
      <point x="156" y="41" type="curve"/>
      <point x="156" y="37" type="line"/>
      <point x="97" y="9"/>
      <point x="81" y="-44"/>
      <point x="81" y="-91" type="curve" smooth="yes"/>
      <point x="81" y="-181"/>
      <point x="137" y="-250"/>
      <point x="250" y="-250" type="curve" smooth="yes"/>
      <point x="354" y="-250"/>
      <point x="419" y="-188"/>
      <point x="419" y="-102" type="curve" smooth="yes"/>
      <point x="419" y="-83"/>
      <point x="416" y="-66"/>
      <point x="411" y="-48" type="curve"/>
      <point x="292" y="-48" type="line"/>
      <point x="295" y="-62"/>
      <point x="297" y="-75"/>
      <point x="297" y="-90" type="curve" smooth="yes"/>
      <point x="297" y="-126"/>
      <point x="281" y="-148"/>
      <point x="251" y="-148" type="curve" smooth="yes"/>
      <point x="220" y="-148"/>
      <point x="205" y="-121"/>
      <point x="205" y="-86" type="curve" smooth="yes"/>
      <point x="205" y="-30"/>
      <point x="221" y="0"/>
      <point x="285" y="15" type="curve" smooth="yes"/>
      <point x="395" y="41"/>
      <point x="458" y="133"/>
      <point x="458" y="283" type="curve" smooth="yes"/>
      <point x="458" y="427"/>
      <point x="393" y="557"/>
    </contour>
    <contour>
      <point x="250" y="447" type="curve" smooth="yes"/>
      <point x="303" y="447"/>
      <point x="326" y="388"/>
      <point x="326" y="284" type="curve" smooth="yes"/>
      <point x="326" y="176"/>
      <point x="303" y="120"/>
      <point x="250" y="120" type="curve" smooth="yes"/>
      <point x="196" y="120"/>
      <point x="174" y="177"/>
      <point x="174" y="283" type="curve" smooth="yes"/>
      <point x="174" y="389"/>
      <point x="196" y="447"/>
    </contour>
  </outline>
</glyph>
<glyph name="ain-georgian" format="2">
  <advance width="398"/>
  <unicode hex="10FA"/>
  <note>
uni10FA
</note>
  <outline>
    <contour>
      <point x="90" y="-104" type="line"/>
      <point x="373" y="24" type="line"/>
      <point x="373" y="142" type="line"/>
      <point x="336" y="116"/>
      <point x="298" y="102"/>
      <point x="262" y="102" type="curve" smooth="yes"/>
      <point x="204" y="102"/>
      <point x="175" y="160"/>
      <point x="175" y="271" type="curve" smooth="yes"/>
      <point x="175" y="384"/>
      <point x="206" y="444"/>
      <point x="264" y="444" type="curve" smooth="yes"/>
      <point x="289" y="444"/>
      <point x="319" y="434"/>
      <point x="347" y="416" type="curve"/>
      <point x="383" y="521" type="line"/>
      <point x="346" y="545"/>
      <point x="301" y="557"/>
      <point x="250" y="557" type="curve" smooth="yes"/>
      <point x="106" y="557"/>
      <point x="42" y="437"/>
      <point x="42" y="271" type="curve" smooth="yes"/>
      <point x="42" y="151"/>
      <point x="81" y="66"/>
      <point x="146" y="35" type="curve"/>
      <point x="146" y="32" type="line"/>
      <point x="90" y="5" type="line"/>
    </contour>
  </outline>
</glyph>
<glyph name="paragraph-georgian" format="2">
  <advance width="420"/>
  <unicode hex="10FB"/>
  <note>
uni10FB
</note>
  <outline>
    <contour>
      <point x="307" y="194" type="curve" smooth="yes"/>
      <point x="342" y="194"/>
      <point x="379" y="222"/>
      <point x="379" y="270" type="curve" smooth="yes"/>
      <point x="379" y="319"/>
      <point x="341" y="346"/>
      <point x="307" y="346" type="curve" smooth="yes"/>
      <point x="271" y="346"/>
      <point x="232" y="321"/>
      <point x="232" y="270" type="curve" smooth="yes"/>
      <point x="232" y="221"/>
      <point x="271" y="194"/>
    </contour>
    <contour>
      <point x="107" y="-13" type="curve" smooth="yes"/>
      <point x="142" y="-13"/>
      <point x="179" y="15"/>
      <point x="179" y="63" type="curve" smooth="yes"/>
      <point x="179" y="112"/>
      <point x="141" y="139"/>
      <point x="107" y="139" type="curve" smooth="yes"/>
      <point x="71" y="139"/>
      <point x="32" y="112"/>
      <point x="32" y="63" type="curve" smooth="yes"/>
      <point x="32" y="14"/>
      <point x="70" y="-13"/>
    </contour>
    <contour>
      <point x="107" y="401" type="curve" smooth="yes"/>
      <point x="142" y="401"/>
      <point x="179" y="429"/>
      <point x="179" y="477" type="curve" smooth="yes"/>
      <point x="179" y="526"/>
      <point x="142" y="553"/>
      <point x="107" y="553" type="curve" smooth="yes"/>
      <point x="70" y="553"/>
      <point x="32" y="528"/>
      <point x="32" y="477" type="curve" smooth="yes"/>
      <point x="32" y="429"/>
      <point x="70" y="401"/>
    </contour>
  </outline>
</glyph>
<glyph name="narMod-georgian" format="2">
  <advance width="306"/>
  <unicode hex="10FC"/>
  <note>
uni10FC
</note>
  <outline>
    <contour>
      <point x="158" y="405" type="curve" smooth="yes"/>
      <point x="239" y="405"/>
      <point x="286" y="463"/>
      <point x="286" y="567" type="curve" smooth="yes"/>
      <point x="286" y="663"/>
      <point x="253" y="720"/>
      <point x="195" y="720" type="curve" smooth="yes"/>
      <point x="166" y="720"/>
      <point x="144" y="706"/>
      <point x="127" y="679" type="curve"/>
      <point x="124" y="679" type="line"/>
      <point x="127" y="705"/>
      <point x="127" y="716"/>
      <point x="127" y="728" type="curve" smooth="yes"/>
      <point x="127" y="737" type="line" smooth="yes"/>
      <point x="127" y="759"/>
      <point x="140" y="767"/>
      <point x="161" y="767" type="curve" smooth="yes"/>
      <point x="256" y="767" type="line"/>
      <point x="256" y="843" type="line"/>
      <point x="148" y="843" type="line" smooth="yes"/>
      <point x="88" y="843"/>
      <point x="35" y="811"/>
      <point x="35" y="741" type="curve" smooth="yes"/>
      <point x="35" y="567" type="line" smooth="yes"/>
      <point x="35" y="461"/>
      <point x="78" y="405"/>
    </contour>
    <contour>
      <point x="159" y="482" type="curve" smooth="yes"/>
      <point x="136" y="482"/>
      <point x="127" y="506"/>
      <point x="127" y="563" type="curve" smooth="yes"/>
      <point x="127" y="580" type="line" smooth="yes"/>
      <point x="127" y="624"/>
      <point x="137" y="646"/>
      <point x="162" y="646" type="curve" smooth="yes"/>
      <point x="184" y="646"/>
      <point x="193" y="616"/>
      <point x="193" y="567" type="curve" smooth="yes"/>
      <point x="193" y="509"/>
      <point x="184" y="482"/>
    </contour>
  </outline>
</glyph>
<glyph name="aen-georgian" format="2">
  <advance width="470"/>
  <unicode hex="10FD"/>
  <outline>
    <contour>
      <point x="231" y="-10" type="curve" smooth="yes"/>
      <point x="351" y="-10"/>
      <point x="433" y="64"/>
      <point x="433" y="200" type="curve" smooth="yes"/>
      <point x="433" y="323"/>
      <point x="356" y="391"/>
      <point x="275" y="452" type="curve" smooth="yes"/>
      <point x="202" y="507"/>
      <point x="170" y="531"/>
      <point x="170" y="592" type="curve" smooth="yes"/>
      <point x="170" y="637"/>
      <point x="192" y="664"/>
      <point x="225" y="664" type="curve" smooth="yes"/>
      <point x="261" y="664"/>
      <point x="281" y="632"/>
      <point x="281" y="590" type="curve" smooth="yes"/>
      <point x="281" y="575"/>
      <point x="280" y="560"/>
      <point x="276" y="548" type="curve"/>
      <point x="407" y="548" type="line"/>
      <point x="410" y="562"/>
      <point x="412" y="578"/>
      <point x="412" y="600" type="curve" smooth="yes"/>
      <point x="412" y="694"/>
      <point x="345" y="770"/>
      <point x="223" y="770" type="curve" smooth="yes"/>
      <point x="106" y="770"/>
      <point x="41" y="696"/>
      <point x="41" y="593" type="curve" smooth="yes"/>
      <point x="41" y="488"/>
      <point x="83" y="436"/>
      <point x="180" y="361" type="curve" smooth="yes"/>
      <point x="253" y="305"/>
      <point x="299" y="263"/>
      <point x="299" y="193" type="curve" smooth="yes"/>
      <point x="299" y="130"/>
      <point x="272" y="98"/>
      <point x="235" y="98" type="curve" smooth="yes"/>
      <point x="196" y="98"/>
      <point x="168" y="131"/>
      <point x="168" y="198" type="curve" smooth="yes"/>
      <point x="168" y="222"/>
      <point x="170" y="241"/>
      <point x="177" y="263" type="curve"/>
      <point x="46" y="263" type="line"/>
      <point x="40" y="241"/>
      <point x="37" y="216"/>
      <point x="37" y="192" type="curve" smooth="yes"/>
      <point x="37" y="64"/>
      <point x="112" y="-10"/>
    </contour>
  </outline>
</glyph>
<glyph name="hardsign-georgian" format="2">
  <advance width="500"/>
  <unicode hex="10FE"/>
  <outline>
    <contour>
      <point x="52" y="547" type="curve"/>
      <point x="52" y="437" type="line"/>
      <point x="80" y="437"/>
      <point x="119" y="434"/>
      <point x="162" y="417" type="curve"/>
      <point x="162" y="413" type="line"/>
      <point x="84" y="362"/>
      <point x="42" y="287"/>
      <point x="42" y="195" type="curve" smooth="yes"/>
      <point x="42" y="79"/>
      <point x="119" y="-10"/>
      <point x="250" y="-10" type="curve" smooth="yes"/>
      <point x="381" y="-10"/>
      <point x="458" y="79"/>
      <point x="458" y="195" type="curve" smooth="yes"/>
      <point x="458" y="286"/>
      <point x="416" y="362"/>
      <point x="338" y="413" type="curve"/>
      <point x="338" y="417" type="line"/>
      <point x="379" y="433"/>
      <point x="420" y="437"/>
      <point x="448" y="437" type="curve"/>
      <point x="448" y="547" type="line"/>
      <point x="377" y="547"/>
      <point x="309" y="523"/>
      <point x="250" y="486" type="curve"/>
      <point x="191" y="523"/>
      <point x="124" y="547"/>
    </contour>
    <contour>
      <point x="250" y="376" type="curve"/>
      <point x="295" y="336"/>
      <point x="326" y="282"/>
      <point x="326" y="199" type="curve" smooth="yes"/>
      <point x="326" y="144"/>
      <point x="299" y="100"/>
      <point x="250" y="100" type="curve" smooth="yes"/>
      <point x="201" y="100"/>
      <point x="174" y="144"/>
      <point x="174" y="199" type="curve" smooth="yes"/>
      <point x="174" y="282"/>
      <point x="205" y="336"/>
    </contour>
  </outline>
</glyph>
<glyph name="labial-georgian" format="2">
  <advance width="500"/>
  <unicode hex="10FF"/>
  <outline>
    <contour>
      <point x="458" y="275" type="curve" smooth="yes"/>
      <point x="458" y="457"/>
      <point x="377" y="557"/>
      <point x="251" y="557" type="curve" smooth="yes"/>
      <point x="104" y="557"/>
      <point x="42" y="440"/>
      <point x="42" y="275" type="curve" smooth="yes"/>
      <point x="42" y="120"/>
      <point x="107" y="-10"/>
      <point x="249" y="-10" type="curve" smooth="yes"/>
      <point x="401" y="-10"/>
      <point x="458" y="123"/>
    </contour>
    <contour>
      <point x="174" y="273" type="curve" smooth="yes"/>
      <point x="174" y="391"/>
      <point x="197" y="447"/>
      <point x="250" y="447" type="curve" smooth="yes"/>
      <point x="304" y="447"/>
      <point x="325" y="390"/>
      <point x="325" y="275" type="curve" smooth="yes"/>
      <point x="325" y="158"/>
      <point x="304" y="100"/>
      <point x="250" y="100" type="curve" smooth="yes"/>
      <point x="197" y="100"/>
      <point x="174" y="159"/>
    </contour>
  </outline>
</glyph>
<glyph name="An-georgian" format="2">
  <advance width="518"/>
  <unicode hex="1C90"/>
  <anchor x="257" y="714" name="top"/>
  <outline>
    <contour>
      <point x="257" y="-10" type="curve" smooth="yes"/>
      <point x="391" y="-10"/>
      <point x="472" y="80"/>
      <point x="472" y="233" type="curve" smooth="yes"/>
      <point x="472" y="344"/>
      <point x="431" y="428"/>
      <point x="391" y="499" type="curve" smooth="yes"/>
      <point x="348" y="575"/>
      <point x="314" y="640"/>
      <point x="325" y="714" type="curve"/>
      <point x="184" y="714" type="line"/>
      <point x="167" y="608"/>
      <point x="216" y="529"/>
      <point x="261" y="452" type="curve" smooth="yes"/>
      <point x="300" y="386"/>
      <point x="330" y="318"/>
      <point x="330" y="237" type="curve" smooth="yes"/>
      <point x="330" y="154"/>
      <point x="309" y="109"/>
      <point x="256" y="109" type="curve" smooth="yes"/>
      <point x="205" y="109"/>
      <point x="182" y="155"/>
      <point x="182" y="235" type="curve" smooth="yes"/>
      <point x="182" y="279"/>
      <point x="190" y="334"/>
      <point x="213" y="404" type="curve"/>
      <point x="260" y="352" type="line"/>
      <point x="1" y="352" type="line"/>
      <point x="76" y="398" type="line"/>
      <point x="52" y="329"/>
      <point x="41" y="280"/>
      <point x="41" y="223" type="curve" smooth="yes"/>
      <point x="41" y="81"/>
      <point x="122" y="-10"/>
    </contour>
  </outline>
</glyph>
<glyph name="Ban-georgian" format="2">
  <advance width="542"/>
  <unicode hex="1C91"/>
  <outline>
    <contour>
      <point x="271" y="-10" type="curve" smooth="yes"/>
      <point x="430" y="-10"/>
      <point x="496" y="123"/>
      <point x="496" y="260" type="curve" smooth="yes"/>
      <point x="496" y="430"/>
      <point x="404" y="526"/>
      <point x="273" y="526" type="curve" smooth="yes"/>
      <point x="119" y="526"/>
      <point x="46" y="411"/>
      <point x="46" y="260" type="curve" smooth="yes"/>
      <point x="46" y="120"/>
      <point x="122" y="-10"/>
    </contour>
    <contour>
      <point x="272" y="109" type="curve" smooth="yes"/>
      <point x="218" y="109"/>
      <point x="188" y="163"/>
      <point x="188" y="258" type="curve" smooth="yes"/>
      <point x="188" y="358"/>
      <point x="218" y="407"/>
      <point x="272" y="407" type="curve" smooth="yes"/>
      <point x="326" y="407"/>
      <point x="354" y="357"/>
      <point x="354" y="260" type="curve" smooth="yes"/>
      <point x="354" y="161"/>
      <point x="326" y="109"/>
    </contour>
    <contour>
      <point x="341" y="501" type="line"/>
      <point x="353" y="521"/>
      <point x="361" y="541"/>
      <point x="361" y="569" type="curve" smooth="yes"/>
      <point x="361" y="614"/>
      <point x="338" y="637"/>
      <point x="319" y="655" type="curve" smooth="yes"/>
      <point x="302" y="672"/>
      <point x="288" y="688"/>
      <point x="289" y="714" type="curve"/>
      <point x="149" y="714" type="line"/>
      <point x="140" y="654"/>
      <point x="164" y="629"/>
      <point x="190" y="603" type="curve" smooth="yes"/>
      <point x="208" y="585"/>
      <point x="219" y="570"/>
      <point x="219" y="548" type="curve" smooth="yes"/>
      <point x="219" y="536"/>
      <point x="214" y="516"/>
      <point x="205" y="508" type="curve"/>
    </contour>
  </outline>
</glyph>
<glyph name="Gan-georgian" format="2">
  <advance width="532"/>
  <unicode hex="1C92"/>
  <outline>
    <contour>
      <point x="266" y="-10" type="curve" smooth="yes"/>
      <point x="425" y="-10"/>
      <point x="491" y="120"/>
      <point x="491" y="248" type="curve" smooth="yes"/>
      <point x="491" y="362"/>
      <point x="451" y="427"/>
      <point x="378" y="462" type="curve"/>
      <point x="378" y="465" type="line"/>
      <point x="425" y="490"/>
      <point x="443" y="536"/>
      <point x="443" y="578" type="curve" smooth="yes"/>
      <point x="443" y="659"/>
      <point x="380" y="724"/>
      <point x="261" y="724" type="curve" smooth="yes"/>
      <point x="149" y="724"/>
      <point x="80" y="660"/>
      <point x="80" y="586" type="curve" smooth="yes"/>
      <point x="80" y="572"/>
      <point x="82" y="556"/>
      <point x="85" y="545" type="curve"/>
      <point x="212" y="545" type="line"/>
      <point x="210" y="553"/>
      <point x="209" y="561"/>
      <point x="209" y="571" type="curve" smooth="yes"/>
      <point x="209" y="597"/>
      <point x="228" y="617"/>
      <point x="260" y="617" type="curve" smooth="yes"/>
      <point x="293" y="617"/>
      <point x="311" y="597"/>
      <point x="311" y="567" type="curve" smooth="yes"/>
      <point x="311" y="535"/>
      <point x="302" y="508"/>
      <point x="242" y="499" type="curve" smooth="yes"/>
      <point x="105" y="478"/>
      <point x="41" y="379"/>
      <point x="41" y="248" type="curve" smooth="yes"/>
      <point x="41" y="117"/>
      <point x="117" y="-10"/>
    </contour>
    <contour>
      <point x="267" y="110" type="curve" smooth="yes"/>
      <point x="213" y="110"/>
      <point x="183" y="161"/>
      <point x="183" y="246" type="curve" smooth="yes"/>
      <point x="183" y="332"/>
      <point x="213" y="380"/>
      <point x="267" y="380" type="curve" smooth="yes"/>
      <point x="322" y="380"/>
      <point x="349" y="330"/>
      <point x="349" y="248" type="curve" smooth="yes"/>
      <point x="349" y="159"/>
      <point x="321" y="110"/>
    </contour>
  </outline>
</glyph>
<glyph name="Don-georgian" format="2">
  <advance width="773"/>
  <unicode hex="1C93"/>
  <outline>
    <contour>
      <point x="456" y="0" type="curve"/>
      <point x="588" y="0" type="line"/>
      <point x="580" y="112"/>
      <point x="494" y="160"/>
      <point x="403" y="191" type="curve" smooth="yes"/>
      <point x="296" y="227"/>
      <point x="186" y="294"/>
      <point x="186" y="467" type="curve" smooth="yes"/>
      <point x="186" y="560"/>
      <point x="205" y="605"/>
      <point x="250" y="605" type="curve" smooth="yes"/>
      <point x="298" y="605"/>
      <point x="304" y="556"/>
      <point x="304" y="498" type="curve" smooth="yes"/>
      <point x="304" y="471" type="line" smooth="yes"/>
      <point x="304" y="369"/>
      <point x="360" y="244"/>
      <point x="516" y="244" type="curve" smooth="yes"/>
      <point x="665" y="244"/>
      <point x="727" y="369"/>
      <point x="727" y="484" type="curve" smooth="yes"/>
      <point x="727" y="613"/>
      <point x="664" y="724"/>
      <point x="520" y="724" type="curve" smooth="yes"/>
      <point x="458" y="724"/>
      <point x="397" y="696"/>
      <point x="376" y="639" type="curve"/>
      <point x="372" y="639" type="line"/>
      <point x="353" y="696"/>
      <point x="300" y="724"/>
      <point x="238" y="724" type="curve" smooth="yes"/>
      <point x="116" y="724"/>
      <point x="46" y="625"/>
      <point x="46" y="469" type="curve" smooth="yes"/>
      <point x="46" y="345"/>
      <point x="106" y="230"/>
      <point x="222" y="176" type="curve"/>
      <point x="222" y="172" type="line"/>
      <point x="186" y="167"/>
      <point x="153" y="156"/>
      <point x="126" y="142" type="curve"/>
      <point x="167" y="53" type="line"/>
      <point x="203" y="72"/>
      <point x="256" y="86"/>
      <point x="301" y="86" type="curve" smooth="yes"/>
      <point x="368" y="86"/>
      <point x="443" y="64"/>
    </contour>
    <contour>
      <point x="515" y="363" type="curve" smooth="yes"/>
      <point x="461" y="363"/>
      <point x="444" y="415"/>
      <point x="444" y="483" type="curve" smooth="yes"/>
      <point x="444" y="557"/>
      <point x="462" y="605"/>
      <point x="515" y="605" type="curve" smooth="yes"/>
      <point x="567" y="605"/>
      <point x="586" y="558"/>
      <point x="586" y="482" type="curve" smooth="yes"/>
      <point x="586" y="415"/>
      <point x="567" y="363"/>
    </contour>
  </outline>
</glyph>
<glyph name="En-georgian" format="2">
  <advance width="528"/>
  <unicode hex="1C94"/>
  <anchor x="264" y="714" name="top"/>
  <outline>
    <contour>
      <point x="256" y="-10" type="curve" smooth="yes"/>
      <point x="391" y="-10"/>
      <point x="467" y="72"/>
      <point x="467" y="213" type="curve" smooth="yes"/>
      <point x="467" y="534" type="line" smooth="yes"/>
      <point x="467" y="651"/>
      <point x="383" y="724"/>
      <point x="265" y="724" type="curve" smooth="yes"/>
      <point x="149" y="724"/>
      <point x="58" y="661"/>
      <point x="58" y="544" type="curve" smooth="yes"/>
      <point x="58" y="511"/>
      <point x="62" y="487"/>
      <point x="70" y="455" type="curve"/>
      <point x="206" y="455" type="line"/>
      <point x="201" y="484"/>
      <point x="199" y="508"/>
      <point x="199" y="533" type="curve" smooth="yes"/>
      <point x="199" y="575"/>
      <point x="222" y="605"/>
      <point x="264" y="605" type="curve" smooth="yes"/>
      <point x="306" y="605"/>
      <point x="330" y="577"/>
      <point x="330" y="531" type="curve" smooth="yes"/>
      <point x="330" y="217" type="line" smooth="yes"/>
      <point x="330" y="152"/>
      <point x="313" y="109"/>
      <point x="256" y="109" type="curve" smooth="yes"/>
      <point x="201" y="109"/>
      <point x="182" y="158"/>
      <point x="182" y="215" type="curve" smooth="yes"/>
      <point x="182" y="243"/>
      <point x="186" y="276"/>
      <point x="193" y="303" type="curve"/>
      <point x="58" y="303" type="line"/>
      <point x="48" y="272"/>
      <point x="41" y="238"/>
      <point x="41" y="203" type="curve" smooth="yes"/>
      <point x="41" y="89"/>
      <point x="114" y="-10"/>
    </contour>
  </outline>
</glyph>
<glyph name="Vin-georgian" format="2">
  <advance width="518"/>
  <unicode hex="1C95"/>
  <outline>
    <contour>
      <point x="260" y="-10" type="curve" smooth="yes"/>
      <point x="398" y="-10"/>
      <point x="477" y="83"/>
      <point x="477" y="202" type="curve" smooth="yes"/>
      <point x="477" y="303"/>
      <point x="429" y="367"/>
      <point x="360" y="386" type="curve"/>
      <point x="360" y="389" type="line"/>
      <point x="429" y="407"/>
      <point x="466" y="467"/>
      <point x="466" y="547" type="curve" smooth="yes"/>
      <point x="466" y="658"/>
      <point x="379" y="724"/>
      <point x="262" y="724" type="curve" smooth="yes"/>
      <point x="147" y="724"/>
      <point x="57" y="663"/>
      <point x="57" y="555" type="curve" smooth="yes"/>
      <point x="57" y="523"/>
      <point x="61" y="507"/>
      <point x="65" y="485" type="curve"/>
      <point x="202" y="485" type="line"/>
      <point x="199" y="502"/>
      <point x="196" y="517"/>
      <point x="196" y="536" type="curve" smooth="yes"/>
      <point x="196" y="576"/>
      <point x="217" y="608"/>
      <point x="260" y="608" type="curve" smooth="yes"/>
      <point x="303" y="608"/>
      <point x="325" y="581"/>
      <point x="325" y="530" type="curve" smooth="yes"/>
      <point x="325" y="477"/>
      <point x="305" y="436"/>
      <point x="251" y="436" type="curve" smooth="yes"/>
      <point x="223" y="436" type="line"/>
      <point x="223" y="323" type="line"/>
      <point x="249" y="323" type="line" smooth="yes"/>
      <point x="306" y="323"/>
      <point x="336" y="283"/>
      <point x="336" y="212" type="curve" smooth="yes"/>
      <point x="336" y="141"/>
      <point x="311" y="106"/>
      <point x="259" y="106" type="curve" smooth="yes"/>
      <point x="204" y="106"/>
      <point x="181" y="151"/>
      <point x="181" y="212" type="curve" smooth="yes"/>
      <point x="181" y="234"/>
      <point x="184" y="256"/>
      <point x="188" y="276" type="curve"/>
      <point x="53" y="276" type="line"/>
      <point x="45" y="247"/>
      <point x="41" y="219"/>
      <point x="41" y="195" type="curve" smooth="yes"/>
      <point x="41" y="70"/>
      <point x="127" y="-10"/>
    </contour>
  </outline>
</glyph>
<glyph name="Zen-georgian" format="2">
  <advance width="559"/>
  <unicode hex="1C96"/>
  <outline>
    <contour>
      <point x="291" y="-10" type="curve" smooth="yes"/>
      <point x="454" y="-10"/>
      <point x="513" y="116"/>
      <point x="513" y="246" type="curve" smooth="yes"/>
      <point x="513" y="356"/>
      <point x="467" y="440"/>
      <point x="373" y="470" type="curve" smooth="yes"/>
      <point x="366" y="472"/>
      <point x="361" y="473"/>
      <point x="356" y="474" type="curve"/>
      <point x="356" y="476" type="line"/>
      <point x="375" y="497"/>
      <point x="386" y="529"/>
      <point x="386" y="566" type="curve" smooth="yes"/>
      <point x="386" y="653"/>
      <point x="318" y="724"/>
      <point x="202" y="724" type="curve" smooth="yes"/>
      <point x="71" y="724"/>
      <point x="17" y="643"/>
      <point x="17" y="549" type="curve" smooth="yes"/>
      <point x="17" y="482"/>
      <point x="58" y="421"/>
      <point x="127" y="400" type="curve"/>
      <point x="127" y="397" type="line"/>
      <point x="87" y="355"/>
      <point x="72" y="297"/>
      <point x="72" y="228" type="curve" smooth="yes"/>
      <point x="72" y="109"/>
      <point x="139" y="-10"/>
    </contour>
    <contour>
      <point x="293" y="108" type="curve" smooth="yes"/>
      <point x="239" y="108"/>
      <point x="214" y="160"/>
      <point x="214" y="244" type="curve" smooth="yes"/>
      <point x="214" y="330"/>
      <point x="236" y="381"/>
      <point x="292" y="381" type="curve" smooth="yes"/>
      <point x="351" y="381"/>
      <point x="371" y="330"/>
      <point x="371" y="246" type="curve" smooth="yes"/>
      <point x="371" y="161"/>
      <point x="351" y="108"/>
    </contour>
    <contour>
      <point x="201" y="480" type="curve" smooth="yes"/>
      <point x="164" y="480"/>
      <point x="147" y="513"/>
      <point x="147" y="550" type="curve" smooth="yes"/>
      <point x="147" y="589"/>
      <point x="164" y="618"/>
      <point x="201" y="618" type="curve" smooth="yes"/>
      <point x="239" y="618"/>
      <point x="255" y="588"/>
      <point x="255" y="550" type="curve" smooth="yes"/>
      <point x="255" y="511"/>
      <point x="241" y="480"/>
    </contour>
  </outline>
</glyph>
<glyph name="Tan-georgian" format="2">
  <advance width="817"/>
  <unicode hex="1C97"/>
  <outline>
    <contour>
      <point x="565" y="724" type="curve" smooth="yes"/>
      <point x="509" y="724"/>
      <point x="449" y="699"/>
      <point x="427" y="640" type="curve"/>
      <point x="424" y="640" type="line"/>
      <point x="398" y="699"/>
      <point x="340" y="724"/>
      <point x="274" y="724" type="curve" smooth="yes"/>
      <point x="117" y="724"/>
      <point x="51" y="609"/>
      <point x="50" y="357" type="curve" smooth="yes"/>
      <point x="49" y="104"/>
      <point x="121" y="-10"/>
      <point x="277" y="-10" type="curve" smooth="yes"/>
      <point x="434" y="-10"/>
      <point x="502" y="105"/>
      <point x="502" y="357" type="curve" smooth="yes"/>
      <point x="502" y="403"/>
      <point x="496" y="451"/>
      <point x="496" y="491" type="curve"/>
      <point x="496" y="569"/>
      <point x="517" y="604"/>
      <point x="557" y="604" type="curve" smooth="yes"/>
      <point x="597" y="604"/>
      <point x="625" y="556"/>
      <point x="625" y="400" type="curve" smooth="yes"/>
      <point x="625" y="228"/>
      <point x="593" y="104"/>
      <point x="558" y="0" type="curve"/>
      <point x="699" y="0" type="line"/>
      <point x="740" y="122"/>
      <point x="767" y="218"/>
      <point x="767" y="401" type="curve" smooth="yes"/>
      <point x="767" y="609"/>
      <point x="698" y="724"/>
    </contour>
    <contour>
      <point x="277" y="109" type="curve" smooth="yes"/>
      <point x="214" y="109"/>
      <point x="192" y="179"/>
      <point x="192" y="357" type="curve" smooth="yes"/>
      <point x="192" y="534"/>
      <point x="213" y="605"/>
      <point x="277" y="605" type="curve" smooth="yes"/>
      <point x="338" y="605"/>
      <point x="360" y="538"/>
      <point x="360" y="357" type="curve" smooth="yes"/>
      <point x="360" y="181"/>
      <point x="340" y="109"/>
    </contour>
  </outline>
</glyph>
<glyph name="In-georgian" format="2">
  <advance width="551"/>
  <unicode hex="1C98"/>
  <anchor x="276" y="714" name="top"/>
  <outline>
    <contour>
      <point x="103" y="0" type="curve"/>
      <point x="241" y="0" type="line"/>
      <point x="211" y="103"/>
      <point x="191" y="214"/>
      <point x="191" y="388" type="curve" smooth="yes"/>
      <point x="191" y="557"/>
      <point x="223" y="605"/>
      <point x="275" y="605" type="curve" smooth="yes"/>
      <point x="328" y="605"/>
      <point x="359" y="556"/>
      <point x="359" y="388" type="curve" smooth="yes"/>
      <point x="359" y="212"/>
      <point x="339" y="101"/>
      <point x="310" y="0" type="curve"/>
      <point x="447" y="0" type="line"/>
      <point x="483" y="118"/>
      <point x="501" y="211"/>
      <point x="501" y="389" type="curve" smooth="yes"/>
      <point x="501" y="610"/>
      <point x="427" y="724"/>
      <point x="275" y="724" type="curve" smooth="yes"/>
      <point x="123" y="724"/>
      <point x="50" y="609"/>
      <point x="50" y="389" type="curve" smooth="yes"/>
      <point x="50" y="218"/>
      <point x="66" y="122"/>
    </contour>
  </outline>
</glyph>
<glyph name="Kan-georgian" format="2">
  <advance width="505"/>
  <unicode hex="1C99"/>
  <outline>
    <contour>
      <point x="249" y="-10" type="curve" smooth="yes"/>
      <point x="383" y="-10"/>
      <point x="464" y="81"/>
      <point x="464" y="209" type="curve" smooth="yes"/>
      <point x="464" y="319"/>
      <point x="416" y="384"/>
      <point x="350" y="402" type="curve"/>
      <point x="350" y="405" type="line"/>
      <point x="415" y="424"/>
      <point x="450" y="479"/>
      <point x="450" y="552" type="curve" smooth="yes"/>
      <point x="450" y="664"/>
      <point x="367" y="724"/>
      <point x="251" y="724" type="curve"/>
      <point x="251" y="608" type="line"/>
      <point x="289" y="603"/>
      <point x="311" y="574"/>
      <point x="311" y="532" type="curve" smooth="yes"/>
      <point x="311" y="486"/>
      <point x="285" y="456"/>
      <point x="231" y="456" type="curve" smooth="yes"/>
      <point x="206" y="456" type="line"/>
      <point x="206" y="340" type="line"/>
      <point x="233" y="340" type="line" smooth="yes"/>
      <point x="290" y="340"/>
      <point x="322" y="301"/>
      <point x="322" y="219" type="curve" smooth="yes"/>
      <point x="322" y="139"/>
      <point x="297" y="106"/>
      <point x="249" y="106" type="curve" smooth="yes"/>
      <point x="198" y="106"/>
      <point x="175" y="151"/>
      <point x="175" y="212" type="curve" smooth="yes"/>
      <point x="175" y="234"/>
      <point x="178" y="256"/>
      <point x="182" y="276" type="curve"/>
      <point x="47" y="276" type="line"/>
      <point x="39" y="247"/>
      <point x="35" y="219"/>
      <point x="35" y="195" type="curve" smooth="yes"/>
      <point x="35" y="70"/>
      <point x="121" y="-10"/>
    </contour>
  </outline>
</glyph>
<glyph name="Las-georgian" format="2">
  <advance width="954"/>
  <unicode hex="1C9A"/>
  <outline>
    <contour>
      <point x="562" y="0" type="curve"/>
      <point x="695" y="0" type="line"/>
      <point x="673" y="155"/>
      <point x="529" y="204"/>
      <point x="424" y="222" type="curve" smooth="yes"/>
      <point x="270" y="248"/>
      <point x="186" y="309"/>
      <point x="186" y="475" type="curve" smooth="yes"/>
      <point x="186" y="562"/>
      <point x="202" y="605"/>
      <point x="243" y="605" type="curve" smooth="yes"/>
      <point x="282" y="605"/>
      <point x="291" y="566"/>
      <point x="291" y="519" type="curve" smooth="yes"/>
      <point x="291" y="367" type="line"/>
      <point x="426" y="367" type="line"/>
      <point x="426" y="519" type="line" smooth="yes"/>
      <point x="426" y="559"/>
      <point x="433" y="605"/>
      <point x="478" y="605" type="curve" smooth="yes"/>
      <point x="519" y="605"/>
      <point x="528" y="564"/>
      <point x="528" y="519" type="curve" smooth="yes"/>
      <point x="528" y="367" type="line"/>
      <point x="664" y="367" type="line"/>
      <point x="664" y="519" type="line" smooth="yes"/>
      <point x="664" y="559"/>
      <point x="670" y="605"/>
      <point x="712" y="605" type="curve" smooth="yes"/>
      <point x="753" y="605"/>
      <point x="769" y="561"/>
      <point x="769" y="477" type="curve" smooth="yes"/>
      <point x="769" y="399"/>
      <point x="759" y="343"/>
      <point x="730" y="285" type="curve"/>
      <point x="856" y="250" type="line"/>
      <point x="894" y="325"/>
      <point x="908" y="387"/>
      <point x="908" y="478" type="curve" smooth="yes"/>
      <point x="908" y="627"/>
      <point x="845" y="724"/>
      <point x="735" y="724" type="curve" smooth="yes"/>
      <point x="667" y="724"/>
      <point x="619" y="692"/>
      <point x="601" y="633" type="curve"/>
      <point x="597" y="633" type="line"/>
      <point x="581" y="690"/>
      <point x="539" y="724"/>
      <point x="478" y="724" type="curve" smooth="yes"/>
      <point x="418" y="724"/>
      <point x="375" y="693"/>
      <point x="358" y="633" type="curve"/>
      <point x="354" y="633" type="line"/>
      <point x="336" y="692"/>
      <point x="288" y="724"/>
      <point x="220" y="724" type="curve" smooth="yes"/>
      <point x="110" y="724"/>
      <point x="46" y="628"/>
      <point x="46" y="484" type="curve" smooth="yes"/>
      <point x="46" y="315"/>
      <point x="126" y="221"/>
      <point x="249" y="186" type="curve"/>
      <point x="249" y="182" type="line"/>
      <point x="220" y="178"/>
      <point x="188" y="166"/>
      <point x="158" y="150" type="curve"/>
      <point x="204" y="64" type="line"/>
      <point x="243" y="86"/>
      <point x="299" y="104"/>
      <point x="362" y="104" type="curve" smooth="yes"/>
      <point x="433" y="104"/>
      <point x="543" y="81"/>
    </contour>
  </outline>
</glyph>
<glyph name="Man-georgian" format="2">
  <advance width="548"/>
  <unicode hex="1C9B"/>
  <outline>
    <contour>
      <point x="272" y="-10" type="curve" smooth="yes"/>
      <point x="409" y="-10"/>
      <point x="487" y="82"/>
      <point x="487" y="249" type="curve" smooth="yes"/>
      <point x="487" y="541" type="line" smooth="yes"/>
      <point x="487" y="656"/>
      <point x="406" y="724"/>
      <point x="282" y="724" type="curve" smooth="yes"/>
      <point x="169" y="724"/>
      <point x="78" y="667"/>
      <point x="78" y="576" type="curve" smooth="yes"/>
      <point x="78" y="568"/>
      <point x="78" y="558"/>
      <point x="81" y="543" type="curve"/>
      <point x="217" y="543" type="line"/>
      <point x="216" y="550"/>
      <point x="216" y="554"/>
      <point x="216" y="559" type="curve" smooth="yes"/>
      <point x="216" y="593"/>
      <point x="242" y="615"/>
      <point x="283" y="615" type="curve" smooth="yes"/>
      <point x="326" y="615"/>
      <point x="349" y="590"/>
      <point x="349" y="551" type="curve" smooth="yes"/>
      <point x="349" y="515" type="line" smooth="yes"/>
      <point x="349" y="498"/>
      <point x="349" y="473"/>
      <point x="353" y="435" type="curve"/>
      <point x="348" y="435" type="line"/>
      <point x="318" y="481"/>
      <point x="273" y="498"/>
      <point x="220" y="498" type="curve" smooth="yes"/>
      <point x="111" y="498"/>
      <point x="46" y="407"/>
      <point x="46" y="249" type="curve" smooth="yes"/>
      <point x="46" y="90"/>
      <point x="128" y="-10"/>
    </contour>
    <contour>
      <point x="271" y="109" type="curve" smooth="yes"/>
      <point x="212" y="109"/>
      <point x="188" y="159"/>
      <point x="188" y="249" type="curve" smooth="yes"/>
      <point x="188" y="336"/>
      <point x="212" y="388"/>
      <point x="265" y="388" type="curve" smooth="yes"/>
      <point x="325" y="388"/>
      <point x="349" y="342"/>
      <point x="349" y="270" type="curve" smooth="yes"/>
      <point x="349" y="242" type="line" smooth="yes"/>
      <point x="349" y="164"/>
      <point x="328" y="109"/>
    </contour>
  </outline>
</glyph>
<glyph name="Nar-georgian" format="2">
  <advance width="548"/>
  <unicode hex="1C9C"/>
  <outline>
    <contour>
      <point x="277" y="-10" type="curve" smooth="yes"/>
      <point x="421" y="-10"/>
      <point x="502" y="92"/>
      <point x="502" y="250" type="curve" smooth="yes"/>
      <point x="502" y="407"/>
      <point x="438" y="502"/>
      <point x="331" y="502" type="curve" smooth="yes"/>
      <point x="274" y="502"/>
      <point x="230" y="483"/>
      <point x="200" y="431" type="curve"/>
      <point x="194" y="431" type="line"/>
      <point x="199" y="473"/>
      <point x="199" y="488"/>
      <point x="199" y="505" type="curve" smooth="yes"/>
      <point x="199" y="528" type="line" smooth="yes"/>
      <point x="199" y="576"/>
      <point x="228" y="594"/>
      <point x="274" y="594" type="curve" smooth="yes"/>
      <point x="458" y="594" type="line"/>
      <point x="458" y="714" type="line"/>
      <point x="251" y="714" type="line" smooth="yes"/>
      <point x="149" y="714"/>
      <point x="61" y="657"/>
      <point x="61" y="538" type="curve" smooth="yes"/>
      <point x="61" y="249" type="line" smooth="yes"/>
      <point x="61" y="82"/>
      <point x="139" y="-10"/>
    </contour>
    <contour>
      <point x="279" y="109" type="curve" smooth="yes"/>
      <point x="212" y="109"/>
      <point x="199" y="170"/>
      <point x="199" y="237" type="curve" smooth="yes"/>
      <point x="199" y="260" type="line" smooth="yes"/>
      <point x="199" y="320"/>
      <point x="211" y="385"/>
      <point x="284" y="385" type="curve" smooth="yes"/>
      <point x="337" y="385"/>
      <point x="361" y="332"/>
      <point x="361" y="247" type="curve" smooth="yes"/>
      <point x="361" y="160"/>
      <point x="337" y="109"/>
    </contour>
  </outline>
</glyph>
<glyph name="On-georgian" format="2">
  <advance width="765"/>
  <unicode hex="1C9D"/>
  <anchor x="383" y="714" name="top"/>
  <outline>
    <contour>
      <point x="117" y="0" type="curve"/>
      <point x="258" y="0" type="line"/>
      <point x="224" y="102"/>
      <point x="191" y="223"/>
      <point x="191" y="400" type="curve" smooth="yes"/>
      <point x="191" y="553"/>
      <point x="215" y="605"/>
      <point x="255" y="605" type="curve" smooth="yes"/>
      <point x="306" y="605"/>
      <point x="312" y="537"/>
      <point x="312" y="480" type="curve" smooth="yes"/>
      <point x="312" y="210" type="line"/>
      <point x="453" y="210" type="line"/>
      <point x="453" y="480" type="line" smooth="yes"/>
      <point x="453" y="536"/>
      <point x="459" y="605"/>
      <point x="508" y="605" type="curve" smooth="yes"/>
      <point x="550" y="605"/>
      <point x="573" y="552"/>
      <point x="573" y="400" type="curve" smooth="yes"/>
      <point x="573" y="220"/>
      <point x="540" y="100"/>
      <point x="507" y="0" type="curve"/>
      <point x="647" y="0" type="line"/>
      <point x="689" y="122"/>
      <point x="715" y="223"/>
      <point x="715" y="401" type="curve" smooth="yes"/>
      <point x="715" y="610"/>
      <point x="645" y="724"/>
      <point x="517" y="724" type="curve" smooth="yes"/>
      <point x="465" y="724"/>
      <point x="409" y="703"/>
      <point x="384" y="643" type="curve"/>
      <point x="381" y="643" type="line"/>
      <point x="357" y="704"/>
      <point x="305" y="724"/>
      <point x="247" y="724" type="curve" smooth="yes"/>
      <point x="119" y="724"/>
      <point x="50" y="609"/>
      <point x="50" y="401" type="curve" smooth="yes"/>
      <point x="50" y="214"/>
      <point x="77" y="122"/>
    </contour>
  </outline>
</glyph>
<glyph name="Par-georgian" format="2">
  <advance width="515"/>
  <unicode hex="1C9E"/>
  <outline>
    <contour>
      <point x="253" y="-10" type="curve" smooth="yes"/>
      <point x="388" y="-10"/>
      <point x="469" y="83"/>
      <point x="469" y="210" type="curve" smooth="yes"/>
      <point x="469" y="317"/>
      <point x="409" y="378"/>
      <point x="356" y="395" type="curve"/>
      <point x="356" y="398" type="line"/>
      <point x="413" y="412"/>
      <point x="447" y="455"/>
      <point x="447" y="504" type="curve" smooth="yes"/>
      <point x="447" y="566"/>
      <point x="415" y="605"/>
      <point x="375" y="636" type="curve" smooth="yes"/>
      <point x="341" y="663"/>
      <point x="316" y="684"/>
      <point x="316" y="714" type="curve"/>
      <point x="176" y="714" type="line"/>
      <point x="170" y="647"/>
      <point x="205" y="607"/>
      <point x="245" y="578" type="curve" smooth="yes"/>
      <point x="278" y="554"/>
      <point x="306" y="533"/>
      <point x="306" y="501" type="curve" smooth="yes"/>
      <point x="306" y="470"/>
      <point x="284" y="452"/>
      <point x="233" y="452" type="curve" smooth="yes"/>
      <point x="202" y="452" type="line"/>
      <point x="202" y="338" type="line"/>
      <point x="234" y="338" type="line" smooth="yes"/>
      <point x="293" y="338"/>
      <point x="327" y="295"/>
      <point x="327" y="219" type="curve" smooth="yes"/>
      <point x="327" y="141"/>
      <point x="304" y="106"/>
      <point x="252" y="106" type="curve" smooth="yes"/>
      <point x="204" y="106"/>
      <point x="181" y="151"/>
      <point x="181" y="212" type="curve" smooth="yes"/>
      <point x="181" y="234"/>
      <point x="184" y="256"/>
      <point x="188" y="276" type="curve"/>
      <point x="53" y="276" type="line"/>
      <point x="45" y="247"/>
      <point x="41" y="219"/>
      <point x="41" y="195" type="curve" smooth="yes"/>
      <point x="41" y="70"/>
      <point x="127" y="-10"/>
    </contour>
  </outline>
</glyph>
<glyph name="Zhar-georgian" format="2">
  <advance width="581"/>
  <unicode hex="1C9F"/>
  <outline>
    <contour>
      <point x="301" y="-10" type="curve" smooth="yes"/>
      <point x="438" y="-10"/>
      <point x="515" y="71"/>
      <point x="515" y="212" type="curve" smooth="yes"/>
      <point x="515" y="714" type="line"/>
      <point x="404" y="714" type="line"/>
      <point x="331" y="684"/>
      <point x="256" y="665"/>
      <point x="167" y="657" type="curve"/>
      <point x="167" y="547" type="line"/>
      <point x="201" y="545"/>
      <point x="212" y="520"/>
      <point x="212" y="495" type="curve" smooth="yes"/>
      <point x="212" y="468"/>
      <point x="199" y="452"/>
      <point x="175" y="452" type="curve" smooth="yes"/>
      <point x="153" y="452"/>
      <point x="139" y="467"/>
      <point x="139" y="489" type="curve" smooth="yes"/>
      <point x="139" y="495"/>
      <point x="140" y="502"/>
      <point x="141" y="509" type="curve"/>
      <point x="34" y="509" type="line"/>
      <point x="30" y="495"/>
      <point x="29" y="482"/>
      <point x="29" y="472" type="curve" smooth="yes"/>
      <point x="29" y="408"/>
      <point x="84" y="352"/>
      <point x="175" y="352" type="curve" smooth="yes"/>
      <point x="258" y="352"/>
      <point x="327" y="402"/>
      <point x="327" y="481" type="curve" smooth="yes"/>
      <point x="327" y="520"/>
      <point x="312" y="556"/>
      <point x="275" y="574" type="curve"/>
      <point x="275" y="576" type="line"/>
      <point x="314" y="582"/>
      <point x="344" y="592"/>
      <point x="378" y="605" type="curve"/>
      <point x="378" y="221" type="line" smooth="yes"/>
      <point x="378" y="153"/>
      <point x="361" y="106"/>
      <point x="300" y="106" type="curve" smooth="yes"/>
      <point x="248" y="106"/>
      <point x="226" y="152"/>
      <point x="226" y="212" type="curve" smooth="yes"/>
      <point x="226" y="232"/>
      <point x="228" y="253"/>
      <point x="233" y="276" type="curve"/>
      <point x="98" y="276" type="line"/>
      <point x="90" y="249"/>
      <point x="85" y="221"/>
      <point x="85" y="195" type="curve" smooth="yes"/>
      <point x="85" y="71"/>
      <point x="171" y="-10"/>
    </contour>
  </outline>
</glyph>
<glyph name="Rae-georgian" format="2">
  <advance width="736"/>
  <unicode hex="1CA0"/>
  <outline>
    <contour>
      <point x="94" y="0" type="curve"/>
      <point x="231" y="0" type="line"/>
      <point x="205" y="76"/>
      <point x="188" y="155"/>
      <point x="188" y="252" type="curve" smooth="yes"/>
      <point x="188" y="349"/>
      <point x="200" y="396"/>
      <point x="248" y="396" type="curve" smooth="yes"/>
      <point x="291" y="396"/>
      <point x="299" y="351"/>
      <point x="299" y="287" type="curve" smooth="yes"/>
      <point x="299" y="158" type="line"/>
      <point x="436" y="158" type="line"/>
      <point x="436" y="287" type="line" smooth="yes"/>
      <point x="436" y="349"/>
      <point x="444" y="396"/>
      <point x="489" y="396" type="curve" smooth="yes"/>
      <point x="534" y="396"/>
      <point x="548" y="349"/>
      <point x="548" y="254" type="curve" smooth="yes"/>
      <point x="548" y="170"/>
      <point x="532" y="81"/>
      <point x="503" y="0" type="curve"/>
      <point x="641" y="0" type="line"/>
      <point x="675" y="96"/>
      <point x="690" y="163"/>
      <point x="690" y="258" type="curve" smooth="yes"/>
      <point x="690" y="412"/>
      <point x="622" y="511"/>
      <point x="507" y="511" type="curve" smooth="yes"/>
      <point x="439" y="511"/>
      <point x="390" y="478"/>
      <point x="371" y="412" type="curve"/>
      <point x="368" y="412" type="line"/>
      <point x="351" y="479"/>
      <point x="304" y="511"/>
      <point x="248" y="511" type="curve" smooth="yes"/>
      <point x="219" y="511"/>
      <point x="191" y="503"/>
      <point x="171" y="483" type="curve"/>
      <point x="169" y="485" type="line"/>
      <point x="187" y="531"/>
      <point x="234" y="556"/>
      <point x="289" y="571" type="curve" smooth="yes"/>
      <point x="331" y="582"/>
      <point x="445" y="599"/>
      <point x="516" y="606" type="curve"/>
      <point x="499" y="724" type="line"/>
      <point x="389" y="714"/>
      <point x="313" y="701"/>
      <point x="270" y="690" type="curve" smooth="yes"/>
      <point x="81" y="640"/>
      <point x="46" y="480"/>
      <point x="46" y="312" type="curve" smooth="yes"/>
      <point x="46" y="187"/>
      <point x="56" y="111"/>
    </contour>
  </outline>
</glyph>
<glyph name="San-georgian" format="2">
  <advance width="545"/>
  <unicode hex="1CA1"/>
  <outline>
    <contour>
      <point x="276" y="-10" type="curve" smooth="yes"/>
      <point x="419" y="-10"/>
      <point x="499" y="87"/>
      <point x="499" y="224" type="curve" smooth="yes"/>
      <point x="499" y="292"/>
      <point x="486" y="336"/>
      <point x="464" y="383" type="curve" smooth="yes"/>
      <point x="443" y="426"/>
      <point x="427" y="473"/>
      <point x="428" y="515" type="curve"/>
      <point x="290" y="515" type="line"/>
      <point x="285" y="446"/>
      <point x="305" y="396"/>
      <point x="330" y="341" type="curve" smooth="yes"/>
      <point x="346" y="306"/>
      <point x="357" y="272"/>
      <point x="357" y="224" type="curve" smooth="yes"/>
      <point x="357" y="156"/>
      <point x="335" y="109"/>
      <point x="278" y="109" type="curve" smooth="yes"/>
      <point x="214" y="109"/>
      <point x="198" y="168"/>
      <point x="198" y="239" type="curve" smooth="yes"/>
      <point x="198" y="714" type="line"/>
      <point x="61" y="714" type="line"/>
      <point x="61" y="244" type="line" smooth="yes"/>
      <point x="61" y="81"/>
      <point x="137" y="-10"/>
    </contour>
  </outline>
</glyph>
<glyph name="Tar-georgian" format="2">
  <advance width="686"/>
  <unicode hex="1CA2"/>
  <outline>
    <contour>
      <point x="344" y="-10" type="curve" smooth="yes"/>
      <point x="542" y="-10"/>
      <point x="640" y="121"/>
      <point x="640" y="353" type="curve" smooth="yes"/>
      <point x="640" y="557"/>
      <point x="568" y="675"/>
      <point x="409" y="700" type="curve"/>
      <point x="411" y="713"/>
      <point x="411" y="724"/>
      <point x="411" y="738" type="curve"/>
      <point x="411" y="752" type="line"/>
      <point x="275" y="752" type="line"/>
      <point x="275" y="738" type="line"/>
      <point x="275" y="724"/>
      <point x="276" y="714"/>
      <point x="278" y="700" type="curve"/>
      <point x="122" y="674"/>
      <point x="46" y="554"/>
      <point x="46" y="354" type="curve" smooth="yes"/>
      <point x="46" y="122"/>
      <point x="146" y="-10"/>
    </contour>
    <contour>
      <point x="343" y="109" type="curve" smooth="yes"/>
      <point x="240" y="109"/>
      <point x="188" y="192"/>
      <point x="188" y="350" type="curve" smooth="yes"/>
      <point x="188" y="491"/>
      <point x="215" y="565"/>
      <point x="283" y="584" type="curve"/>
      <point x="278" y="559"/>
      <point x="276" y="520"/>
      <point x="276" y="492" type="curve"/>
      <point x="276" y="337" type="line"/>
      <point x="410" y="337" type="line"/>
      <point x="410" y="493" type="line"/>
      <point x="410" y="523"/>
      <point x="409" y="558"/>
      <point x="403" y="585" type="curve"/>
      <point x="469" y="565"/>
      <point x="498" y="496"/>
      <point x="498" y="350" type="curve" smooth="yes"/>
      <point x="498" y="190"/>
      <point x="448" y="109"/>
    </contour>
  </outline>
</glyph>
<glyph name="Un-georgian" format="2">
  <advance width="538"/>
  <unicode hex="1CA3"/>
  <anchor x="266" y="714" name="top"/>
  <outline>
    <contour>
      <point x="267" y="-10" type="curve" smooth="yes"/>
      <point x="402" y="-10"/>
      <point x="477" y="73"/>
      <point x="477" y="213" type="curve" smooth="yes"/>
      <point x="477" y="553" type="line" smooth="yes"/>
      <point x="477" y="648"/>
      <point x="423" y="724"/>
      <point x="312" y="724" type="curve" smooth="yes"/>
      <point x="244" y="724"/>
      <point x="195" y="699"/>
      <point x="174" y="650" type="curve"/>
      <point x="171" y="650" type="line"/>
      <point x="151" y="702"/>
      <point x="109" y="720"/>
      <point x="60" y="720" type="curve" smooth="yes"/>
      <point x="15" y="720" type="line"/>
      <point x="15" y="596" type="line"/>
      <point x="53" y="596" type="line" smooth="yes"/>
      <point x="89" y="596"/>
      <point x="106" y="574"/>
      <point x="106" y="537" type="curve" smooth="yes"/>
      <point x="106" y="423" type="line"/>
      <point x="240" y="423" type="line"/>
      <point x="240" y="544" type="line" smooth="yes"/>
      <point x="240" y="579"/>
      <point x="255" y="603"/>
      <point x="290" y="603" type="curve" smooth="yes"/>
      <point x="329" y="603"/>
      <point x="340" y="573"/>
      <point x="340" y="542" type="curve" smooth="yes"/>
      <point x="340" y="217" type="line" smooth="yes"/>
      <point x="340" y="156"/>
      <point x="326" y="110"/>
      <point x="267" y="110" type="curve" smooth="yes"/>
      <point x="212" y="110"/>
      <point x="192" y="158"/>
      <point x="192" y="215" type="curve" smooth="yes"/>
      <point x="192" y="242"/>
      <point x="197" y="276"/>
      <point x="204" y="303" type="curve"/>
      <point x="69" y="303" type="line"/>
      <point x="58" y="270"/>
      <point x="52" y="237"/>
      <point x="52" y="203" type="curve" smooth="yes"/>
      <point x="52" y="89"/>
      <point x="125" y="-10"/>
    </contour>
  </outline>
</glyph>
<glyph name="Phar-georgian" format="2">
  <advance width="766"/>
  <unicode hex="1CA4"/>
  <outline>
    <contour>
      <point x="449" y="-9" type="curve" smooth="yes"/>
      <point x="615" y="-9"/>
      <point x="702" y="82"/>
      <point x="702" y="188" type="curve" smooth="yes"/>
      <point x="702" y="262"/>
      <point x="673" y="315"/>
      <point x="606" y="337" type="curve"/>
      <point x="606" y="339" type="line"/>
      <point x="684" y="365"/>
      <point x="720" y="426"/>
      <point x="720" y="521" type="curve" smooth="yes"/>
      <point x="720" y="640"/>
      <point x="651" y="724"/>
      <point x="538" y="724" type="curve" smooth="yes"/>
      <point x="472" y="724"/>
      <point x="420" y="697"/>
      <point x="401" y="641" type="curve"/>
      <point x="397" y="641" type="line"/>
      <point x="376" y="696"/>
      <point x="315" y="724"/>
      <point x="253" y="724" type="curve" smooth="yes"/>
      <point x="110" y="724"/>
      <point x="46" y="613"/>
      <point x="46" y="486" type="curve" smooth="yes"/>
      <point x="46" y="373"/>
      <point x="108" y="248"/>
      <point x="257" y="248" type="curve" smooth="yes"/>
      <point x="412" y="248"/>
      <point x="469" y="373"/>
      <point x="469" y="473" type="curve" smooth="yes"/>
      <point x="469" y="498" type="line" smooth="yes"/>
      <point x="469" y="547"/>
      <point x="472" y="605"/>
      <point x="524" y="605" type="curve" smooth="yes"/>
      <point x="565" y="605"/>
      <point x="581" y="571"/>
      <point x="581" y="507" type="curve" smooth="yes"/>
      <point x="581" y="439"/>
      <point x="558" y="394"/>
      <point x="509" y="394" type="curve" smooth="yes"/>
      <point x="494" y="394" type="line"/>
      <point x="494" y="279" type="line"/>
      <point x="502" y="279" type="line" smooth="yes"/>
      <point x="542" y="279"/>
      <point x="562" y="243"/>
      <point x="562" y="197" type="curve" smooth="yes"/>
      <point x="562" y="146"/>
      <point x="529" y="105"/>
      <point x="449" y="105" type="curve" smooth="yes"/>
      <point x="383" y="105"/>
      <point x="339" y="131"/>
      <point x="339" y="180" type="curve" smooth="yes"/>
      <point x="339" y="182"/>
      <point x="339" y="189"/>
      <point x="339" y="193" type="curve"/>
      <point x="209" y="193" type="line"/>
      <point x="206" y="182"/>
      <point x="205" y="170"/>
      <point x="205" y="158" type="curve" smooth="yes"/>
      <point x="205" y="67"/>
      <point x="290" y="-9"/>
    </contour>
    <contour>
      <point x="259" y="367" type="curve" smooth="yes"/>
      <point x="206" y="367"/>
      <point x="186" y="418"/>
      <point x="186" y="484" type="curve" smooth="yes"/>
      <point x="186" y="559"/>
      <point x="206" y="605"/>
      <point x="259" y="605" type="curve" smooth="yes"/>
      <point x="311" y="605"/>
      <point x="329" y="556"/>
      <point x="329" y="485" type="curve" smooth="yes"/>
      <point x="329" y="417"/>
      <point x="311" y="367"/>
    </contour>
  </outline>
</glyph>
<glyph name="Khar-georgian" format="2">
  <advance width="525"/>
  <unicode hex="1CA5"/>
  <outline>
    <contour>
      <point x="255" y="-10" type="curve" smooth="yes"/>
      <point x="387" y="-10"/>
      <point x="464" y="73"/>
      <point x="464" y="219" type="curve" smooth="yes"/>
      <point x="464" y="714" type="line"/>
      <point x="327" y="714" type="line"/>
      <point x="327" y="633" type="line" smooth="yes"/>
      <point x="327" y="616"/>
      <point x="328" y="585"/>
      <point x="331" y="552" type="curve"/>
      <point x="326" y="552" type="line"/>
      <point x="299" y="600"/>
      <point x="257" y="617"/>
      <point x="208" y="617" type="curve" smooth="yes"/>
      <point x="132" y="617"/>
      <point x="58" y="558"/>
      <point x="58" y="438" type="curve" smooth="yes"/>
      <point x="58" y="416"/>
      <point x="59" y="401"/>
      <point x="63" y="384" type="curve"/>
      <point x="198" y="384" type="line"/>
      <point x="196" y="396"/>
      <point x="195" y="412"/>
      <point x="195" y="425" type="curve" smooth="yes"/>
      <point x="195" y="469"/>
      <point x="218" y="502"/>
      <point x="255" y="502" type="curve" smooth="yes"/>
      <point x="302" y="502"/>
      <point x="327" y="461"/>
      <point x="327" y="387" type="curve" smooth="yes"/>
      <point x="327" y="223" type="line" smooth="yes"/>
      <point x="327" y="152"/>
      <point x="310" y="105"/>
      <point x="254" y="105" type="curve" smooth="yes"/>
      <point x="204" y="105"/>
      <point x="181" y="151"/>
      <point x="181" y="211" type="curve" smooth="yes"/>
      <point x="181" y="230"/>
      <point x="183" y="251"/>
      <point x="188" y="275" type="curve"/>
      <point x="53" y="275" type="line"/>
      <point x="45" y="246"/>
      <point x="41" y="220"/>
      <point x="41" y="195" type="curve" smooth="yes"/>
      <point x="41" y="70"/>
      <point x="127" y="-10"/>
    </contour>
  </outline>
</glyph>
<glyph name="Ghan-georgian" format="2">
  <advance width="730"/>
  <unicode hex="1CA6"/>
  <outline>
    <contour>
      <point x="422" y="0" type="curve"/>
      <point x="559" y="0" type="line"/>
      <point x="551" y="112"/>
      <point x="477" y="166"/>
      <point x="385" y="202" type="curve" smooth="yes"/>
      <point x="279" y="244"/>
      <point x="186" y="298"/>
      <point x="186" y="465" type="curve" smooth="yes"/>
      <point x="186" y="561"/>
      <point x="200" y="605"/>
      <point x="247" y="605" type="curve" smooth="yes"/>
      <point x="293" y="605"/>
      <point x="298" y="554"/>
      <point x="298" y="492" type="curve" smooth="yes"/>
      <point x="298" y="364" type="line"/>
      <point x="432" y="364" type="line"/>
      <point x="432" y="492" type="line" smooth="yes"/>
      <point x="432" y="551"/>
      <point x="436" y="605"/>
      <point x="484" y="605" type="curve" smooth="yes"/>
      <point x="529" y="605"/>
      <point x="544" y="560"/>
      <point x="544" y="466" type="curve" smooth="yes"/>
      <point x="544" y="400"/>
      <point x="536" y="341"/>
      <point x="506" y="279" type="curve"/>
      <point x="628" y="245" type="line"/>
      <point x="670" y="326"/>
      <point x="684" y="390"/>
      <point x="684" y="471" type="curve" smooth="yes"/>
      <point x="684" y="627"/>
      <point x="617" y="724"/>
      <point x="504" y="724" type="curve" smooth="yes"/>
      <point x="436" y="724"/>
      <point x="385" y="692"/>
      <point x="366" y="628" type="curve"/>
      <point x="363" y="628" type="line"/>
      <point x="343" y="692"/>
      <point x="295" y="724"/>
      <point x="227" y="724" type="curve" smooth="yes"/>
      <point x="111" y="724"/>
      <point x="46" y="626"/>
      <point x="46" y="469" type="curve" smooth="yes"/>
      <point x="46" y="346"/>
      <point x="103" y="237"/>
      <point x="213" y="186" type="curve"/>
      <point x="213" y="182" type="line"/>
      <point x="172" y="179"/>
      <point x="143" y="166"/>
      <point x="120" y="155" type="curve"/>
      <point x="162" y="66" type="line"/>
      <point x="197" y="84"/>
      <point x="236" y="96"/>
      <point x="285" y="96" type="curve" smooth="yes"/>
      <point x="350" y="96"/>
      <point x="410" y="64"/>
    </contour>
  </outline>
</glyph>
